<svg width="44" height="45" viewBox="0 0 44 45" fill="none" xmlns="http://www.w3.org/2000/svg">
<path d="M38 21.0054C37.763 17.1046 36.1065 13.4255 33.3432 10.6622C30.5798 7.89888 26.9007 6.24242 23 6.00537V0.00537109H21V6.00537C17.0993 6.24242 13.4202 7.89888 10.6568 10.6622C7.8935 13.4255 6.23705 17.1046 6 21.0054H0V23.0054H6C6.23705 26.9061 7.8935 30.5852 10.6568 33.3485C13.4202 36.1119 17.0993 37.7683 21 38.0054V44.0054H23V38.0054C26.9007 37.7683 30.5798 36.1119 33.3432 33.3485C36.1065 30.5852 37.763 26.9061 38 23.0054H44V21.0054H38ZM22 36.0054C19.2311 36.0054 16.5243 35.1843 14.222 33.6459C11.9197 32.1076 10.1253 29.9211 9.06569 27.3629C8.00606 24.8048 7.72881 21.9898 8.26901 19.2741C8.8092 16.5584 10.1426 14.0638 12.1005 12.1059C14.0584 10.1479 16.553 8.81457 19.2687 8.27438C21.9845 7.73418 24.7994 8.01143 27.3576 9.07106C29.9157 10.1307 32.1022 11.9251 33.6406 14.2274C35.1789 16.5297 36 19.2364 36 22.0054C36 25.7184 34.525 29.2794 31.8995 31.9049C29.274 34.5304 25.713 36.0054 22 36.0054ZM22 20.5054C21.7033 20.5054 21.4133 20.5933 21.1666 20.7582C20.92 20.923 20.7277 21.1573 20.6142 21.4313C20.5007 21.7054 20.4709 22.007 20.5288 22.298C20.5867 22.589 20.7296 22.8563 20.9393 23.066C21.1491 23.2758 21.4164 23.4187 21.7074 23.4765C21.9983 23.5344 22.2999 23.5047 22.574 23.3912C22.8481 23.2777 23.0824 23.0854 23.2472 22.8387C23.412 22.5921 23.5 22.302 23.5 22.0054C23.4948 21.6092 23.3351 21.2306 23.0549 20.9504C22.7747 20.6702 22.3962 20.5106 22 20.5054Z" fill="#ffffff"/>
</svg>
