<svg width="40" height="41" viewBox="0 0 40 41" fill="none" xmlns="http://www.w3.org/2000/svg">
<path d="M20 0.00537109C16.0444 0.00537109 12.1776 1.17835 8.8886 3.37598C5.59962 5.57361 3.03617 8.69718 1.52242 12.3517C0.00866568 16.0062 -0.387401 20.0276 0.384303 23.9072C1.15601 27.7868 3.06082 31.3505 5.85787 34.1475C8.65492 36.9446 12.2186 38.8494 16.0982 39.6211C19.9778 40.3928 23.9992 39.9967 27.6537 38.483C31.3082 36.9692 34.4318 34.4058 36.6294 31.1168C38.827 27.8278 40 23.961 40 20.0054C40 17.3789 39.4827 14.7782 38.4776 12.3517C37.4725 9.92519 35.9993 7.72041 34.1421 5.86324C32.285 4.00606 30.0802 2.53287 27.6537 1.52778C25.2272 0.522686 22.6264 0.00537109 20 0.00537109ZM20 38.0054C16.4399 38.0054 12.9598 36.9497 9.99974 34.9718C7.03966 32.994 4.73255 30.1827 3.37018 26.8937C2.0078 23.6046 1.65134 19.9854 2.34587 16.4937C3.04041 13.0021 4.75474 9.79479 7.27209 7.27745C9.78943 4.7601 12.9967 3.04577 16.4884 2.35124C19.98 1.6567 23.5992 2.01316 26.8883 3.37554C30.1774 4.73792 32.9886 7.04502 34.9665 10.0051C36.9443 12.9652 38 16.4453 38 20.0054C38 24.7793 36.1036 29.3576 32.7279 32.7333C29.3523 36.1089 24.7739 38.0054 20 38.0054ZM20.34 8.58537H18.34V21.5854H29.34V19.5854H20.34V8.58537Z" fill="#ffffff"/>
</svg>
