<svg width="40" height="41" viewBox="0 0 40 41" fill="none" xmlns="http://www.w3.org/2000/svg">
<path d="M20 27.0054C18.818 27.0076 17.6473 26.7754 16.5556 26.3223C15.4639 25.8691 14.473 25.204 13.64 24.3654L12.22 25.7854C13.2415 26.8074 14.4544 27.6181 15.7893 28.1712C17.1242 28.7243 18.555 29.009 20 29.009C21.445 29.009 22.8758 28.7243 24.2107 28.1712C25.5456 27.6181 26.7585 26.8074 27.78 25.7854L26.36 24.3654C25.5271 25.204 24.5361 25.8691 23.4444 26.3223C22.3527 26.7754 21.182 27.0076 20 27.0054ZM26 13.5054C25.644 13.5054 25.296 13.6109 25 13.8087C24.704 14.0065 24.4733 14.2876 24.337 14.6165C24.2008 14.9454 24.1651 15.3074 24.2346 15.6565C24.3041 16.0057 24.4755 16.3264 24.7272 16.5782C24.979 16.8299 25.2997 17.0013 25.6488 17.0708C25.998 17.1402 26.3599 17.1046 26.6888 16.9684C27.0177 16.8321 27.2989 16.6014 27.4967 16.3054C27.6944 16.0094 27.8 15.6614 27.8 15.3054C27.8 14.828 27.6104 14.3701 27.2728 14.0326C26.9352 13.695 26.4774 13.5054 26 13.5054ZM14 17.1054C14.356 17.1054 14.704 16.9998 15 16.802C15.296 16.6042 15.5268 16.3231 15.663 15.9942C15.7992 15.6653 15.8349 15.3034 15.7654 14.9542C15.696 14.605 15.5245 14.2843 15.2728 14.0326C15.0211 13.7808 14.7003 13.6094 14.3512 13.54C14.002 13.4705 13.6401 13.5061 13.3112 13.6424C12.9823 13.7786 12.7011 14.0093 12.5034 14.3053C12.3056 14.6014 12.2 14.9494 12.2 15.3054C12.2 15.7828 12.3897 16.2406 12.7272 16.5782C13.0648 16.9157 13.5226 17.1054 14 17.1054ZM20 0.00537109C16.0444 0.00537109 12.1776 1.17835 8.8886 3.37598C5.59962 5.57361 3.03617 8.69718 1.52242 12.3517C0.00866568 16.0062 -0.387401 20.0276 0.384303 23.9072C1.15601 27.7868 3.06082 31.3505 5.85787 34.1475C8.65492 36.9446 12.2186 38.8494 16.0982 39.6211C19.9778 40.3928 23.9992 39.9967 27.6537 38.483C31.3082 36.9692 34.4318 34.4058 36.6294 31.1168C38.827 27.8278 40 23.961 40 20.0054C40 17.3789 39.4827 14.7782 38.4776 12.3517C37.4725 9.92519 35.9993 7.72041 34.1421 5.86324C32.285 4.00606 30.0802 2.53287 27.6537 1.52778C25.2272 0.522686 22.6264 0.00537109 20 0.00537109ZM20 38.0054C16.4399 38.0054 12.9598 36.9497 9.99974 34.9718C7.03966 32.994 4.73255 30.1827 3.37018 26.8937C2.0078 23.6046 1.65134 19.9854 2.34587 16.4937C3.04041 13.0021 4.75474 9.79479 7.27209 7.27745C9.78943 4.7601 12.9967 3.04577 16.4884 2.35124C19.98 1.6567 23.5992 2.01316 26.8883 3.37554C30.1774 4.73792 32.9886 7.04502 34.9665 10.0051C36.9443 12.9652 38 16.4453 38 20.0054C38 24.7793 36.1036 29.3576 32.7279 32.7333C29.3523 36.1089 24.7739 38.0054 20 38.0054Z" fill="#ffffff"/>
</svg>
