<svg width="32" height="32" viewBox="0 0 32 32" fill="none" xmlns="http://www.w3.org/2000/svg">
<rect width="32" height="32" rx="16" fill="#E20000"/>
<path d="M13.5921 12C13.9079 12.4737 14.0658 13.0263 14.0658 13.6579C14.0658 14.329 13.9079 14.8421 13.5526 15.2763C13.3553 15.5132 13.0789 15.7105 12.7237 15.9079C13.2763 16.1053 13.7105 16.4211 13.9868 16.8553C14.2632 17.2895 14.4211 17.8421 14.4211 18.4342C14.4211 19.0658 14.2632 19.6579 13.9474 20.1711C13.75 20.5263 13.4737 20.8026 13.1579 21.0395C12.8026 21.3158 12.4079 21.4737 11.9342 21.5921C11.4605 21.7105 10.9474 21.75 10.3947 21.75H5.5V10.8158H10.75C12.0921 10.8553 13.0395 11.25 13.5921 12ZM7.67105 12.7105V15.1184H10.3158C10.7895 15.1184 11.1842 15.0395 11.4605 14.8421C11.7368 14.6447 11.8947 14.329 11.8947 13.8947C11.8947 13.3816 11.6974 13.0658 11.3026 12.9079C10.9474 12.7895 10.5526 12.75 10 12.75H7.67105V12.7105ZM7.67105 16.9342V19.8553H10.3158C10.7895 19.8553 11.1447 19.7763 11.4211 19.6579C11.8947 19.4211 12.1316 18.9869 12.1316 18.3158C12.1316 17.7632 11.8947 17.3684 11.4211 17.1316C11.1447 17.0132 10.7895 16.9342 10.3158 16.9342H7.67105Z" fill="white"/>
<path d="M26.0656 18.5526C25.8683 19.1842 25.5919 19.6974 25.2367 20.0921L26.4998 21.2763L25.3156 22.5L24.013 21.2763C23.6183 21.5132 23.263 21.6711 22.9867 21.7895C22.513 21.9474 21.9209 22.0263 21.2498 22.0263C19.8288 22.0263 18.6446 21.5921 17.7367 20.7632C16.6314 19.7368 16.0393 18.2368 16.0393 16.2632C16.0393 14.2895 16.6314 12.7895 17.7761 11.7632C18.6446 10.9342 19.8288 10.5 21.2104 10.5C22.6314 10.5 23.8156 10.9342 24.763 11.8026C25.8683 12.8289 26.4209 14.25 26.4209 16.1053C26.4209 17.0526 26.3025 17.8816 26.0656 18.5526ZM21.9209 20.0132C22.0393 19.9737 22.2367 19.9342 22.434 19.8158L21.3288 18.75L22.513 17.5263L23.6183 18.5526C23.7762 18.1974 23.8946 17.8816 23.9735 17.6053C24.0919 17.2105 24.1314 16.7368 24.1314 16.2237C24.1314 15 23.8946 14.0526 23.3814 13.3816C22.8683 12.7105 22.1577 12.3947 21.2104 12.3947C20.3025 12.3947 19.5919 12.7105 19.0393 13.3421C18.4867 13.9737 18.2498 14.9211 18.2498 16.2237C18.2498 17.7237 18.6446 18.7895 19.3946 19.4211C19.9077 19.8553 20.4998 20.0526 21.1709 20.0526C21.4472 20.0921 21.684 20.0526 21.9209 20.0132Z" fill="white"/>
</svg>
