<svg width="40" height="40" viewBox="0 0 40 40" fill="none" xmlns="http://www.w3.org/2000/svg">
<path d="M26 13.5C25.644 13.5 25.296 13.6056 25 13.8034C24.704 14.0011 24.4733 14.2823 24.337 14.6112C24.2008 14.9401 24.1651 15.302 24.2346 15.6512C24.3041 16.0003 24.4755 16.3211 24.7272 16.5728C24.979 16.8245 25.2997 16.996 25.6488 17.0654C25.998 17.1349 26.3599 17.0992 26.6888 16.963C27.0177 16.8267 27.2989 16.596 27.4967 16.3C27.6944 16.004 27.8 15.656 27.8 15.3C27.8 14.8226 27.6104 14.3648 27.2728 14.0272C26.9352 13.6896 26.4774 13.5 26 13.5ZM14 17.1C14.356 17.1 14.704 16.9944 15 16.7966C15.296 16.5989 15.5268 16.3177 15.663 15.9888C15.7992 15.6599 15.8349 15.298 15.7654 14.9488C15.696 14.5997 15.5245 14.2789 15.2728 14.0272C15.0211 13.7755 14.7003 13.604 14.3512 13.5346C14.002 13.4651 13.6401 13.5008 13.3112 13.637C12.9823 13.7733 12.7011 14.004 12.5034 14.3C12.3056 14.596 12.2 14.944 12.2 15.3C12.2 15.7774 12.3897 16.2352 12.7272 16.5728C13.0648 16.9104 13.5226 17.1 14 17.1ZM20 0C16.0444 0 12.1776 1.17298 8.8886 3.37061C5.59962 5.56824 3.03617 8.69181 1.52242 12.3463C0.00866568 16.0009 -0.387401 20.0222 0.384303 23.9018C1.15601 27.7814 3.06082 31.3451 5.85787 34.1421C8.65492 36.9392 12.2186 38.844 16.0982 39.6157C19.9778 40.3874 23.9992 39.9913 27.6537 38.4776C31.3082 36.9638 34.4318 34.4004 36.6294 31.1114C38.827 27.8224 40 23.9556 40 20C40 17.3736 39.4827 14.7728 38.4776 12.3463C37.4725 9.91982 35.9993 7.71504 34.1421 5.85786C32.285 4.00069 30.0802 2.5275 27.6537 1.52241C25.2272 0.517315 22.6264 0 20 0ZM20 38C16.4399 38 12.9598 36.9443 9.99974 34.9665C7.03966 32.9886 4.73255 30.1774 3.37018 26.8883C2.0078 23.5992 1.65134 19.98 2.34587 16.4884C3.04041 12.9967 4.75474 9.78942 7.27209 7.27208C9.78943 4.75473 12.9967 3.0404 16.4884 2.34586C19.98 1.65133 23.5992 2.00779 26.8883 3.37017C30.1774 4.73255 32.9886 7.03965 34.9665 9.99974C36.9443 12.9598 38 16.4399 38 20C38 24.7739 36.1036 29.3523 32.7279 32.7279C29.3523 36.1036 24.7739 38 20 38Z" fill="#E20000"/>
<path d="M23.4444 27.0467C22.3527 26.5936 21.182 26.3614 20 26.3637C18.818 26.3614 17.6473 26.5936 16.5556 27.0467C15.464 27.4999 14.473 28.165 13.64 29.0037L12.22 27.5837C13.2415 26.5617 14.4544 25.751 15.7893 25.1978C17.1242 24.6447 18.5551 24.36 20 24.36C21.445 24.36 22.8758 24.6447 24.2107 25.1978C25.5457 25.751 26.7585 26.5617 27.78 27.5837L26.36 29.0037C25.5271 28.165 24.5361 27.4999 23.4444 27.0467Z" fill="#E20000"/>
</svg>
