<svg width="128" height="128" viewBox="0 0 128 128" fill="none" xmlns="http://www.w3.org/2000/svg">
<rect width="128" height="128" fill="#E20000"/>
<path d="M54.3684 48C55.6316 49.8947 56.2632 52.1053 56.2632 54.6316C56.2632 57.3158 55.6316 59.3684 54.2105 61.1053C53.4211 62.0526 52.3158 62.8421 50.8947 63.6316C53.1053 64.4211 54.8421 65.6842 55.9474 67.4211C57.0526 69.1579 57.6842 71.3684 57.6842 73.7368C57.6842 76.2632 57.0526 78.6316 55.7895 80.6842C55 82.1053 53.8947 83.2105 52.6316 84.1579C51.2105 85.2632 49.6316 85.8947 47.7368 86.3684C45.8421 86.8421 43.7895 87 41.5789 87H22V43.2632H43C48.3684 43.421 52.1579 45 54.3684 48ZM30.6842 50.8421V60.4737H41.2632C43.1579 60.4737 44.7368 60.1579 45.8421 59.3684C46.9474 58.5789 47.579 57.3158 47.579 55.5789C47.579 53.5263 46.7895 52.2632 45.2105 51.6316C43.7895 51.1579 42.2105 51 40 51H30.6842V50.8421ZM30.6842 67.7368V79.4211H41.2632C43.1579 79.4211 44.5789 79.1053 45.6842 78.6316C47.579 77.6842 48.5263 75.9474 48.5263 73.2632C48.5263 71.0526 47.579 69.4737 45.6842 68.5263C44.5789 68.0526 43.1579 67.7368 41.2632 67.7368H30.6842V67.7368Z" fill="white"/>
<path d="M104.263 74.2105C103.474 76.7368 102.368 78.7895 100.947 80.3684L106 85.1053L101.263 90L96.0525 85.1053C94.4736 86.0526 93.0525 86.6842 91.9472 87.1579C90.0525 87.7895 87.6841 88.1053 84.9999 88.1053C79.3157 88.1053 74.5788 86.3684 70.9472 83.0526C66.5262 78.9474 64.1578 72.9474 64.1578 65.0526C64.1578 57.1579 66.5262 51.1579 71.1051 47.0526C74.5788 43.7368 79.3157 42 84.842 42C90.5262 42 95.263 43.7368 99.0525 47.2105C103.474 51.3158 105.684 57 105.684 64.4211C105.684 68.2105 105.21 71.5263 104.263 74.2105ZM87.6841 80.0526C88.1578 79.8947 88.9473 79.7368 89.7367 79.2632L85.3157 75L90.0525 70.1053L94.4736 74.2105C95.1051 72.7895 95.5788 71.5263 95.8946 70.4211C96.3683 68.8421 96.5262 66.9474 96.5262 64.8947C96.5262 60 95.5788 56.2105 93.5262 53.5263C91.4736 50.8421 88.6315 49.5789 84.842 49.5789C81.2104 49.5789 78.3683 50.8421 76.1578 53.3684C73.9472 55.8947 72.9999 59.6842 72.9999 64.8947C72.9999 70.8947 74.5788 75.1579 77.5788 77.6842C79.6315 79.4211 81.9999 80.2105 84.6841 80.2105C85.7894 80.3684 86.7367 80.2105 87.6841 80.0526Z" fill="white"/>
</svg>
