<svg width="40" height="40" viewBox="0 0 40 40" fill="none" xmlns="http://www.w3.org/2000/svg">
  <symbol id="youtube" viewBox="0 0 40 40" fill="none">
    <path
      d="M31.4955 14.6455C31.2227 13.6091 30.4045 12.7909 29.3682 12.5045C27.5 12 20 12 20 12C20 12 12.5 12 10.6182 12.5045C9.58182 12.7773 8.77727 13.5955 8.49091 14.6455C8 16.5273 8 20.4545 8 20.4545C8 20.4545 8 24.3818 8.50455 26.2636C8.77727 27.3 9.59545 28.1182 10.6318 28.4045C12.5 28.9091 20 28.9091 20 28.9091C20 28.9091 27.5 28.9091 29.3818 28.4045C30.4182 28.1318 31.2227 27.3136 31.5091 26.2636C32 24.3818 32 20.4545 32 20.4545C32 20.4545 32 16.5273 31.4955 14.6455Z"
      stroke-width="2" />
    <path d="M17.3939 23.8424L23.6666 20.2697L17.3939 16.697V23.8424Z" fill="currentcolor"/>
  </symbol>
</svg>
