<svg width="55" height="55" viewBox="0 0 55 55" fill="none" xmlns="http://www.w3.org/2000/svg">
<line x1="8.74228e-08" y1="17.0054" x2="19" y2="17.0054" stroke="#ffffff" stroke-width="2"/>
<line x1="8" y1="24.0054" x2="17" y2="24.0054" stroke="#ffffff" stroke-width="2"/>
<line x1="13" y1="11.0054" x2="31" y2="11.0054" stroke="#ffffff" stroke-width="2"/>
<path d="M47.4132 10.3332C48.4308 7.76616 47.1747 4.86018 44.6076 3.84257C42.0405 2.82496 39.1346 4.08106 38.117 6.64815C37.0994 9.21523 38.3554 12.1212 40.9225 13.1388C43.4896 14.1564 46.3956 12.9003 47.4132 10.3332Z" stroke="#ffffff" stroke-width="2"/>
<path d="M51.5131 25.8148L47.1528 25.6188L44.7032 21.0626C44.0663 19.8378 42.9395 18.8579 41.6657 18.319L37.1094 16.5063C35.8846 16.0164 34.5618 15.9674 33.288 16.3103L27.7519 17.8781C27.262 18.0251 26.8211 18.319 26.5271 18.76L23.1467 23.6592C22.4608 24.688 22.7057 26.0598 23.7346 26.7457C24.7634 27.4316 26.1352 27.1866 26.8211 26.1578L29.7606 21.8954L33.288 20.8666L28.8297 32.0368L25.4493 37.5729L17.9045 36.6911C16.4837 36.5441 15.2099 37.5729 15.014 38.9937C14.867 40.4145 15.8958 41.6883 17.3166 41.8842L26.4781 42.9131C26.5761 42.9131 26.6741 42.9131 26.7721 42.9131C27.6539 42.9131 28.4868 42.4721 28.9767 41.6883L33.0921 34.9763L37.6483 42.3251L38.9711 50.8008C39.1671 52.0746 40.2939 53.0054 41.5187 53.0054C41.6657 53.0054 41.7637 53.0054 41.9106 52.9564C43.3314 52.7605 44.3113 51.4377 44.1153 50.0169L42.7925 41.0514C42.7435 40.7084 42.5965 40.3655 42.4496 40.0715L38.1872 33.2616L41.6657 24.737L43.8703 28.8523C44.2623 29.5382 44.9481 29.9791 45.732 30.0281L51.3661 30.2731C51.4151 30.2731 51.4151 30.2731 51.4641 30.2731C52.6399 30.2731 53.6197 29.3422 53.6687 28.1664C53.7177 26.9416 52.7379 25.8638 51.5131 25.8148Z" stroke="#ffffff" stroke-width="2"/>
</svg>
