<svg width="36" height="49" viewBox="0 0 36 49" fill="none" xmlns="http://www.w3.org/2000/svg">
<path d="M18.0105 46.6707L17.3453 46.0733C17.3052 46.0341 17.2406 45.9726 17.1534 45.8897C16.1938 44.9766 12.5089 41.4707 8.88063 36.6641C4.82266 31.2883 1 24.4929 1 18.058C1 13.5344 2.79177 9.19671 5.98022 5.99894C9.16856 2.80127 13.4923 1.00537 18 1.00537C22.5077 1.00537 26.8314 2.80127 30.0198 5.99894C33.2082 9.19671 35 13.5344 35 18.058C35 24.5031 31.1771 31.2986 27.1217 36.6743C23.646 41.2815 20.1465 44.6664 18.995 45.7801C18.8477 45.9226 18.7387 46.028 18.6733 46.0939L18.0105 46.6707Z" stroke="#ffffff" stroke-width="2"/>
<path d="M23 18.0054C23 20.7668 20.7614 23.0054 18 23.0054C15.2386 23.0054 13 20.7668 13 18.0054C13 15.2439 15.2386 13.0054 18 13.0054C20.7614 13.0054 23 15.2439 23 18.0054Z" stroke="#ffffff" stroke-width="2"/>
</svg>
