<?xml version="1.0" encoding="utf-8"?>
<!-- Generator: Adobe Illustrator 16.0.0, SVG Export Plug-In . SVG Version: 6.00 Build 0)  -->
<!DOCTYPE svg PUBLIC "-//W3C//DTD SVG 1.1//EN" "http://www.w3.org/Graphics/SVG/1.1/DTD/svg11.dtd">
<svg version="1.1" id="Layer_1" xmlns="http://www.w3.org/2000/svg" xmlns:xlink="http://www.w3.org/1999/xlink" x="0px" y="0px"
	 width="414px" height="736px" viewBox="0 0 414 736" enable-background="new 0 0 414 736" xml:space="preserve">
<rect x="0" y="0" fill="#232323" width="414" height="736"/>
<path fill="#E20000" d="M16,629h382v91H16V629z"/>
<path display="none" fill="#FFFFFF" d="M152.615,322.781h1.875V337h-1.875v-10.957L145.613,337h-1.884v-14.219h1.884v10.957
	L152.615,322.781z M165.051,327.928h-4.873V337h-1.816v-10.565h6.689V327.928z M176.149,331.834c0,1.608-0.368,2.904-1.103,3.888
	c-0.736,0.982-1.732,1.474-2.989,1.474c-1.282,0-2.291-0.407-3.027-1.22v5.087h-1.807v-14.628h1.651l0.088,1.171
	c0.734-0.911,1.758-1.367,3.065-1.367c1.271,0,2.272,0.479,3.009,1.437c0.741,0.957,1.112,2.288,1.112,3.993V331.834z
	 M174.343,331.63c0-1.191-0.254-2.133-0.762-2.822c-0.509-0.69-1.205-1.036-2.091-1.036c-1.094,0-1.913,0.486-2.461,1.456v5.048
	c0.54,0.964,1.367,1.446,2.481,1.446c0.865,0,1.552-0.342,2.06-1.026C174.085,334.006,174.343,332.983,174.343,331.63z
	 M178.575,331.619c0-1.035,0.201-1.966,0.605-2.793c0.41-0.826,0.976-1.465,1.699-1.914c0.729-0.448,1.559-0.674,2.49-0.674
	c1.438,0,2.601,0.498,3.486,1.494c0.893,0.997,1.338,2.321,1.338,3.975v0.127c0,1.029-0.198,1.953-0.596,2.773
	c-0.391,0.814-0.954,1.449-1.689,1.905c-0.729,0.455-1.569,0.683-2.52,0.683c-1.432,0-2.595-0.498-3.486-1.494
	c-0.886-0.996-1.328-2.313-1.328-3.955V331.619z M180.392,331.834c0,1.173,0.271,2.113,0.811,2.822
	c0.547,0.71,1.275,1.065,2.188,1.065c0.918,0,1.647-0.358,2.188-1.075c0.541-0.722,0.811-1.73,0.811-3.027
	c0-1.158-0.277-2.096-0.83-2.812c-0.547-0.724-1.276-1.084-2.188-1.084c-0.893,0-1.611,0.354-2.158,1.063
	S180.392,330.512,180.392,331.834z M191.226,337v-10.565h4.121c1.407,0,2.484,0.247,3.233,0.742
	c0.755,0.487,1.133,1.207,1.133,2.157c0,0.488-0.147,0.932-0.44,1.328c-0.293,0.392-0.726,0.69-1.299,0.899
	c0.638,0.149,1.149,0.442,1.533,0.878c0.391,0.438,0.586,0.957,0.586,1.563c0,0.97-0.358,1.712-1.074,2.227
	c-0.709,0.514-1.715,0.771-3.017,0.771H191.226z M193.033,332.361v3.185h2.987c0.755,0,1.318-0.141,1.69-0.421
	c0.377-0.279,0.565-0.674,0.565-1.182c0-1.054-0.774-1.582-2.323-1.582H193.033z M193.033,330.916h2.334
	c1.692,0,2.538-0.494,2.538-1.483c0-0.99-0.801-1.501-2.401-1.534h-2.471V330.916z M205.059,330.076h2.744
	c1.198,0.014,2.145,0.326,2.842,0.938c0.696,0.612,1.044,1.441,1.044,2.49c0,1.055-0.357,1.9-1.074,2.538
	c-0.716,0.639-1.679,0.957-2.89,0.957h-4.473v-10.565h1.807V330.076z M215.459,337h-1.816v-10.565h1.816V337z M205.059,331.552
	v3.974h2.686c0.677,0,1.2-0.172,1.571-0.517c0.372-0.353,0.558-0.83,0.558-1.437c0-0.586-0.183-1.063-0.547-1.435
	c-0.358-0.378-0.862-0.573-1.515-0.586H205.059z M223.598,337.195c-1.432,0-2.598-0.468-3.496-1.406
	c-0.897-0.943-1.348-2.203-1.348-3.778v-0.332c0-1.048,0.199-1.983,0.596-2.804c0.404-0.826,0.964-1.471,1.68-1.934
	c0.723-0.468,1.505-0.703,2.344-0.703c1.374,0,2.441,0.453,3.204,1.358c0.761,0.905,1.142,2.2,1.142,3.886v0.752h-7.158
	c0.026,1.042,0.329,1.885,0.908,2.53c0.586,0.638,1.328,0.957,2.227,0.957c0.639,0,1.179-0.131,1.621-0.392
	c0.443-0.26,0.83-0.604,1.162-1.034l1.104,0.858C226.697,336.515,225.369,337.195,223.598,337.195z M223.373,327.723
	c-0.729,0-1.342,0.267-1.836,0.8c-0.494,0.528-0.801,1.27-0.917,2.227h5.292v-0.137c-0.053-0.918-0.3-1.627-0.742-2.129
	C224.728,327.977,224.129,327.723,223.373,327.723z M243.831,327.898h-3.545V337h-1.807v-9.102h-3.477v-1.464h8.828V327.898z
	 M249.793,337.195c-1.434,0-2.599-0.468-3.497-1.406c-0.898-0.943-1.348-2.203-1.348-3.778v-0.332c0-1.048,0.198-1.983,0.597-2.804
	c0.402-0.826,0.963-1.471,1.679-1.934c0.723-0.468,1.504-0.703,2.344-0.703c1.374,0,2.441,0.453,3.203,1.358
	c0.763,0.905,1.144,2.2,1.144,3.886v0.752h-7.159c0.026,1.042,0.329,1.885,0.909,2.53c0.586,0.638,1.328,0.957,2.226,0.957
	c0.638,0,1.179-0.131,1.621-0.392c0.443-0.26,0.83-0.604,1.162-1.034l1.104,0.858C252.892,336.515,251.563,337.195,249.793,337.195z
	 M249.568,327.723c-0.729,0-1.341,0.267-1.836,0.8c-0.495,0.528-0.801,1.27-0.918,2.227h5.293v-0.137
	c-0.052-0.918-0.299-1.627-0.742-2.129C250.922,327.977,250.323,327.723,249.568,327.723z M260.157,330.291l2.345-3.856h2.108
	l-3.457,5.224l3.565,5.342h-2.09l-2.441-3.954L257.746,337h-2.101l3.565-5.342l-3.457-5.224h2.09L260.157,330.291z M275.768,337
	h-1.807v-4.512h-4.854V337h-1.816v-10.565h1.816v4.58h4.854v-4.58h1.807V337z M278.8,331.619c0-1.035,0.201-1.966,0.604-2.793
	c0.41-0.826,0.978-1.465,1.699-1.914c0.729-0.448,1.561-0.674,2.491-0.674c1.438,0,2.6,0.498,3.486,1.494
	c0.892,0.997,1.338,2.321,1.338,3.975v0.127c0,1.029-0.199,1.953-0.597,2.773c-0.391,0.814-0.953,1.449-1.688,1.905
	c-0.73,0.455-1.569,0.683-2.521,0.683c-1.432,0-2.594-0.498-3.485-1.494c-0.886-0.996-1.328-2.313-1.328-3.955V331.619z
	 M280.615,331.834c0,1.173,0.271,2.113,0.812,2.822c0.546,0.71,1.276,1.065,2.187,1.065c0.918,0,1.647-0.358,2.188-1.075
	c0.54-0.722,0.81-1.73,0.81-3.027c0-1.158-0.276-2.096-0.83-2.812c-0.547-0.724-1.275-1.084-2.187-1.084
	c-0.892,0-1.612,0.354-2.159,1.063S280.615,330.512,280.615,331.834z M299.79,326.434V337h-1.816v-9.071h-3.594l-0.215,3.955
	c-0.117,1.815-0.423,3.114-0.918,3.896c-0.488,0.782-1.267,1.188-2.334,1.221h-0.723v-1.592l0.518-0.039
	c0.586-0.064,1.006-0.403,1.26-1.015c0.254-0.612,0.417-1.745,0.488-3.399l0.195-4.521H299.79z M302.812,331.619
	c0-1.035,0.202-1.966,0.606-2.793c0.41-0.826,0.976-1.465,1.699-1.914c0.729-0.448,1.559-0.674,2.489-0.674
	c1.439,0,2.602,0.498,3.486,1.494c0.892,0.997,1.338,2.321,1.338,3.975v0.127c0,1.029-0.198,1.953-0.595,2.773
	c-0.392,0.814-0.954,1.449-1.69,1.905c-0.729,0.455-1.568,0.683-2.519,0.683c-1.434,0-2.596-0.498-3.487-1.494
	c-0.885-0.996-1.328-2.313-1.328-3.955V331.619z M304.629,331.834c0,1.173,0.27,2.113,0.81,2.822
	c0.547,0.71,1.276,1.065,2.188,1.065c0.918,0,1.646-0.358,2.187-1.075c0.54-0.722,0.812-1.73,0.812-3.027
	c0-1.158-0.277-2.096-0.83-2.812c-0.547-0.724-1.277-1.084-2.188-1.084c-0.892,0-1.61,0.354-2.158,1.063
	C304.902,329.497,304.629,330.512,304.629,331.834z M322.123,327.928h-4.873V337h-1.816v-10.565h6.689V327.928z M331.131,326.434
	h1.807V337h-1.807v-7.704L326.258,337h-1.806v-10.565h1.806v7.714L331.131,326.434z M343.274,326.434h1.808V337h-1.808v-7.704
	L338.401,337h-1.806v-10.565h1.806v7.714L343.274,326.434z M149.451,359.607l3.594-8.173h2.256V362h-1.807v-7.686L150.076,362h-1.25
	l-3.486-7.852V362h-1.807v-10.565h2.344L149.451,359.607z M163.196,362.195c-1.433,0-2.598-0.468-3.495-1.406
	c-0.899-0.943-1.349-2.203-1.349-3.778v-0.332c0-1.048,0.199-1.983,0.596-2.804c0.403-0.826,0.964-1.471,1.68-1.934
	c0.723-0.468,1.504-0.703,2.344-0.703c1.374,0,2.442,0.453,3.203,1.358c0.762,0.905,1.143,2.2,1.143,3.886v0.752h-7.157
	c0.025,1.042,0.327,1.885,0.907,2.53c0.586,0.638,1.328,0.957,2.227,0.957c0.638,0,1.179-0.131,1.621-0.392
	c0.442-0.26,0.831-0.604,1.163-1.034l1.103,0.858C166.295,361.515,164.967,362.195,163.196,362.195z M162.971,352.723
	c-0.729,0-1.341,0.267-1.836,0.8c-0.495,0.528-0.801,1.27-0.918,2.227h5.293v-0.137c-0.052-0.918-0.299-1.627-0.742-2.129
	C164.325,352.977,163.726,352.723,162.971,352.723z M178.942,356.834c0,1.608-0.368,2.904-1.103,3.888
	c-0.736,0.982-1.732,1.474-2.989,1.474c-1.282,0-2.291-0.407-3.027-1.22v5.087h-1.807v-14.628h1.651l0.088,1.171
	c0.734-0.911,1.758-1.367,3.065-1.367c1.271,0,2.272,0.479,3.009,1.437c0.741,0.957,1.112,2.288,1.112,3.993V356.834z
	 M177.136,356.63c0-1.191-0.254-2.133-0.762-2.822c-0.509-0.69-1.205-1.036-2.09-1.036c-1.095,0-1.914,0.486-2.462,1.456v5.048
	c0.54,0.964,1.367,1.446,2.481,1.446c0.865,0,1.552-0.342,2.06-1.026C176.878,359.006,177.136,357.983,177.136,356.63z
	 M181.368,356.619c0-1.035,0.201-1.966,0.605-2.793c0.41-0.826,0.977-1.465,1.699-1.914c0.729-0.448,1.559-0.674,2.49-0.674
	c1.438,0,2.601,0.498,3.486,1.494c0.893,0.997,1.337,2.321,1.337,3.975v0.127c0,1.029-0.197,1.953-0.595,2.773
	c-0.391,0.814-0.954,1.449-1.689,1.905c-0.729,0.455-1.569,0.683-2.52,0.683c-1.432,0-2.595-0.498-3.487-1.494
	c-0.885-0.996-1.327-2.313-1.327-3.955V356.619z M183.185,356.834c0,1.173,0.271,2.113,0.811,2.822
	c0.547,0.71,1.275,1.065,2.188,1.065c0.918,0,1.647-0.358,2.188-1.075c0.541-0.722,0.811-1.73,0.811-3.027
	c0-1.158-0.277-2.096-0.83-2.812c-0.547-0.724-1.275-1.084-2.188-1.084c-0.893,0-1.611,0.354-2.158,1.063
	S183.185,355.512,183.185,356.834z M202.496,362h-1.808v-9.071h-4.862V362h-1.817v-10.565h8.487V362z M214.922,356.834
	c0,1.608-0.368,2.904-1.104,3.888c-0.734,0.982-1.73,1.474-2.987,1.474c-1.282,0-2.292-0.407-3.027-1.22v5.087h-1.807v-14.628h1.649
	l0.088,1.171c0.736-0.911,1.759-1.367,3.067-1.367c1.269,0,2.271,0.479,3.008,1.437c0.742,0.957,1.113,2.288,1.113,3.993V356.834z
	 M213.115,356.63c0-1.191-0.254-2.133-0.761-2.822c-0.508-0.69-1.205-1.036-2.09-1.036c-1.094,0-1.914,0.486-2.461,1.456v5.048
	c0.54,0.964,1.367,1.446,2.48,1.446c0.865,0,1.553-0.342,2.061-1.026C212.858,359.006,213.115,357.983,213.115,356.63z
	 M224.662,351.434h1.807V362h-1.807v-7.704L219.789,362h-1.807v-10.565h1.807v7.714L224.662,351.434z M238.046,351.434V362h-1.817
	v-4.11h-2.724l-2.491,4.11h-1.953l2.657-4.385c-0.678-0.247-1.198-0.628-1.563-1.142c-0.357-0.521-0.536-1.127-0.536-1.817
	c0-0.963,0.36-1.738,1.084-2.324c0.723-0.592,1.688-0.892,2.899-0.897H238.046z M231.434,354.677c0,0.514,0.176,0.931,0.528,1.25
	c0.351,0.312,0.816,0.472,1.396,0.478h2.871v-3.506h-2.597c-0.671,0-1.205,0.166-1.603,0.498
	C231.633,353.722,231.434,354.148,231.434,354.677z M249.398,352.898h-3.545V362h-1.807v-9.102h-3.477v-1.464h8.828V352.898z
	 M258.591,351.434h1.807V362h-1.807v-7.704L253.718,362h-1.806v-10.565h1.806v7.714L258.591,351.434z M270.734,351.434h1.808V362
	h-1.808v-7.704L265.861,362h-1.806v-10.565h1.806v7.714L270.734,351.434z M271.223,347.587c0,0.788-0.271,1.422-0.811,1.903
	c-0.534,0.476-1.237,0.713-2.109,0.713c-0.873,0-1.579-0.24-2.119-0.723c-0.541-0.48-0.811-1.113-0.811-1.894h1.475
	c0,0.456,0.123,0.813,0.371,1.073c0.247,0.254,0.608,0.381,1.084,0.381c0.455,0,0.81-0.127,1.064-0.381
	c0.261-0.254,0.391-0.611,0.391-1.073H271.223z"/>
<rect x="46" y="283" fill="#E20000" width="80" height="80"/>
<path fill="#FFFFFF" d="M79.981,313c0.789,1.185,1.184,2.566,1.184,4.146c0,1.677-0.395,2.96-1.283,4.046
	c-0.493,0.592-1.184,1.085-2.072,1.579c1.382,0.493,2.468,1.283,3.158,2.368c0.69,1.086,1.086,2.467,1.086,3.948
	c0,1.579-0.396,3.059-1.185,4.342c-0.493,0.888-1.185,1.579-1.974,2.171c-0.889,0.691-1.875,1.085-3.06,1.381
	c-1.184,0.296-2.467,0.395-3.849,0.395H59.75v-27.334h13.125C76.231,310.138,78.599,311.125,79.981,313z M65.178,314.776v6.021
	h6.611c1.185,0,2.171-0.197,2.862-0.691c0.69-0.493,1.085-1.283,1.085-2.368c0-1.283-0.493-2.071-1.48-2.467
	c-0.888-0.296-1.875-0.396-3.256-0.396h-5.822V314.776z M65.178,325.337v7.302h6.611c1.185,0,2.072-0.197,2.764-0.493
	c1.184-0.592,1.776-1.678,1.776-3.354c0-1.383-0.593-2.369-1.776-2.962c-0.691-0.296-1.579-0.492-2.764-0.492H65.178z"/>
<path fill="#FFFFFF" d="M111.164,329.383c-0.493,1.579-1.185,2.86-2.072,3.848l3.158,2.961l-2.961,3.059l-3.256-3.059
	c-0.987,0.592-1.875,0.987-2.566,1.283c-1.184,0.394-2.664,0.592-4.342,0.592c-3.553,0-6.514-1.086-8.783-3.158
	c-2.763-2.565-4.243-6.315-4.243-11.25c0-4.934,1.48-8.684,4.342-11.25c2.171-2.071,5.132-3.158,8.586-3.158
	c3.553,0,6.513,1.087,8.882,3.258c2.763,2.564,4.145,6.117,4.145,10.756C112.053,325.633,111.757,327.704,111.164,329.383z
	 M100.803,333.033c0.296-0.099,0.789-0.196,1.282-0.494l-2.763-2.664l2.961-3.059l2.763,2.566c0.395-0.89,0.69-1.679,0.888-2.369
	c0.296-0.987,0.396-2.171,0.396-3.454c0-3.06-0.593-5.427-1.875-7.105c-1.283-1.678-3.06-2.467-5.428-2.467
	c-2.271,0-4.047,0.789-5.428,2.368c-1.382,1.579-1.974,3.948-1.974,7.204c0,3.75,0.986,6.415,2.861,7.994
	c1.283,1.085,2.764,1.579,4.441,1.579C99.618,333.23,100.21,333.133,100.803,333.033z"/>
<path fill="#E20000" d="M144.285,309v-25.594h8.965c3.104,0,5.461,0.598,7.065,1.793c1.606,1.184,2.409,2.924,2.409,5.221
	c0,1.254-0.323,2.361-0.967,3.322c-0.646,0.949-1.541,1.647-2.69,2.092c1.313,0.328,2.345,0.99,3.095,1.986
	c0.762,0.996,1.143,2.215,1.143,3.657c0,2.461-0.785,4.324-2.356,5.589c-1.569,1.266-3.808,1.911-6.715,1.934H144.285z
	 M149.559,297.855v6.909h4.518c1.241,0,2.209-0.293,2.9-0.879c0.703-0.599,1.054-1.418,1.054-2.462c0-2.344-1.213-3.532-3.638-3.568
	H149.559z M149.559,294.129h3.902c2.66-0.047,3.99-1.107,3.99-3.182c0-1.16-0.341-1.992-1.02-2.496
	c-0.668-0.515-1.729-0.772-3.182-0.772h-3.691V294.129z M184.476,297.908h-10.125v6.856h11.883V309h-17.156v-25.594h17.12v4.272
	h-11.847v6.099h10.125V297.908z M204.399,302.285c0-0.996-0.352-1.758-1.055-2.285c-0.703-0.539-1.969-1.102-3.797-1.688
	c-1.828-0.598-3.275-1.184-4.342-1.757c-2.906-1.571-4.359-3.687-4.359-6.347c0-1.383,0.387-2.612,1.16-3.69
	c0.785-1.09,1.905-1.94,3.357-2.549c1.466-0.61,3.105-0.914,4.923-0.914c1.827,0,3.457,0.334,4.886,1.002
	c1.43,0.655,2.537,1.588,3.323,2.795c0.796,1.207,1.194,2.578,1.194,4.112h-5.273c0-1.172-0.369-2.079-1.107-2.725
	c-0.738-0.656-1.774-0.984-3.111-0.984c-1.288,0-2.291,0.275-3.006,0.826c-0.715,0.539-1.071,1.254-1.071,2.146
	c0,0.832,0.416,1.528,1.248,2.091c0.843,0.563,2.079,1.09,3.709,1.582c3,0.903,5.185,2.021,6.556,3.357
	c1.371,1.337,2.057,3,2.057,4.992c0,2.215-0.838,3.955-2.514,5.222c-1.676,1.254-3.931,1.881-6.767,1.881
	c-1.97,0-3.763-0.358-5.38-1.073c-1.617-0.726-2.854-1.717-3.709-2.97c-0.844-1.254-1.266-2.707-1.266-4.36h5.291
	c0,2.824,1.688,4.237,5.063,4.237c1.253,0,2.231-0.252,2.935-0.756C204.047,303.914,204.399,303.199,204.399,302.285z
	 M234.341,287.678h-7.839V309h-5.274v-21.321h-7.733v-4.272h20.847V287.678z M269.863,296.783c0,2.391-0.386,4.471-1.159,6.24
	c-0.773,1.758-1.847,3.17-3.218,4.237l4.254,3.34l-3.356,2.97l-5.449-4.377c-0.622,0.106-1.266,0.159-1.934,0.159
	c-2.121,0-4.015-0.51-5.679-1.53c-1.663-1.019-2.952-2.472-3.866-4.359c-0.914-1.898-1.377-4.077-1.39-6.539v-1.266
	c0-2.519,0.452-4.734,1.354-6.644c0.914-1.922,2.197-3.394,3.85-4.412c1.664-1.032,3.563-1.547,5.695-1.547s4.024,0.515,5.678,1.547
	c1.664,1.019,2.947,2.49,3.85,4.412c0.913,1.909,1.37,4.118,1.37,6.627V296.783z M264.52,295.623c0-2.684-0.48-4.723-1.441-6.117
	s-2.332-2.092-4.113-2.092c-1.771,0-3.135,0.691-4.096,2.074c-0.961,1.371-1.447,3.387-1.459,6.047v1.248
	c0,2.613,0.48,4.641,1.441,6.082c0.96,1.442,2.343,2.162,4.148,2.162c1.77,0,3.129-0.691,4.078-2.074
	c0.948-1.394,1.43-3.422,1.441-6.082V295.623z M294.902,283.406v16.858c0,2.8-0.879,5.015-2.637,6.644
	c-1.746,1.629-4.137,2.444-7.172,2.444c-2.988,0-5.361-0.791-7.119-2.373c-1.758-1.583-2.654-3.756-2.689-6.522v-17.051h5.273
	v16.893c0,1.677,0.398,2.9,1.195,3.675c0.809,0.761,1.922,1.142,3.34,1.142c2.965,0,4.471-1.558,4.518-4.676v-17.033H294.902z
	 M316.424,297.908h-10.125v6.856h11.883V309h-17.156v-25.594h17.121v4.272h-11.848v6.099h10.125V297.908z M336.347,302.285
	c0-0.996-0.351-1.758-1.054-2.285c-0.704-0.539-1.97-1.102-3.797-1.688c-1.828-0.598-3.276-1.184-4.343-1.757
	c-2.905-1.571-4.358-3.687-4.358-6.347c0-1.383,0.386-2.612,1.16-3.69c0.784-1.09,1.903-1.94,3.356-2.549
	c1.465-0.61,3.106-0.914,4.922-0.914c1.828,0,3.457,0.334,4.888,1.002c1.429,0.655,2.536,1.588,3.321,2.795
	c0.797,1.207,1.195,2.578,1.195,4.112h-5.273c0-1.172-0.368-2.079-1.107-2.725c-0.738-0.656-1.775-0.984-3.111-0.984
	c-1.289,0-2.291,0.275-3.006,0.826c-0.715,0.539-1.072,1.254-1.072,2.146c0,0.832,0.416,1.528,1.248,2.091
	c0.845,0.563,2.08,1.09,3.709,1.582c3,0.903,5.187,2.021,6.558,3.357c1.371,1.337,2.056,3,2.056,4.992
	c0,2.215-0.838,3.955-2.513,5.222c-1.677,1.254-3.933,1.881-6.769,1.881c-1.969,0-3.762-0.358-5.379-1.073
	c-1.617-0.726-2.853-1.717-3.709-2.97c-0.844-1.254-1.265-2.707-1.265-4.36h5.291c0,2.824,1.687,4.237,5.062,4.237
	c1.254,0,2.232-0.252,2.937-0.756C335.996,303.914,336.347,303.199,336.347,302.285z M366.29,287.678h-7.84V309h-5.273v-21.321
	h-7.735v-4.272h20.849V287.678z"/>
<path fill="#FFFFFF" d="M143.87,659c-0.113,0-0.21-0.033-0.289-0.102c-0.068-0.079-0.103-0.176-0.103-0.289v-11.101
	c0-0.125,0.034-0.222,0.103-0.289c0.079-0.079,0.176-0.119,0.289-0.119h8.381c0.125,0,0.221,0.04,0.289,0.119
	c0.079,0.067,0.119,0.164,0.119,0.289v11.101c0,0.113-0.04,0.21-0.119,0.289c-0.079,0.068-0.177,0.102-0.289,0.102h-0.867
	c-0.113,0-0.21-0.033-0.289-0.102c-0.068-0.079-0.102-0.176-0.102-0.289v-9.979h-5.849v9.979c0,0.113-0.04,0.21-0.119,0.289
	c-0.079,0.068-0.176,0.102-0.289,0.102H143.87z M159.015,659.171c-1.247,0-2.216-0.352-2.907-1.055
	c-0.68-0.703-1.043-1.638-1.088-2.805l-0.017-0.731l0.017-0.73c0.045-1.156,0.413-2.085,1.105-2.788
	c0.69-0.714,1.653-1.071,2.89-1.071c1.235,0,2.198,0.357,2.89,1.071c0.691,0.703,1.06,1.632,1.105,2.788
	c0.011,0.125,0.017,0.368,0.017,0.73c0,0.363-0.006,0.606-0.017,0.731c-0.046,1.167-0.414,2.102-1.105,2.805
	C161.225,658.819,160.261,659.171,159.015,659.171z M159.015,657.861c0.714,0,1.275-0.227,1.683-0.68
	c0.42-0.453,0.646-1.105,0.681-1.955c0.011-0.113,0.017-0.329,0.017-0.646c0-0.316-0.006-0.532-0.017-0.646
	c-0.034-0.851-0.261-1.502-0.681-1.955c-0.407-0.453-0.969-0.68-1.683-0.68s-1.281,0.227-1.7,0.68
	c-0.42,0.453-0.641,1.104-0.663,1.955l-0.017,0.646l0.017,0.646c0.022,0.85,0.243,1.502,0.663,1.955
	C157.734,657.635,158.301,657.861,159.015,657.861z M164.645,660.87c-0.113,0-0.209-0.04-0.289-0.118
	c-0.067-0.068-0.102-0.159-0.102-0.272v-2.448c0-0.112,0.034-0.204,0.102-0.271c0.08-0.079,0.176-0.119,0.289-0.119h0.085
	c0.477-0.011,0.833-0.408,1.071-1.19c0.25-0.781,0.374-2.022,0.374-3.723v-2.176c0-0.113,0.034-0.204,0.102-0.272
	c0.08-0.079,0.177-0.119,0.289-0.119h5.423c0.114,0,0.204,0.04,0.272,0.119c0.08,0.068,0.119,0.159,0.119,0.272v7.055h0.799
	c0.114,0,0.204,0.04,0.272,0.119c0.079,0.068,0.118,0.159,0.118,0.271v2.482c0,0.113-0.039,0.204-0.118,0.272
	c-0.068,0.078-0.158,0.118-0.272,0.118h-0.799c-0.113,0-0.209-0.04-0.289-0.118c-0.068-0.068-0.103-0.159-0.103-0.272V659h-6.153
	v1.479c0,0.113-0.039,0.204-0.119,0.272c-0.068,0.078-0.158,0.118-0.272,0.118H164.645z M170.799,657.606v-6.086h-3.077v1.394
	c0,2.268-0.323,3.843-0.969,4.727L170.799,657.606z M178.052,659c-0.114,0-0.21-0.033-0.289-0.102
	c-0.068-0.079-0.102-0.176-0.102-0.289v-7.089h-2.958c-0.114,0-0.21-0.034-0.289-0.102c-0.068-0.079-0.103-0.177-0.103-0.289v-0.578
	c0-0.113,0.034-0.204,0.103-0.272c0.079-0.079,0.175-0.119,0.289-0.119h7.479c0.113,0,0.204,0.04,0.272,0.119
	c0.079,0.068,0.118,0.159,0.118,0.272v0.578c0,0.112-0.039,0.21-0.118,0.289c-0.068,0.067-0.159,0.102-0.272,0.102h-2.958v7.089
	c0,0.113-0.034,0.21-0.102,0.289c-0.068,0.068-0.159,0.102-0.272,0.102H178.052z M184.439,659c-0.112,0-0.21-0.033-0.289-0.102
	c-0.067-0.079-0.102-0.176-0.102-0.289v-8.058c0-0.113,0.034-0.204,0.102-0.272c0.079-0.079,0.177-0.119,0.289-0.119h3.536
	c1.043,0,1.836,0.215,2.38,0.646c0.556,0.419,0.833,0.997,0.833,1.733c0,0.487-0.091,0.867-0.271,1.14
	c-0.182,0.261-0.459,0.486-0.833,0.68c0.407,0.17,0.725,0.453,0.952,0.85c0.237,0.397,0.356,0.822,0.356,1.275
	c0,0.816-0.289,1.439-0.867,1.87c-0.566,0.431-1.371,0.646-2.414,0.646H184.439z M187.873,653.918c0.555,0,0.991-0.119,1.309-0.357
	s0.477-0.572,0.477-1.003c0-0.419-0.153-0.714-0.46-0.884c-0.306-0.182-0.747-0.272-1.325-0.272h-2.262v2.517H187.873z
	 M187.975,657.76c0.567,0,1.009-0.108,1.326-0.323c0.329-0.215,0.493-0.533,0.493-0.952c0-0.453-0.147-0.782-0.442-0.986
	c-0.295-0.215-0.754-0.322-1.377-0.322h-2.363v2.584H187.975z M197.113,659.171c-1.167,0-2.102-0.357-2.805-1.071
	c-0.69-0.725-1.071-1.711-1.139-2.958l-0.018-0.578l0.018-0.561c0.08-1.225,0.465-2.199,1.156-2.925
	c0.702-0.725,1.627-1.088,2.771-1.088c1.258,0,2.233,0.402,2.924,1.207c0.692,0.793,1.037,1.87,1.037,3.23v0.289
	c0,0.112-0.039,0.21-0.119,0.289c-0.067,0.067-0.158,0.102-0.271,0.102h-5.882v0.153c0.033,0.736,0.255,1.366,0.662,1.887
	c0.421,0.51,0.97,0.765,1.649,0.765c0.522,0,0.947-0.102,1.275-0.306c0.34-0.215,0.59-0.436,0.748-0.663
	c0.102-0.136,0.176-0.215,0.221-0.238c0.057-0.033,0.153-0.051,0.289-0.051h0.833c0.102,0,0.187,0.028,0.255,0.085
	c0.068,0.058,0.102,0.136,0.102,0.238c0,0.249-0.157,0.55-0.476,0.901c-0.306,0.351-0.742,0.656-1.309,0.918
	C198.479,659.046,197.839,659.171,197.113,659.171z M199.442,653.934v-0.051c0-0.782-0.215-1.417-0.646-1.904
	c-0.419-0.499-0.986-0.748-1.7-0.748s-1.28,0.249-1.7,0.748c-0.408,0.487-0.611,1.122-0.611,1.904v0.051H199.442z M203.498,662.23
	c-0.113,0-0.21-0.04-0.289-0.119c-0.068-0.067-0.103-0.159-0.103-0.271v-11.288c0-0.113,0.034-0.204,0.103-0.272
	c0.079-0.079,0.176-0.119,0.289-0.119h0.781c0.113,0,0.204,0.04,0.272,0.119c0.079,0.068,0.119,0.159,0.119,0.272v0.748
	c0.635-0.873,1.563-1.31,2.788-1.31c1.189,0,2.08,0.374,2.669,1.122c0.601,0.748,0.924,1.711,0.969,2.891
	c0.011,0.125,0.017,0.316,0.017,0.577c0,0.262-0.006,0.453-0.017,0.578c-0.045,1.167-0.368,2.131-0.969,2.891
	c-0.602,0.748-1.49,1.122-2.669,1.122c-1.18,0-2.098-0.426-2.754-1.275v3.944c0,0.112-0.034,0.204-0.103,0.271
	c-0.067,0.079-0.159,0.119-0.271,0.119H203.498z M207.102,657.794c0.805,0,1.388-0.249,1.751-0.748
	c0.374-0.499,0.578-1.156,0.612-1.973c0.011-0.112,0.017-0.277,0.017-0.493c0-2.142-0.793-3.213-2.38-3.213
	c-0.782,0-1.371,0.262-1.768,0.782c-0.386,0.51-0.596,1.122-0.629,1.836l-0.018,0.646l0.018,0.663
	c0.022,0.669,0.237,1.252,0.646,1.751S206.343,657.794,207.102,657.794z M212.707,660.87c-0.113,0-0.21-0.04-0.289-0.118
	c-0.068-0.068-0.103-0.159-0.103-0.272v-2.448c0-0.112,0.034-0.204,0.103-0.271c0.079-0.079,0.176-0.119,0.289-0.119h0.085
	c0.476-0.011,0.833-0.408,1.07-1.19c0.249-0.781,0.374-2.022,0.374-3.723v-2.176c0-0.113,0.034-0.204,0.103-0.272
	c0.079-0.079,0.176-0.119,0.289-0.119h5.423c0.113,0,0.204,0.04,0.271,0.119c0.079,0.068,0.119,0.159,0.119,0.272v7.055h0.799
	c0.113,0,0.204,0.04,0.272,0.119c0.079,0.068,0.119,0.159,0.119,0.271v2.482c0,0.113-0.04,0.204-0.119,0.272
	c-0.068,0.078-0.159,0.118-0.272,0.118h-0.799c-0.112,0-0.21-0.04-0.289-0.118c-0.067-0.068-0.102-0.159-0.102-0.272V659h-6.154
	v1.479c0,0.113-0.04,0.204-0.119,0.272c-0.067,0.078-0.158,0.118-0.271,0.118H212.707z M218.861,657.606v-6.086h-3.076v1.394
	c0,2.268-0.323,3.843-0.97,4.727L218.861,657.606z M230.924,650.16c0.091,0,0.17,0.034,0.238,0.103
	c0.08,0.067,0.118,0.146,0.118,0.237v8.109c0,0.113-0.038,0.21-0.118,0.289c-0.068,0.068-0.158,0.102-0.272,0.102h-0.799
	c-0.113,0-0.209-0.033-0.289-0.102c-0.068-0.079-0.102-0.176-0.102-0.289v-6.171l-4.71,6.307c-0.123,0.17-0.271,0.255-0.441,0.255
	h-0.765c-0.103,0-0.192-0.033-0.272-0.102c-0.068-0.079-0.102-0.164-0.102-0.255v-8.092c0-0.113,0.033-0.204,0.102-0.272
	c0.08-0.079,0.176-0.119,0.289-0.119h0.816c0.113,0,0.203,0.04,0.271,0.119c0.08,0.068,0.119,0.159,0.119,0.272v6.137l4.692-6.273
	c0.125-0.17,0.271-0.255,0.441-0.255H230.924z M236.473,659c-0.114,0-0.21-0.033-0.289-0.102c-0.068-0.079-0.102-0.176-0.102-0.289
	v-7.089h-2.958c-0.114,0-0.21-0.034-0.289-0.102c-0.068-0.079-0.103-0.177-0.103-0.289v-0.578c0-0.113,0.034-0.204,0.103-0.272
	c0.079-0.079,0.175-0.119,0.289-0.119h7.479c0.113,0,0.204,0.04,0.272,0.119c0.079,0.068,0.119,0.159,0.119,0.272v0.578
	c0,0.112-0.04,0.21-0.119,0.289c-0.068,0.067-0.159,0.102-0.272,0.102h-2.958v7.089c0,0.113-0.034,0.21-0.102,0.289
	c-0.068,0.068-0.159,0.102-0.272,0.102H236.473z M246.005,659.171c-1.167,0-2.103-0.357-2.805-1.071
	c-0.691-0.725-1.071-1.711-1.14-2.958l-0.017-0.578l0.017-0.561c0.079-1.225,0.465-2.199,1.156-2.925
	c0.703-0.725,1.626-1.088,2.771-1.088c1.259,0,2.233,0.402,2.925,1.207c0.69,0.793,1.036,1.87,1.036,3.23v0.289
	c0,0.112-0.039,0.21-0.118,0.289c-0.068,0.067-0.159,0.102-0.272,0.102h-5.882v0.153c0.034,0.736,0.255,1.366,0.663,1.887
	c0.419,0.51,0.969,0.765,1.648,0.765c0.521,0,0.946-0.102,1.275-0.306c0.34-0.215,0.589-0.436,0.748-0.663
	c0.102-0.136,0.176-0.215,0.221-0.238c0.058-0.033,0.153-0.051,0.289-0.051h0.833c0.103,0,0.188,0.028,0.255,0.085
	c0.068,0.058,0.103,0.136,0.103,0.238c0,0.249-0.159,0.55-0.477,0.901c-0.306,0.351-0.741,0.656-1.309,0.918
	C247.371,659.046,246.73,659.171,246.005,659.171z M248.334,653.934v-0.051c0-0.782-0.215-1.417-0.646-1.904
	c-0.419-0.499-0.985-0.748-1.7-0.748c-0.714,0-1.28,0.249-1.699,0.748c-0.408,0.487-0.612,1.122-0.612,1.904v0.051H248.334z
	 M261.725,659c-0.114,0-0.21-0.033-0.289-0.102c-0.067-0.079-0.102-0.176-0.102-0.289v-3.196c-0.578,0.544-1.445,0.816-2.602,0.816
	c-1.031,0-1.813-0.227-2.346-0.68c-0.533-0.453-0.799-1.162-0.799-2.125v-2.873c0-0.113,0.034-0.204,0.102-0.272
	c0.079-0.079,0.175-0.119,0.289-0.119h0.833c0.113,0,0.204,0.04,0.272,0.119c0.079,0.068,0.119,0.159,0.119,0.272v2.771
	c0,0.51,0.146,0.884,0.441,1.122c0.294,0.228,0.759,0.34,1.395,0.34c0.735,0,1.303-0.091,1.699-0.271
	c0.396-0.182,0.596-0.487,0.596-0.918v-3.043c0-0.113,0.034-0.204,0.102-0.272c0.079-0.079,0.175-0.119,0.289-0.119h0.851
	c0.112,0,0.203,0.04,0.271,0.119c0.079,0.068,0.119,0.159,0.119,0.272v8.058c0,0.113-0.04,0.21-0.119,0.289
	c-0.068,0.068-0.159,0.102-0.271,0.102H261.725z M268.198,659c-0.112,0-0.209-0.033-0.288-0.102
	c-0.068-0.079-0.103-0.176-0.103-0.289v-7.089h-2.958c-0.113,0-0.209-0.034-0.289-0.102c-0.067-0.079-0.102-0.177-0.102-0.289
	v-0.578c0-0.113,0.034-0.204,0.102-0.272c0.08-0.079,0.176-0.119,0.289-0.119h7.48c0.113,0,0.203,0.04,0.271,0.119
	c0.08,0.068,0.119,0.159,0.119,0.272v0.578c0,0.112-0.039,0.21-0.119,0.289c-0.068,0.067-0.158,0.102-0.271,0.102h-2.958v7.089
	c0,0.113-0.034,0.21-0.103,0.289c-0.067,0.068-0.158,0.102-0.271,0.102H268.198z M277.816,659.171c-1.247,0-2.216-0.352-2.906-1.055
	c-0.681-0.703-1.044-1.638-1.089-2.805l-0.017-0.731l0.017-0.73c0.045-1.156,0.413-2.085,1.105-2.788
	c0.691-0.714,1.654-1.071,2.89-1.071s2.198,0.357,2.891,1.071c0.69,0.703,1.059,1.632,1.104,2.788
	c0.011,0.125,0.018,0.368,0.018,0.73c0,0.363-0.007,0.606-0.018,0.731c-0.046,1.167-0.414,2.102-1.104,2.805
	C280.026,658.819,279.062,659.171,277.816,659.171z M277.816,657.861c0.714,0,1.275-0.227,1.684-0.68
	c0.419-0.453,0.646-1.105,0.68-1.955c0.011-0.113,0.017-0.329,0.017-0.646c0-0.316-0.006-0.532-0.017-0.646
	c-0.034-0.851-0.261-1.502-0.68-1.955c-0.408-0.453-0.97-0.68-1.684-0.68s-1.28,0.227-1.7,0.68s-0.641,1.104-0.662,1.955
	l-0.018,0.646l0.018,0.646c0.021,0.85,0.242,1.502,0.662,1.955S277.102,657.861,277.816,657.861z M288.514,659
	c-0.113,0-0.209-0.033-0.289-0.102c-0.068-0.079-0.102-0.176-0.102-0.289v-8.058c0-0.113,0.033-0.204,0.102-0.272
	c0.08-0.079,0.176-0.119,0.289-0.119h3.536c1.043,0,1.836,0.215,2.38,0.646c0.556,0.419,0.833,0.997,0.833,1.733
	c0,0.487-0.09,0.867-0.272,1.14c-0.181,0.261-0.459,0.486-0.833,0.68c0.408,0.17,0.727,0.453,0.952,0.85
	c0.238,0.397,0.357,0.822,0.357,1.275c0,0.816-0.289,1.439-0.867,1.87c-0.565,0.431-1.371,0.646-2.414,0.646H288.514z
	 M291.948,653.918c0.557,0,0.992-0.119,1.31-0.357c0.318-0.238,0.476-0.572,0.476-1.003c0-0.419-0.152-0.714-0.459-0.884
	c-0.306-0.182-0.748-0.272-1.326-0.272h-2.261v2.517H291.948z M292.05,657.76c0.567,0,1.009-0.108,1.326-0.323
	c0.329-0.215,0.493-0.533,0.493-0.952c0-0.453-0.147-0.782-0.442-0.986c-0.294-0.215-0.753-0.322-1.377-0.322h-2.363v2.584H292.05z
	 M298.044,659c-0.114,0-0.21-0.033-0.289-0.102c-0.068-0.079-0.103-0.176-0.103-0.289v-8.058c0-0.113,0.034-0.204,0.103-0.272
	c0.079-0.079,0.175-0.119,0.289-0.119h0.815c0.113,0,0.204,0.04,0.272,0.119c0.079,0.068,0.119,0.159,0.119,0.272v2.499h1.768
	c1.122,0,1.955,0.266,2.499,0.799c0.555,0.521,0.833,1.264,0.833,2.227c0,0.997-0.295,1.734-0.884,2.21
	c-0.578,0.477-1.462,0.714-2.652,0.714H298.044z M305.948,659c-0.113,0-0.21-0.033-0.288-0.102
	c-0.068-0.079-0.103-0.176-0.103-0.289v-8.058c0-0.113,0.034-0.204,0.103-0.272c0.078-0.079,0.175-0.119,0.288-0.119h0.816
	c0.113,0,0.204,0.04,0.272,0.119c0.078,0.068,0.118,0.159,0.118,0.272v8.058c0,0.113-0.04,0.21-0.118,0.289
	c-0.068,0.068-0.159,0.102-0.272,0.102H305.948z M300.865,657.725c0.702,0,1.207-0.125,1.514-0.374
	c0.316-0.249,0.476-0.674,0.476-1.275c0-0.601-0.159-1.043-0.476-1.326c-0.307-0.282-0.812-0.425-1.514-0.425h-1.632v3.4H300.865z
	 M314.247,659c-0.114,0-0.21-0.033-0.289-0.102c-0.068-0.079-0.103-0.176-0.103-0.289v-8.058c0-0.113,0.034-0.204,0.103-0.272
	c0.079-0.079,0.175-0.119,0.289-0.119h0.815c0.113,0,0.204,0.04,0.272,0.119c0.079,0.068,0.119,0.159,0.119,0.272v3.264h4.624
	v-3.264c0-0.113,0.033-0.204,0.102-0.272c0.079-0.079,0.175-0.119,0.289-0.119h0.799c0.113,0,0.204,0.04,0.272,0.119
	c0.079,0.068,0.119,0.159,0.119,0.272v8.058c0,0.113-0.04,0.21-0.119,0.289c-0.068,0.068-0.159,0.102-0.272,0.102h-0.799
	c-0.114,0-0.21-0.033-0.289-0.102c-0.068-0.079-0.102-0.176-0.102-0.289v-3.434h-4.624v3.434c0,0.113-0.04,0.21-0.119,0.289
	c-0.068,0.068-0.159,0.102-0.272,0.102H314.247z M327.751,659.171c-1.167,0-2.103-0.357-2.806-1.071
	c-0.69-0.725-1.07-1.711-1.139-2.958l-0.017-0.578l0.017-0.561c0.079-1.225,0.465-2.199,1.156-2.925
	c0.703-0.725,1.626-1.088,2.771-1.088c1.259,0,2.233,0.402,2.924,1.207c0.691,0.793,1.037,1.87,1.037,3.23v0.289
	c0,0.112-0.04,0.21-0.118,0.289c-0.068,0.067-0.159,0.102-0.272,0.102h-5.882v0.153c0.034,0.736,0.255,1.366,0.663,1.887
	c0.419,0.51,0.969,0.765,1.648,0.765c0.521,0,0.946-0.102,1.275-0.306c0.34-0.215,0.589-0.436,0.748-0.663
	c0.102-0.136,0.176-0.215,0.221-0.238c0.058-0.033,0.153-0.051,0.289-0.051h0.833c0.103,0,0.188,0.028,0.255,0.085
	c0.068,0.058,0.103,0.136,0.103,0.238c0,0.249-0.159,0.55-0.477,0.901c-0.306,0.351-0.742,0.656-1.309,0.918
	C329.117,659.046,328.476,659.171,327.751,659.171z M330.08,653.934v-0.051c0-0.782-0.216-1.417-0.646-1.904
	c-0.419-0.499-0.986-0.748-1.7-0.748s-1.28,0.249-1.699,0.748c-0.408,0.487-0.612,1.122-0.612,1.904v0.051H330.08z M143.666,682.23
	c-0.113,0-0.21-0.04-0.289-0.119c-0.068-0.067-0.103-0.159-0.103-0.271v-11.288c0-0.113,0.034-0.204,0.103-0.272
	c0.079-0.079,0.176-0.119,0.289-0.119h0.781c0.113,0,0.204,0.04,0.272,0.119c0.079,0.068,0.119,0.159,0.119,0.272v0.748
	c0.635-0.873,1.563-1.31,2.788-1.31c1.189,0,2.08,0.374,2.669,1.122c0.601,0.748,0.924,1.711,0.969,2.891
	c0.011,0.125,0.017,0.316,0.017,0.577c0,0.262-0.006,0.453-0.017,0.578c-0.045,1.167-0.368,2.131-0.969,2.891
	c-0.602,0.748-1.49,1.122-2.669,1.122c-1.18,0-2.098-0.426-2.754-1.275v3.944c0,0.112-0.034,0.204-0.103,0.271
	c-0.067,0.079-0.159,0.119-0.271,0.119H143.666z M147.27,677.794c0.806,0,1.389-0.249,1.751-0.748
	c0.374-0.499,0.578-1.156,0.612-1.973c0.011-0.112,0.017-0.277,0.017-0.493c0-2.142-0.793-3.213-2.38-3.213
	c-0.782,0-1.371,0.262-1.768,0.782c-0.385,0.51-0.596,1.122-0.629,1.836l-0.018,0.646l0.018,0.663
	c0.022,0.669,0.237,1.252,0.646,1.751S146.511,677.794,147.27,677.794z M157.006,679.171c-1.247,0-2.216-0.352-2.907-1.055
	c-0.68-0.703-1.043-1.638-1.088-2.805l-0.017-0.731l0.017-0.73c0.045-1.156,0.414-2.085,1.104-2.788
	c0.691-0.714,1.655-1.071,2.891-1.071c1.234,0,2.199,0.357,2.89,1.071c0.691,0.703,1.061,1.632,1.105,2.788
	c0.011,0.125,0.017,0.368,0.017,0.73c0,0.363-0.006,0.606-0.017,0.731c-0.045,1.167-0.414,2.102-1.105,2.805
	C159.216,678.819,158.253,679.171,157.006,679.171z M157.006,677.861c0.714,0,1.274-0.227,1.683-0.68
	c0.419-0.453,0.646-1.105,0.681-1.955c0.011-0.113,0.017-0.329,0.017-0.646c0-0.316-0.006-0.532-0.017-0.646
	c-0.034-0.851-0.262-1.502-0.681-1.955c-0.408-0.453-0.969-0.68-1.683-0.68s-1.281,0.227-1.7,0.68s-0.64,1.104-0.663,1.955
	l-0.017,0.646l0.017,0.646c0.023,0.85,0.244,1.502,0.663,1.955S156.292,677.861,157.006,677.861z M170.882,674.377
	c0.011,0.112,0.017,0.295,0.017,0.544c0,0.215-0.006,0.367-0.017,0.459c-0.046,1.145-0.414,2.063-1.105,2.754
	c-0.68,0.69-1.644,1.037-2.89,1.037c-1.281,0-2.256-0.363-2.924-1.089c-0.669-0.725-1.026-1.723-1.071-2.991l-0.017-1.021
	l0.017-1.02c0.011-1.621,0.227-2.833,0.646-3.639c0.43-0.815,1.037-1.399,1.818-1.751c0.793-0.362,2.074-0.775,3.842-1.24
	l0.408-0.103l0.085-0.017c0.09,0,0.17,0.034,0.238,0.102c0.079,0.058,0.124,0.125,0.136,0.204l0.137,0.697l0.017,0.102
	c0,0.079-0.029,0.147-0.085,0.204c-0.046,0.058-0.114,0.096-0.204,0.119l-0.85,0.204c-1.305,0.316-2.239,0.589-2.806,0.816
	c-0.566,0.227-1.009,0.584-1.326,1.07c-0.306,0.477-0.476,1.19-0.51,2.143c0.272-0.408,0.657-0.737,1.156-0.986
	c0.498-0.261,1.025-0.391,1.581-0.391c1.144,0,2.034,0.351,2.669,1.054C170.49,672.33,170.836,673.243,170.882,674.377z
	 M169.25,675.311c0.011-0.079,0.017-0.21,0.017-0.391c0-0.204-0.006-0.357-0.017-0.459c-0.023-0.827-0.238-1.469-0.646-1.922
	c-0.396-0.465-0.918-0.696-1.563-0.696c-0.727,0-1.321,0.231-1.785,0.696c-0.454,0.453-0.697,1.095-0.731,1.922l-0.017,0.459
	l0.017,0.391c0.034,0.839,0.261,1.485,0.681,1.938c0.419,0.441,0.979,0.662,1.683,0.662c0.714,0,1.28-0.221,1.7-0.662
	C169.006,676.797,169.227,676.15,169.25,675.311z M176.646,679.171c-1.247,0-2.216-0.352-2.907-1.055
	c-0.68-0.703-1.043-1.638-1.088-2.805l-0.017-0.731l0.017-0.73c0.045-1.156,0.413-2.085,1.105-2.788
	c0.69-0.714,1.654-1.071,2.89-1.071s2.198,0.357,2.891,1.071c0.69,0.703,1.059,1.632,1.104,2.788
	c0.011,0.125,0.018,0.368,0.018,0.73c0,0.363-0.007,0.606-0.018,0.731c-0.046,1.167-0.414,2.102-1.104,2.805
	C178.856,678.819,177.892,679.171,176.646,679.171z M176.646,677.861c0.714,0,1.275-0.227,1.684-0.68
	c0.419-0.453,0.646-1.105,0.68-1.955c0.011-0.113,0.017-0.329,0.017-0.646c0-0.316-0.006-0.532-0.017-0.646
	c-0.034-0.851-0.261-1.502-0.68-1.955c-0.408-0.453-0.97-0.68-1.684-0.68s-1.281,0.227-1.7,0.68
	c-0.42,0.453-0.641,1.104-0.662,1.955l-0.018,0.646l0.018,0.646c0.021,0.85,0.242,1.502,0.662,1.955
	C175.365,677.635,175.932,677.861,176.646,677.861z M185.489,679c-0.112,0-0.209-0.033-0.288-0.102
	c-0.068-0.079-0.103-0.176-0.103-0.289v-7.089h-2.958c-0.113,0-0.209-0.034-0.289-0.102c-0.067-0.079-0.102-0.177-0.102-0.289
	v-0.578c0-0.113,0.034-0.204,0.102-0.272c0.08-0.079,0.176-0.119,0.289-0.119h7.48c0.113,0,0.203,0.04,0.271,0.119
	c0.08,0.068,0.119,0.159,0.119,0.272v0.578c0,0.112-0.039,0.21-0.119,0.289c-0.068,0.067-0.158,0.102-0.271,0.102h-2.958v7.089
	c0,0.113-0.034,0.21-0.103,0.289c-0.067,0.068-0.158,0.102-0.271,0.102H185.489z M191.367,680.275c-0.092,0-0.165-0.034-0.222-0.102
	c-0.046-0.068-0.063-0.153-0.051-0.255l0.391-2.432c0.045-0.329,0.204-0.493,0.477-0.493h1.139c0.079,0,0.142,0.028,0.188,0.085
	c0.056,0.058,0.085,0.125,0.085,0.204c0,0.058-0.018,0.147-0.052,0.272l-0.9,2.329c-0.058,0.136-0.119,0.231-0.188,0.289
	c-0.067,0.067-0.17,0.102-0.306,0.102H191.367z M200.277,679c-0.112,0-0.21-0.033-0.289-0.102c-0.067-0.079-0.102-0.176-0.102-0.289
	v-8.058c0-0.113,0.034-0.204,0.102-0.272c0.079-0.079,0.177-0.119,0.289-0.119h6.749c0.113,0,0.204,0.04,0.272,0.119
	c0.079,0.068,0.119,0.159,0.119,0.272v8.058c0,0.113-0.04,0.21-0.119,0.289c-0.068,0.068-0.159,0.102-0.272,0.102h-0.815
	c-0.113,0-0.204-0.033-0.272-0.102c-0.067-0.079-0.102-0.176-0.102-0.289v-7.089h-4.353v7.089c0,0.113-0.04,0.21-0.119,0.289
	c-0.067,0.068-0.158,0.102-0.271,0.102H200.277z M213.482,679.171c-1.167,0-2.102-0.357-2.805-1.071
	c-0.691-0.725-1.071-1.711-1.139-2.958l-0.018-0.578l0.018-0.561c0.08-1.225,0.465-2.199,1.155-2.925
	c0.703-0.725,1.627-1.088,2.771-1.088c1.258,0,2.232,0.402,2.924,1.207c0.692,0.793,1.037,1.87,1.037,3.23v0.289
	c0,0.112-0.039,0.21-0.119,0.289c-0.068,0.067-0.158,0.102-0.271,0.102h-5.883v0.153c0.034,0.736,0.256,1.366,0.663,1.887
	c0.42,0.51,0.97,0.765,1.649,0.765c0.521,0,0.947-0.102,1.274-0.306c0.341-0.215,0.591-0.436,0.748-0.663
	c0.103-0.136,0.177-0.215,0.222-0.238c0.057-0.033,0.152-0.051,0.289-0.051h0.833c0.102,0,0.187,0.028,0.255,0.085
	c0.067,0.058,0.102,0.136,0.102,0.238c0,0.249-0.158,0.55-0.476,0.901c-0.307,0.351-0.742,0.656-1.31,0.918
	C214.848,679.046,214.208,679.171,213.482,679.171z M215.811,673.934v-0.051c0-0.782-0.215-1.417-0.646-1.904
	c-0.419-0.499-0.986-0.748-1.7-0.748s-1.28,0.249-1.7,0.748c-0.408,0.487-0.612,1.122-0.612,1.904v0.051H215.811z M219.867,682.23
	c-0.113,0-0.209-0.04-0.289-0.119c-0.068-0.067-0.103-0.159-0.103-0.271v-11.288c0-0.113,0.034-0.204,0.103-0.272
	c0.08-0.079,0.176-0.119,0.289-0.119h0.781c0.114,0,0.204,0.04,0.272,0.119c0.08,0.068,0.119,0.159,0.119,0.272v0.748
	c0.635-0.873,1.563-1.31,2.788-1.31c1.189,0,2.08,0.374,2.669,1.122c0.601,0.748,0.924,1.711,0.969,2.891
	c0.012,0.125,0.017,0.316,0.017,0.577c0,0.262-0.005,0.453-0.017,0.578c-0.045,1.167-0.368,2.131-0.969,2.891
	c-0.601,0.748-1.49,1.122-2.669,1.122s-2.097-0.426-2.755-1.275v3.944c0,0.112-0.033,0.204-0.102,0.271
	c-0.068,0.079-0.158,0.119-0.271,0.119H219.867z M223.471,677.794c0.805,0,1.389-0.249,1.751-0.748
	c0.374-0.499,0.578-1.156,0.612-1.973c0.012-0.112,0.017-0.277,0.017-0.493c0-2.142-0.793-3.213-2.38-3.213
	c-0.782,0-1.371,0.262-1.768,0.782c-0.386,0.51-0.596,1.122-0.63,1.836l-0.017,0.646l0.017,0.663
	c0.023,0.669,0.238,1.252,0.646,1.751S222.712,677.794,223.471,677.794z M233.122,679.171c-1.167,0-2.103-0.357-2.806-1.071
	c-0.69-0.725-1.07-1.711-1.139-2.958l-0.017-0.578l0.017-0.561c0.079-1.225,0.465-2.199,1.156-2.925
	c0.703-0.725,1.626-1.088,2.771-1.088c1.258,0,2.233,0.402,2.924,1.207c0.691,0.793,1.037,1.87,1.037,3.23v0.289
	c0,0.112-0.04,0.21-0.119,0.289c-0.067,0.067-0.158,0.102-0.271,0.102h-5.882v0.153c0.034,0.736,0.255,1.366,0.663,1.887
	c0.419,0.51,0.969,0.765,1.648,0.765c0.521,0,0.946-0.102,1.275-0.306c0.34-0.215,0.589-0.436,0.748-0.663
	c0.102-0.136,0.176-0.215,0.221-0.238c0.057-0.033,0.153-0.051,0.289-0.051h0.833c0.102,0,0.188,0.028,0.255,0.085
	c0.068,0.058,0.103,0.136,0.103,0.238c0,0.249-0.159,0.55-0.477,0.901c-0.306,0.351-0.742,0.656-1.309,0.918
	C234.488,679.046,233.847,679.171,233.122,679.171z M235.451,673.934v-0.051c0-0.782-0.216-1.417-0.646-1.904
	c-0.419-0.499-0.986-0.748-1.7-0.748s-1.281,0.249-1.7,0.748c-0.407,0.487-0.611,1.122-0.611,1.904v0.051H235.451z M239.49,679
	c-0.113,0-0.21-0.033-0.288-0.102c-0.068-0.079-0.103-0.176-0.103-0.289v-8.058c0-0.113,0.034-0.204,0.103-0.272
	c0.078-0.079,0.175-0.119,0.288-0.119h3.536c1.042,0,1.836,0.215,2.38,0.646c0.556,0.419,0.833,0.997,0.833,1.733
	c0,0.487-0.091,0.867-0.271,1.14c-0.182,0.261-0.459,0.486-0.833,0.68c0.408,0.17,0.725,0.453,0.952,0.85
	c0.237,0.397,0.356,0.822,0.356,1.275c0,0.816-0.289,1.439-0.866,1.87c-0.567,0.431-1.372,0.646-2.414,0.646H239.49z
	 M242.924,673.918c0.555,0,0.991-0.119,1.309-0.357s0.477-0.572,0.477-1.003c0-0.419-0.153-0.714-0.459-0.884
	c-0.307-0.182-0.748-0.272-1.326-0.272h-2.261v2.517H242.924z M243.026,677.76c0.566,0,1.009-0.108,1.326-0.323
	c0.328-0.215,0.493-0.533,0.493-0.952c0-0.453-0.148-0.782-0.442-0.986c-0.295-0.215-0.754-0.322-1.377-0.322h-2.362v2.584H243.026z
	 M252.164,679.171c-1.167,0-2.103-0.357-2.806-1.071c-0.69-0.725-1.07-1.711-1.139-2.958l-0.017-0.578l0.017-0.561
	c0.079-1.225,0.465-2.199,1.156-2.925c0.703-0.725,1.626-1.088,2.771-1.088c1.258,0,2.233,0.402,2.924,1.207
	c0.691,0.793,1.037,1.87,1.037,3.23v0.289c0,0.112-0.04,0.21-0.119,0.289c-0.067,0.067-0.158,0.102-0.271,0.102h-5.882v0.153
	c0.034,0.736,0.255,1.366,0.663,1.887c0.419,0.51,0.969,0.765,1.648,0.765c0.521,0,0.946-0.102,1.275-0.306
	c0.34-0.215,0.589-0.436,0.748-0.663c0.102-0.136,0.176-0.215,0.221-0.238c0.057-0.033,0.153-0.051,0.289-0.051h0.833
	c0.102,0,0.188,0.028,0.255,0.085c0.068,0.058,0.103,0.136,0.103,0.238c0,0.249-0.159,0.55-0.477,0.901
	c-0.306,0.351-0.742,0.656-1.309,0.918C253.53,679.046,252.889,679.171,252.164,679.171z M254.493,673.934v-0.051
	c0-0.782-0.216-1.417-0.646-1.904c-0.419-0.499-0.986-0.748-1.7-0.748s-1.281,0.249-1.7,0.748c-0.407,0.487-0.611,1.122-0.611,1.904
	v0.051H254.493z M258.549,682.23c-0.114,0-0.21-0.04-0.289-0.119c-0.068-0.067-0.103-0.159-0.103-0.271v-11.288
	c0-0.113,0.034-0.204,0.103-0.272c0.079-0.079,0.175-0.119,0.289-0.119h0.782c0.112,0,0.204,0.04,0.271,0.119
	c0.079,0.068,0.119,0.159,0.119,0.272v0.748c0.634-0.873,1.564-1.31,2.788-1.31c1.19,0,2.079,0.374,2.669,1.122
	c0.6,0.748,0.923,1.711,0.969,2.891c0.012,0.125,0.018,0.316,0.018,0.577c0,0.262-0.006,0.453-0.018,0.578
	c-0.046,1.167-0.369,2.131-0.969,2.891c-0.601,0.748-1.491,1.122-2.669,1.122c-1.179,0-2.097-0.426-2.754-1.275v3.944
	c0,0.112-0.034,0.204-0.103,0.271c-0.067,0.079-0.158,0.119-0.271,0.119H258.549z M262.153,677.794c0.805,0,1.389-0.249,1.751-0.748
	c0.374-0.499,0.578-1.156,0.612-1.973c0.011-0.112,0.017-0.277,0.017-0.493c0-2.142-0.794-3.213-2.38-3.213
	c-0.781,0-1.372,0.262-1.768,0.782c-0.386,0.51-0.595,1.122-0.629,1.836l-0.018,0.646l0.018,0.663
	c0.021,0.669,0.238,1.252,0.646,1.751C260.81,677.545,261.393,677.794,262.153,677.794z M268.659,679
	c-0.114,0-0.211-0.033-0.289-0.102c-0.068-0.079-0.103-0.176-0.103-0.289v-8.058c0-0.113,0.034-0.204,0.103-0.272
	c0.078-0.079,0.175-0.119,0.289-0.119h0.815c0.113,0,0.204,0.04,0.272,0.119c0.079,0.068,0.118,0.159,0.118,0.272v3.264h4.624
	v-3.264c0-0.113,0.034-0.204,0.103-0.272c0.079-0.079,0.175-0.119,0.289-0.119h0.799c0.113,0,0.204,0.04,0.272,0.119
	c0.078,0.068,0.118,0.159,0.118,0.272v8.058c0,0.113-0.04,0.21-0.118,0.289c-0.068,0.068-0.159,0.102-0.272,0.102h-0.799
	c-0.114,0-0.21-0.033-0.289-0.102c-0.068-0.079-0.103-0.176-0.103-0.289v-3.434h-4.624v3.434c0,0.113-0.039,0.21-0.118,0.289
	c-0.068,0.068-0.159,0.102-0.272,0.102H268.659z M286.141,670.16c0.091,0,0.17,0.034,0.238,0.103
	c0.079,0.067,0.119,0.146,0.119,0.237v8.109c0,0.113-0.04,0.21-0.119,0.289c-0.068,0.068-0.159,0.102-0.272,0.102h-0.799
	c-0.113,0-0.21-0.033-0.289-0.102c-0.067-0.079-0.102-0.176-0.102-0.289v-6.171l-4.709,6.307c-0.125,0.17-0.272,0.255-0.442,0.255
	h-0.765c-0.103,0-0.193-0.033-0.272-0.102c-0.067-0.079-0.102-0.164-0.102-0.255v-8.092c0-0.113,0.034-0.204,0.102-0.272
	c0.079-0.079,0.176-0.119,0.289-0.119h0.816c0.112,0,0.204,0.04,0.271,0.119c0.079,0.068,0.119,0.159,0.119,0.272v6.137l4.692-6.273
	c0.125-0.17,0.271-0.255,0.441-0.255H286.141z M291.69,679c-0.113,0-0.21-0.033-0.289-0.102c-0.067-0.079-0.102-0.176-0.102-0.289
	v-7.089h-2.958c-0.114,0-0.21-0.034-0.289-0.102c-0.068-0.079-0.102-0.177-0.102-0.289v-0.578c0-0.113,0.033-0.204,0.102-0.272
	c0.079-0.079,0.175-0.119,0.289-0.119h7.479c0.113,0,0.204,0.04,0.272,0.119c0.079,0.068,0.119,0.159,0.119,0.272v0.578
	c0,0.112-0.04,0.21-0.119,0.289c-0.068,0.067-0.159,0.102-0.272,0.102h-2.958v7.089c0,0.113-0.033,0.21-0.102,0.289
	c-0.068,0.068-0.159,0.102-0.272,0.102H291.69z M301.222,679.171c-1.168,0-2.103-0.357-2.805-1.071
	c-0.692-0.725-1.071-1.711-1.14-2.958l-0.017-0.578l0.017-0.561c0.079-1.225,0.465-2.199,1.156-2.925
	c0.702-0.725,1.626-1.088,2.771-1.088c1.258,0,2.231,0.402,2.924,1.207c0.69,0.793,1.037,1.87,1.037,3.23v0.289
	c0,0.112-0.04,0.21-0.119,0.289c-0.068,0.067-0.159,0.102-0.272,0.102h-5.882v0.153c0.034,0.736,0.255,1.366,0.663,1.887
	c0.419,0.51,0.969,0.765,1.649,0.765c0.521,0,0.945-0.102,1.274-0.306c0.34-0.215,0.589-0.436,0.748-0.663
	c0.103-0.136,0.175-0.215,0.221-0.238c0.057-0.033,0.153-0.051,0.289-0.051h0.833c0.103,0,0.188,0.028,0.256,0.085
	c0.067,0.058,0.102,0.136,0.102,0.238c0,0.249-0.159,0.55-0.476,0.901c-0.307,0.351-0.743,0.656-1.31,0.918
	C302.587,679.046,301.947,679.171,301.222,679.171z M303.551,673.934v-0.051c0-0.782-0.216-1.417-0.646-1.904
	c-0.42-0.499-0.985-0.748-1.699-0.748c-0.715,0-1.281,0.249-1.7,0.748c-0.408,0.487-0.612,1.122-0.612,1.904v0.051H303.551z
	 M145.961,699c-0.113,0-0.21-0.033-0.289-0.102c-0.068-0.079-0.103-0.176-0.103-0.289v-7.089h-2.958
	c-0.112,0-0.21-0.034-0.289-0.102c-0.067-0.079-0.102-0.177-0.102-0.289v-0.578c0-0.113,0.034-0.204,0.102-0.272
	c0.079-0.079,0.177-0.119,0.289-0.119h7.48c0.113,0,0.204,0.04,0.271,0.119c0.079,0.068,0.119,0.159,0.119,0.272v0.578
	c0,0.112-0.04,0.21-0.119,0.289c-0.067,0.067-0.158,0.102-0.271,0.102h-2.958v7.089c0,0.113-0.034,0.21-0.103,0.289
	c-0.067,0.068-0.158,0.102-0.271,0.102H145.961z M155.493,699.171c-1.167,0-2.103-0.357-2.806-1.071
	c-0.69-0.725-1.07-1.711-1.139-2.958l-0.018-0.578l0.018-0.561c0.08-1.225,0.465-2.199,1.156-2.925
	c0.703-0.725,1.627-1.088,2.771-1.088c1.258,0,2.233,0.402,2.924,1.207c0.692,0.793,1.037,1.87,1.037,3.23v0.289
	c0,0.112-0.039,0.21-0.119,0.289c-0.067,0.067-0.157,0.102-0.271,0.102h-5.882v0.153c0.033,0.736,0.255,1.366,0.663,1.887
	c0.42,0.51,0.969,0.765,1.648,0.765c0.522,0,0.947-0.102,1.275-0.306c0.34-0.215,0.59-0.436,0.748-0.663
	c0.102-0.136,0.176-0.215,0.221-0.238c0.057-0.033,0.153-0.051,0.289-0.051h0.833c0.102,0,0.187,0.028,0.255,0.085
	c0.068,0.058,0.102,0.136,0.102,0.238c0,0.249-0.157,0.55-0.476,0.901c-0.306,0.351-0.742,0.656-1.309,0.918
	C156.859,699.046,156.219,699.171,155.493,699.171z M157.822,693.934v-0.051c0-0.782-0.215-1.417-0.646-1.904
	c-0.419-0.499-0.986-0.748-1.7-0.748s-1.28,0.249-1.7,0.748c-0.407,0.487-0.611,1.122-0.611,1.904v0.051H157.822z M160.979,699
	c-0.114,0-0.21-0.039-0.289-0.118c-0.08-0.079-0.119-0.177-0.119-0.289v-0.629c0-0.113,0.034-0.204,0.103-0.272
	c0.067-0.068,0.153-0.102,0.255-0.102c0.544-0.023,0.946-0.408,1.207-1.156c0.271-0.759,0.408-1.995,0.408-3.706v-2.176
	c0-0.113,0.034-0.204,0.102-0.272c0.079-0.079,0.175-0.119,0.289-0.119h5.406c0.113,0,0.204,0.04,0.271,0.119
	c0.079,0.068,0.119,0.159,0.119,0.272v8.058c0,0.113-0.04,0.21-0.119,0.289c-0.067,0.068-0.158,0.102-0.271,0.102h-0.816
	c-0.113,0-0.204-0.033-0.271-0.102c-0.068-0.079-0.103-0.176-0.103-0.289v-7.089h-3.06v1.394c0,2.165-0.25,3.724-0.748,4.676
	C162.843,698.53,162.055,699,160.979,699z M174.801,699.171c-1.167,0-2.103-0.357-2.805-1.071c-0.691-0.725-1.071-1.711-1.14-2.958
	l-0.017-0.578l0.017-0.561c0.079-1.225,0.465-2.199,1.156-2.925c0.703-0.725,1.626-1.088,2.771-1.088
	c1.258,0,2.232,0.402,2.924,1.207c0.69,0.793,1.037,1.87,1.037,3.23v0.289c0,0.112-0.04,0.21-0.119,0.289
	c-0.068,0.067-0.159,0.102-0.272,0.102h-5.882v0.153c0.034,0.736,0.255,1.366,0.663,1.887c0.419,0.51,0.969,0.765,1.649,0.765
	c0.521,0,0.945-0.102,1.274-0.306c0.34-0.215,0.589-0.436,0.748-0.663c0.103-0.136,0.176-0.215,0.221-0.238
	c0.058-0.033,0.153-0.051,0.289-0.051h0.833c0.103,0,0.188,0.028,0.255,0.085c0.068,0.058,0.103,0.136,0.103,0.238
	c0,0.249-0.159,0.55-0.477,0.901c-0.306,0.351-0.741,0.656-1.309,0.918C176.167,699.046,175.526,699.171,174.801,699.171z
	 M177.13,693.934v-0.051c0-0.782-0.215-1.417-0.646-1.904c-0.419-0.499-0.985-0.748-1.699-0.748c-0.715,0-1.281,0.249-1.7,0.748
	c-0.408,0.487-0.612,1.122-0.612,1.904v0.051H177.13z M185.215,702.23c-0.114,0-0.21-0.04-0.289-0.119
	c-0.068-0.067-0.103-0.159-0.103-0.271V699c-1.428,0-2.505-0.34-3.229-1.02c-0.726-0.691-1.122-1.626-1.19-2.805l-0.017-0.596
	l0.017-0.595c0.068-1.167,0.465-2.097,1.19-2.788c0.736-0.69,1.813-1.037,3.229-1.037v-2.839c0-0.112,0.034-0.204,0.103-0.271
	c0.079-0.079,0.175-0.119,0.289-0.119h0.799c0.113,0,0.204,0.04,0.272,0.119c0.078,0.067,0.118,0.159,0.118,0.271v2.839
	c1.416,0,2.487,0.347,3.214,1.037c0.735,0.691,1.139,1.621,1.207,2.788c0.011,0.125,0.017,0.323,0.017,0.595
	c0,0.272-0.006,0.471-0.017,0.596c-0.068,1.179-0.466,2.113-1.19,2.805c-0.714,0.68-1.791,1.02-3.23,1.02v2.84
	c0,0.112-0.04,0.204-0.118,0.271c-0.068,0.079-0.159,0.119-0.272,0.119H185.215z M184.823,691.469c-1.802,0-2.748,0.878-2.839,2.635
	l-0.017,0.476c0,1.055,0.226,1.836,0.68,2.347c0.464,0.51,1.19,0.765,2.176,0.765V691.469z M186.405,697.691
	c1.803,0,2.748-0.878,2.84-2.635c0.011-0.113,0.017-0.272,0.017-0.477c0-0.215-0.006-0.374-0.017-0.476
	c-0.092-1.757-1.037-2.635-2.84-2.635V697.691z M196.584,699.171c-1.247,0-2.216-0.352-2.907-1.055
	c-0.68-0.703-1.043-1.638-1.088-2.805l-0.018-0.731l0.018-0.73c0.045-1.156,0.414-2.085,1.104-2.788
	c0.691-0.714,1.655-1.071,2.891-1.071c1.234,0,2.199,0.357,2.89,1.071c0.691,0.703,1.061,1.632,1.105,2.788
	c0.011,0.125,0.017,0.368,0.017,0.73c0,0.363-0.006,0.606-0.017,0.731c-0.045,1.167-0.414,2.102-1.105,2.805
	C198.794,698.819,197.831,699.171,196.584,699.171z M196.584,697.861c0.714,0,1.274-0.227,1.683-0.68
	c0.419-0.453,0.646-1.105,0.68-1.955c0.012-0.113,0.018-0.329,0.018-0.646c0-0.316-0.006-0.532-0.018-0.646
	c-0.033-0.851-0.261-1.502-0.68-1.955c-0.408-0.453-0.969-0.68-1.683-0.68s-1.281,0.227-1.7,0.68s-0.64,1.104-0.663,1.955
	l-0.017,0.646l0.017,0.646c0.023,0.85,0.244,1.502,0.663,1.955S195.87,697.861,196.584,697.861z M203.115,699
	c-0.113,0-0.21-0.033-0.288-0.102c-0.068-0.079-0.103-0.176-0.103-0.289v-8.058c0-0.113,0.034-0.204,0.103-0.272
	c0.078-0.079,0.175-0.119,0.288-0.119h0.816c0.113,0,0.204,0.04,0.272,0.119c0.079,0.068,0.118,0.159,0.118,0.272v3.264h4.624
	v-3.264c0-0.113,0.034-0.204,0.103-0.272c0.079-0.079,0.175-0.119,0.289-0.119h0.799c0.113,0,0.204,0.04,0.272,0.119
	c0.078,0.068,0.118,0.159,0.118,0.272v8.058c0,0.113-0.04,0.21-0.118,0.289c-0.068,0.068-0.159,0.102-0.272,0.102h-0.799
	c-0.114,0-0.21-0.033-0.289-0.102c-0.068-0.079-0.103-0.176-0.103-0.289v-3.434h-4.624v3.434c0,0.113-0.039,0.21-0.118,0.289
	c-0.068,0.068-0.159,0.102-0.272,0.102H203.115z M217.642,699c-0.113,0-0.21-0.033-0.289-0.102
	c-0.067-0.079-0.102-0.176-0.102-0.289v-8.058c0-0.113,0.034-0.204,0.102-0.272c0.079-0.079,0.176-0.119,0.289-0.119h0.816
	c0.112,0,0.204,0.04,0.271,0.119c0.079,0.068,0.119,0.159,0.119,0.272v3.264h4.624v-3.264c0-0.113,0.034-0.204,0.103-0.272
	c0.078-0.079,0.176-0.119,0.288-0.119h0.8c0.112,0,0.204,0.04,0.271,0.119c0.079,0.068,0.119,0.159,0.119,0.272v8.058
	c0,0.113-0.04,0.21-0.119,0.289c-0.067,0.068-0.159,0.102-0.271,0.102h-0.8c-0.112,0-0.21-0.033-0.288-0.102
	c-0.068-0.079-0.103-0.176-0.103-0.289v-3.434h-4.624v3.434c0,0.113-0.04,0.21-0.119,0.289c-0.067,0.068-0.159,0.102-0.271,0.102
	H217.642z M230.076,699.171c-0.557,0-1.071-0.113-1.548-0.341c-0.476-0.227-0.855-0.532-1.139-0.918
	c-0.271-0.396-0.408-0.833-0.408-1.309c0-0.748,0.307-1.36,0.918-1.836c0.623-0.487,1.462-0.805,2.517-0.952l2.532-0.356v-0.493
	c0-1.156-0.662-1.734-1.988-1.734c-0.499,0-0.907,0.108-1.225,0.323c-0.317,0.204-0.556,0.448-0.714,0.73
	c-0.034,0.103-0.08,0.177-0.136,0.222c-0.046,0.045-0.114,0.067-0.204,0.067h-0.73c-0.103,0-0.193-0.034-0.272-0.102
	c-0.068-0.079-0.102-0.17-0.102-0.272c0.011-0.271,0.136-0.578,0.374-0.918c0.249-0.351,0.629-0.651,1.139-0.9
	c0.51-0.262,1.139-0.392,1.887-0.392c1.27,0,2.182,0.3,2.737,0.901c0.555,0.589,0.833,1.326,0.833,2.21v5.508
	c0,0.113-0.04,0.21-0.119,0.289c-0.068,0.068-0.159,0.102-0.272,0.102h-0.781c-0.114,0-0.21-0.033-0.289-0.102
	c-0.068-0.079-0.103-0.176-0.103-0.289v-0.73c-0.25,0.362-0.611,0.669-1.088,0.918C231.419,699.046,230.812,699.171,230.076,699.171
	z M230.433,697.895c0.736,0,1.337-0.238,1.802-0.714c0.477-0.487,0.714-1.185,0.714-2.091v-0.477l-1.972,0.289
	c-0.805,0.113-1.411,0.306-1.818,0.578c-0.408,0.261-0.612,0.595-0.612,1.003c0,0.453,0.187,0.805,0.561,1.054
	C229.481,697.776,229.923,697.895,230.433,697.895z M243.18,699c-0.102,0-0.187-0.033-0.255-0.102
	c-0.056-0.079-0.085-0.17-0.085-0.271c0-0.079,0.022-0.153,0.068-0.222l2.601-3.621c-0.272,0.068-0.578,0.103-0.918,0.103
	c-0.804-0.012-1.519-0.198-2.143-0.562c-0.611-0.362-1.081-0.844-1.41-1.444c-0.328-0.602-0.493-1.241-0.493-1.922
	c0-0.68,0.159-1.325,0.476-1.938c0.329-0.623,0.816-1.128,1.462-1.513c0.646-0.386,1.429-0.578,2.347-0.578s1.699,0.187,2.346,0.561
	c0.658,0.374,1.151,0.867,1.479,1.479c0.329,0.611,0.493,1.264,0.493,1.955c0,0.611-0.106,1.155-0.323,1.632
	c-0.215,0.465-0.515,0.975-0.9,1.53l-3.281,4.572c-0.079,0.103-0.158,0.188-0.238,0.255c-0.067,0.058-0.17,0.085-0.306,0.085H243.18
	z M244.829,693.51c0.476,0,0.913-0.103,1.309-0.307c0.408-0.215,0.731-0.516,0.969-0.9c0.238-0.397,0.357-0.851,0.357-1.36
	s-0.119-0.958-0.357-1.343c-0.237-0.397-0.561-0.697-0.969-0.901c-0.396-0.215-0.833-0.323-1.309-0.323
	c-0.477,0-0.912,0.108-1.31,0.323c-0.396,0.204-0.714,0.504-0.952,0.901c-0.226,0.385-0.34,0.833-0.34,1.343s0.114,0.963,0.34,1.36
	c0.238,0.385,0.557,0.686,0.952,0.9C243.917,693.407,244.353,693.51,244.829,693.51z M255.365,699.171
	c-1.462,0-2.532-0.426-3.213-1.275c-0.68-0.85-1.043-1.966-1.088-3.349c-0.012-0.307-0.017-0.8-0.017-1.479
	c0-0.703,0.005-1.213,0.017-1.53c0.034-1.359,0.396-2.465,1.088-3.314c0.691-0.861,1.763-1.292,3.213-1.292
	c1.463,0,2.538,0.431,3.23,1.292c0.691,0.85,1.054,1.955,1.088,3.314c0.022,0.636,0.034,1.146,0.034,1.53
	c0,0.374-0.012,0.867-0.034,1.479c-0.046,1.383-0.408,2.499-1.088,3.349S256.839,699.171,255.365,699.171z M255.365,697.709
	c0.851,0,1.49-0.283,1.922-0.851c0.441-0.567,0.674-1.366,0.696-2.396c0.022-0.657,0.034-1.134,0.034-1.429
	c0-0.316-0.012-0.781-0.034-1.394c-0.022-1.021-0.25-1.819-0.68-2.397c-0.431-0.578-1.077-0.867-1.938-0.867
	c-0.85,0-1.495,0.289-1.938,0.867c-0.431,0.578-0.658,1.377-0.68,2.397l-0.018,1.394l0.018,1.429c0.021,1.03,0.249,1.829,0.68,2.396
	C253.87,697.426,254.516,697.709,255.365,697.709z M264.066,691.759c-0.454,0-0.873-0.103-1.258-0.307
	c-0.386-0.215-0.692-0.504-0.918-0.866c-0.216-0.374-0.323-0.788-0.323-1.241s0.107-0.861,0.323-1.225
	c0.226-0.374,0.532-0.663,0.918-0.866c0.385-0.216,0.804-0.323,1.258-0.323c0.453,0,0.872,0.107,1.258,0.323
	c0.386,0.203,0.686,0.492,0.901,0.866c0.227,0.363,0.34,0.771,0.34,1.225s-0.113,0.867-0.34,1.241
	c-0.216,0.362-0.516,0.651-0.901,0.866C264.938,691.656,264.519,691.759,264.066,691.759z M264.066,690.636
	c0.386,0,0.697-0.119,0.936-0.357c0.237-0.238,0.356-0.55,0.356-0.935c0-0.386-0.119-0.697-0.356-0.936
	c-0.238-0.237-0.55-0.356-0.936-0.356s-0.696,0.119-0.935,0.356c-0.238,0.238-0.357,0.55-0.357,0.936
	c0,0.385,0.119,0.696,0.357,0.935S263.68,690.636,264.066,690.636z"/>
<path fill="#FFFFFF" d="M53.779,659.709h15.815v10.258h2.778v-13.845c0-1.213-0.96-2.122-2.122-2.122H53.122
	c-1.213,0-2.122,0.961-2.122,2.122v33.298c0,1.213,0.96,2.121,2.122,2.121h5.103v-8.235h-4.446V659.709z M59.185,656.122h4.901
	c0.404,0,0.707,0.304,0.707,0.707c0,0.405-0.303,0.708-0.707,0.708h-4.901c-0.403,0-0.707-0.303-0.707-0.708
	C58.478,656.426,58.831,656.122,59.185,656.122z"/>
<path fill="#FFFFFF" d="M96.827,673.149H63.581c-1.213,0-2.173,0.96-2.173,2.173V692.4c0,1.213,0.96,2.173,2.173,2.173h33.246
	c1.162,0,2.173-0.96,2.173-2.173v-17.078C99,674.16,98.04,673.149,96.827,673.149z M65.552,685.68c-1.011,0-1.769-0.809-1.769-1.769
	c0-1.011,0.809-1.818,1.769-1.818c1.01,0,1.768,0.808,1.768,1.818C67.32,684.872,66.512,685.68,65.552,685.68z M93.24,691.743
	H69.644v-15.814H93.24V691.743z M96.827,686.286c0,0.404-0.304,0.708-0.707,0.708c-0.404,0-0.708-0.304-0.708-0.708v-4.9
	c0-0.404,0.304-0.707,0.708-0.707c0.403,0,0.707,0.303,0.707,0.707V686.286z"/>
<path fill="#FFFFFF" d="M81.164,666.076c-0.253-0.253-0.354-0.556-0.354-0.858c0-0.304,0.101-0.657,0.354-0.859
	c0.505-0.505,1.263-0.505,1.769,0l1.061,1.062c-0.354-3.284-3.133-5.912-6.518-5.912c-0.707,0-1.264-0.557-1.264-1.264
	s0.557-1.263,1.264-1.263c4.8,0,8.741,3.789,9.044,8.488l1.213-1.212c0.505-0.506,1.263-0.506,1.769,0
	c0.505,0.505,0.505,1.263,0,1.768l-3.284,3.284c-0.506,0.506-1.264,0.506-1.769,0L81.164,666.076z"/>
<g>
	<path fill="#FFFFFF" d="M159.851,341.035h-2.02v-3.66h-10.972v3.682h-2.02v-5.261h1.066c0.902,0,1.577-0.62,2.025-1.861
		c0.447-1.24,0.733-3.057,0.856-5.45l0.338-6.039h8.685v13.351h2.041V341.035z M150.827,328.484
		c-0.089,1.703-0.271,3.164-0.549,4.384c-0.276,1.221-0.678,2.196-1.205,2.928h6.716v-11.761h-4.727L150.827,328.484z"/>
	<path fill="#FFFFFF" d="M166.495,337.59c-1.593,0-2.835-0.509-3.727-1.527c-0.893-1.019-1.338-2.358-1.338-4.02v-0.451
		c0-1.593,0.459-2.91,1.379-3.953c0.919-1.042,2.042-1.563,3.368-1.563c1.483,0,2.596,0.462,3.338,1.384
		c0.741,0.924,1.112,2.15,1.112,3.682v1.066h-7.096l-0.031,0.051c0,1.115,0.246,2.019,0.738,2.713
		c0.492,0.693,1.244,1.041,2.256,1.041c0.684,0,1.283-0.098,1.799-0.293c0.516-0.194,0.959-0.463,1.328-0.805l0.79,1.313
		c-0.396,0.383-0.919,0.706-1.569,0.969C168.194,337.459,167.411,337.59,166.495,337.59z M166.177,327.664
		c-0.704,0-1.287,0.272-1.748,0.815c-0.462,0.544-0.744,1.239-0.846,2.087l0.021,0.051h5.004v-0.164
		c0-0.806-0.198-1.473-0.595-1.999S167.005,327.664,166.177,327.664z"/>
	<path fill="#FFFFFF" d="M181.886,326.28v11.095h-2.02v-9.495h-3.753v3.138c0,2.188-0.291,3.794-0.872,4.819
		s-1.572,1.538-2.974,1.538h-0.574l0.041-1.723l0.42-0.01c0.718,0,1.218-0.351,1.502-1.052c0.283-0.7,0.425-1.892,0.425-3.573
		v-4.737H181.886z"/>
	<path fill="#FFFFFF" d="M191.33,337.375c-0.068-0.335-0.122-0.631-0.159-0.887c-0.038-0.257-0.06-0.515-0.066-0.774
		c-0.376,0.533-0.866,0.979-1.472,1.338c-0.604,0.359-1.256,0.538-1.953,0.538c-1.155,0-2.035-0.295-2.641-0.887
		c-0.604-0.591-0.907-1.406-0.907-2.445c0-1.06,0.429-1.889,1.287-2.486c0.857-0.599,2.021-0.897,3.491-0.897h2.194v-1.097
		c0-0.649-0.198-1.164-0.595-1.544c-0.396-0.379-0.957-0.569-1.682-0.569c-0.656,0-1.186,0.164-1.589,0.492s-0.605,0.722-0.605,1.18
		l-1.917,0.021l-0.021-0.062c-0.048-0.807,0.33-1.545,1.133-2.215c0.803-0.67,1.84-1.005,3.112-1.005
		c1.258,0,2.27,0.319,3.035,0.959c0.766,0.639,1.148,1.561,1.148,2.763v5.343c0,0.396,0.021,0.779,0.062,1.148
		s0.116,0.731,0.226,1.087H191.33z M187.977,335.898c0.731,0,1.391-0.188,1.979-0.564c0.588-0.375,0.971-0.806,1.148-1.291v-1.805
		h-2.266c-0.813,0-1.465,0.205-1.954,0.615s-0.733,0.892-0.733,1.445c0,0.492,0.154,0.882,0.461,1.169
		S187.376,335.898,187.977,335.898z"/>
	<path fill="#FFFFFF" d="M200.651,337.59c-1.593,0-2.835-0.509-3.727-1.527c-0.893-1.019-1.338-2.358-1.338-4.02v-0.451
		c0-1.593,0.459-2.91,1.379-3.953c0.919-1.042,2.042-1.563,3.368-1.563c1.483,0,2.596,0.462,3.338,1.384
		c0.741,0.924,1.112,2.15,1.112,3.682v1.066h-7.096l-0.031,0.051c0,1.115,0.246,2.019,0.738,2.713
		c0.492,0.693,1.244,1.041,2.256,1.041c0.684,0,1.283-0.098,1.799-0.293c0.516-0.194,0.959-0.463,1.328-0.805l0.79,1.313
		c-0.396,0.383-0.919,0.706-1.569,0.969C202.35,337.459,201.567,337.59,200.651,337.59z M200.333,327.664
		c-0.704,0-1.287,0.272-1.748,0.815c-0.462,0.544-0.744,1.239-0.846,2.087l0.021,0.051h5.004v-0.164
		c0-0.806-0.198-1.473-0.595-1.999S201.16,327.664,200.333,327.664z"/>
	<path fill="#FFFFFF" d="M213.366,334.729h0.061l3.631-8.449h2.521v11.095h-2.02v-7.701l-0.062-0.02l-3.404,7.721h-1.395
		l-3.466-7.896l-0.062,0.021v7.875h-2.02V326.28h2.605L213.366,334.729z"/>
	<path fill="#FFFFFF" d="M236.92,337.375H234.9v-4.717h-4.942v4.717h-2.02V326.28h2.02v4.799h4.942v-4.799h2.021V337.375z"/>
	<path fill="#FFFFFF" d="M246.692,337.375c-0.068-0.335-0.121-0.631-0.159-0.887c-0.037-0.257-0.06-0.515-0.066-0.774
		c-0.376,0.533-0.866,0.979-1.472,1.338c-0.604,0.359-1.256,0.538-1.953,0.538c-1.155,0-2.035-0.295-2.641-0.887
		c-0.604-0.591-0.907-1.406-0.907-2.445c0-1.06,0.429-1.889,1.287-2.486c0.857-0.599,2.021-0.897,3.491-0.897h2.194v-1.097
		c0-0.649-0.198-1.164-0.595-1.544c-0.396-0.379-0.957-0.569-1.682-0.569c-0.656,0-1.187,0.164-1.59,0.492s-0.604,0.722-0.604,1.18
		l-1.917,0.021l-0.021-0.062c-0.048-0.807,0.33-1.545,1.134-2.215c0.803-0.67,1.841-1.005,3.112-1.005
		c1.257,0,2.269,0.319,3.035,0.959c0.765,0.639,1.148,1.561,1.148,2.763v5.343c0,0.396,0.02,0.779,0.061,1.148
		s0.116,0.731,0.227,1.087H246.692z M243.338,335.898c0.731,0,1.392-0.188,1.979-0.564c0.588-0.375,0.971-0.806,1.148-1.291v-1.805
		h-2.267c-0.813,0-1.464,0.205-1.953,0.615c-0.488,0.41-0.732,0.892-0.732,1.445c0,0.492,0.153,0.882,0.461,1.169
		S242.737,335.898,243.338,335.898z"/>
	<path fill="#FFFFFF" d="M255.826,336.011c0.622,0,1.166-0.207,1.631-0.621c0.465-0.413,0.697-0.921,0.697-1.522h1.825l0.03,0.062
		c0.027,0.957-0.383,1.807-1.23,2.548c-0.848,0.742-1.832,1.112-2.953,1.112c-1.559,0-2.762-0.529-3.609-1.589
		s-1.271-2.379-1.271-3.958v-0.431c0-1.565,0.426-2.88,1.277-3.942c0.851-1.063,2.052-1.595,3.604-1.595
		c1.237,0,2.251,0.383,3.041,1.148c0.789,0.766,1.17,1.706,1.143,2.819l-0.02,0.063h-1.836c0-0.678-0.221-1.253-0.661-1.729
		c-0.441-0.475-0.997-0.713-1.667-0.713c-0.991,0-1.714,0.385-2.168,1.154c-0.455,0.769-0.682,1.7-0.682,2.794v0.431
		c0,1.114,0.224,2.055,0.671,2.82C254.096,335.629,254.823,336.011,255.826,336.011z"/>
	<path fill="#FFFFFF" d="M270.961,327.849h-3.66v9.525h-2.02v-9.525h-3.609v-1.569h9.289V327.849z"/>
	<path fill="#FFFFFF" d="M272.459,331.724c0-1.641,0.444-2.992,1.334-4.055c0.888-1.063,2.095-1.595,3.619-1.595
		c1.538,0,2.753,0.53,3.646,1.589c0.892,1.061,1.338,2.414,1.338,4.061v0.227c0,1.654-0.444,3.008-1.333,4.061
		s-2.099,1.578-3.63,1.578s-2.743-0.527-3.635-1.584c-0.893-1.056-1.339-2.407-1.339-4.055V331.724z M274.48,331.951
		c0,1.176,0.248,2.146,0.743,2.912c0.496,0.766,1.232,1.148,2.21,1.148c0.964,0,1.695-0.383,2.194-1.148s0.748-1.736,0.748-2.912
		v-0.227c0-1.161-0.251-2.129-0.753-2.901c-0.503-0.772-1.239-1.159-2.21-1.159c-0.964,0-1.693,0.387-2.189,1.159
		c-0.495,0.772-0.743,1.74-0.743,2.901V331.951z"/>
	<path fill="#FFFFFF" d="M293.757,326.28v11.095h-2.021v-4.307h-2.737l-2.625,4.307H284.2l2.81-4.604
		c-0.704-0.253-1.246-0.653-1.625-1.2c-0.38-0.547-0.569-1.179-0.569-1.897c0-0.997,0.378-1.813,1.133-2.445
		c0.756-0.632,1.796-0.948,3.122-0.948H293.757z M286.846,329.695c0,0.492,0.167,0.912,0.502,1.261s0.838,0.522,1.508,0.522h2.881
		v-3.629h-2.666c-0.731,0-1.285,0.183-1.66,0.548C287.033,328.763,286.846,329.196,286.846,329.695z"/>
	<path fill="#FFFFFF" d="M298.812,326.28v9.516h3.906v-9.516h2.021v9.516h3.907v-9.516h2.02v9.608h1.805v4.952h-2v-3.466h-13.678
		V326.28H298.812z"/>
	<path fill="#FFFFFF" d="M321.525,326.28h2.02v11.095h-2.02V329.5l-0.063-0.021l-4.9,7.896h-2.01V326.28h2.01v7.875l0.061,0.021
		L321.525,326.28z"/>
	<path fill="#FFFFFF" d="M331.081,337.59c-1.594,0-2.836-0.509-3.728-1.527c-0.893-1.019-1.339-2.358-1.339-4.02v-0.451
		c0-1.593,0.46-2.91,1.38-3.953c0.919-1.042,2.042-1.563,3.368-1.563c1.483,0,2.596,0.462,3.338,1.384
		c0.741,0.924,1.112,2.15,1.112,3.682v1.066h-7.096l-0.03,0.051c0,1.115,0.246,2.019,0.738,2.713
		c0.492,0.693,1.243,1.041,2.256,1.041c0.683,0,1.283-0.098,1.799-0.293c0.517-0.194,0.959-0.463,1.328-0.805l0.789,1.313
		c-0.396,0.383-0.919,0.706-1.568,0.969C332.78,337.459,331.996,337.59,331.081,337.59z M330.763,327.664
		c-0.704,0-1.287,0.272-1.748,0.815c-0.462,0.544-0.744,1.239-0.846,2.087l0.02,0.051h5.004v-0.164c0-0.806-0.198-1.473-0.594-1.999
		C332.201,327.927,331.59,327.664,330.763,327.664z"/>
	<path fill="#FFFFFF" d="M152.724,351.48h2.02v11.095h-2.02V354.7l-0.062-0.021l-4.901,7.896h-2.01V351.48h2.01v7.875l0.062,0.021
		L152.724,351.48z"/>
	<path fill="#FFFFFF" d="M164.742,353.08h-5.035v9.495h-2.02V351.48h7.055V353.08z"/>
	<path fill="#FFFFFF" d="M175.847,357.448c0,1.6-0.383,2.89-1.148,3.871c-0.766,0.98-1.822,1.471-3.168,1.471
		c-0.684,0-1.284-0.114-1.8-0.343c-0.516-0.229-0.955-0.572-1.317-1.03v5.424h-2.02v-15.36h1.548l0.318,1.436
		c0.362-0.533,0.813-0.939,1.354-1.22s1.169-0.421,1.887-0.421c1.374,0,2.442,0.545,3.205,1.636c0.762,1.09,1.143,2.531,1.143,4.322
		V357.448z M173.827,357.233c0-1.258-0.248-2.292-0.743-3.103c-0.496-0.81-1.226-1.215-2.189-1.215
		c-0.581,0-1.077,0.132-1.487,0.395c-0.41,0.264-0.742,0.624-0.995,1.082v5.362c0.253,0.459,0.584,0.815,0.995,1.072
		c0.41,0.256,0.913,0.385,1.507,0.385c0.957,0,1.682-0.351,2.174-1.052c0.492-0.7,0.738-1.604,0.738-2.712V357.233z"/>
	<path fill="#FFFFFF" d="M180.656,355.705h2.758c1.313,0,2.333,0.314,3.061,0.943c0.728,0.629,1.092,1.446,1.092,2.45
		c0,1.013-0.368,1.845-1.103,2.497c-0.735,0.653-1.751,0.979-3.05,0.979h-4.778V351.48h2.02V355.705z M180.656,357.284v3.712h2.758
		c0.725,0,1.259-0.175,1.605-0.522c0.345-0.35,0.518-0.783,0.518-1.303c0-0.506-0.174-0.946-0.523-1.322s-0.882-0.564-1.6-0.564
		H180.656z M191.546,362.575h-2.02V351.48h2.02V362.575z"/>
</g>
</svg>
