<svg width="414" height="736" viewBox="0 0 414 736" fill="none" xmlns="http://www.w3.org/2000/svg">
<rect width="414" height="736" fill="#232323"/>
<path d="M16 629L398 629V720H16L16 629Z" fill="#E20000"/>
<path d="M152.615 322.781H154.49V337H152.615V326.043L145.613 337H143.729V322.781H145.613V333.738L152.615 322.781ZM165.051 327.928H160.178V337H158.362V326.434H165.051V327.928ZM176.149 331.834C176.149 333.442 175.781 334.738 175.046 335.721C174.31 336.704 173.314 337.195 172.057 337.195C170.775 337.195 169.766 336.788 169.03 335.975V341.062H167.223V326.434H168.874L168.962 327.605C169.697 326.694 170.72 326.238 172.028 326.238C173.298 326.238 174.3 326.717 175.036 327.674C175.778 328.631 176.149 329.962 176.149 331.668V331.834ZM174.343 331.629C174.343 330.438 174.089 329.497 173.581 328.807C173.073 328.117 172.376 327.771 171.491 327.771C170.397 327.771 169.577 328.257 169.03 329.227V334.275C169.57 335.239 170.397 335.721 171.511 335.721C172.376 335.721 173.063 335.379 173.571 334.695C174.085 334.005 174.343 332.983 174.343 331.629ZM178.575 331.619C178.575 330.584 178.777 329.653 179.181 328.826C179.591 327.999 180.157 327.361 180.88 326.912C181.609 326.463 182.439 326.238 183.37 326.238C184.809 326.238 185.971 326.736 186.857 327.732C187.749 328.729 188.195 330.053 188.195 331.707V331.834C188.195 332.863 187.996 333.787 187.599 334.607C187.208 335.421 186.645 336.056 185.909 336.512C185.18 336.967 184.34 337.195 183.39 337.195C181.958 337.195 180.795 336.697 179.904 335.701C179.018 334.705 178.575 333.387 178.575 331.746V331.619ZM180.392 331.834C180.392 333.006 180.662 333.947 181.202 334.656C181.749 335.366 182.478 335.721 183.39 335.721C184.308 335.721 185.037 335.363 185.577 334.646C186.118 333.924 186.388 332.915 186.388 331.619C186.388 330.46 186.111 329.523 185.558 328.807C185.011 328.084 184.282 327.723 183.37 327.723C182.478 327.723 181.759 328.077 181.212 328.787C180.665 329.497 180.392 330.512 180.392 331.834ZM191.226 337V326.434H195.347C196.754 326.434 197.831 326.681 198.58 327.176C199.335 327.664 199.713 328.383 199.713 329.334C199.713 329.822 199.566 330.265 199.273 330.662C198.98 331.053 198.547 331.352 197.974 331.561C198.612 331.71 199.123 332.003 199.507 332.439C199.898 332.876 200.093 333.396 200.093 334.002C200.093 334.972 199.735 335.714 199.019 336.229C198.31 336.743 197.304 337 196.002 337H191.226ZM193.033 332.361V335.545H196.021C196.776 335.545 197.339 335.405 197.711 335.125C198.088 334.845 198.277 334.451 198.277 333.943C198.277 332.889 197.502 332.361 195.953 332.361H193.033ZM193.033 330.916H195.367C197.06 330.916 197.906 330.421 197.906 329.432C197.906 328.442 197.105 327.931 195.504 327.898H193.033V330.916ZM205.059 330.076H207.803C209.001 330.089 209.948 330.402 210.645 331.014C211.341 331.626 211.689 332.456 211.689 333.504C211.689 334.559 211.331 335.405 210.615 336.043C209.899 336.681 208.936 337 207.725 337H203.252V326.434H205.059V330.076ZM215.459 337H213.643V326.434H215.459V337ZM205.059 331.551V335.525H207.744C208.421 335.525 208.945 335.353 209.316 335.008C209.688 334.656 209.873 334.178 209.873 333.572C209.873 332.986 209.691 332.508 209.326 332.137C208.968 331.759 208.464 331.564 207.812 331.551H205.059ZM223.598 337.195C222.166 337.195 221 336.727 220.102 335.789C219.204 334.845 218.754 333.585 218.754 332.01V331.678C218.754 330.63 218.953 329.695 219.35 328.875C219.754 328.048 220.314 327.404 221.03 326.941C221.752 326.473 222.534 326.238 223.373 326.238C224.747 326.238 225.815 326.691 226.577 327.596C227.338 328.501 227.719 329.796 227.719 331.482V332.234H220.561C220.587 333.276 220.89 334.119 221.469 334.764C222.055 335.402 222.797 335.721 223.696 335.721C224.334 335.721 224.874 335.59 225.317 335.33C225.76 335.07 226.147 334.725 226.479 334.295L227.582 335.154C226.697 336.515 225.369 337.195 223.598 337.195ZM223.373 327.723C222.644 327.723 222.032 327.99 221.537 328.523C221.043 329.051 220.737 329.793 220.62 330.75H225.912V330.613C225.86 329.695 225.613 328.986 225.17 328.484C224.728 327.977 224.129 327.723 223.373 327.723ZM243.831 327.898H240.286V337H238.48V327.898H235.003V326.434H243.831V327.898ZM249.793 337.195C248.36 337.195 247.195 336.727 246.296 335.789C245.398 334.845 244.949 333.585 244.949 332.01V331.678C244.949 330.63 245.147 329.695 245.545 328.875C245.948 328.048 246.508 327.404 247.224 326.941C247.947 326.473 248.728 326.238 249.568 326.238C250.942 326.238 252.009 326.691 252.771 327.596C253.533 328.501 253.914 329.796 253.914 331.482V332.234H246.755C246.782 333.276 247.084 334.119 247.664 334.764C248.25 335.402 248.992 335.721 249.89 335.721C250.528 335.721 251.069 335.59 251.511 335.33C251.954 335.07 252.341 334.725 252.673 334.295L253.777 335.154C252.892 336.515 251.563 337.195 249.793 337.195ZM249.568 327.723C248.839 327.723 248.227 327.99 247.732 328.523C247.237 329.051 246.931 329.793 246.814 330.75H252.107V330.613C252.055 329.695 251.808 328.986 251.365 328.484C250.922 327.977 250.323 327.723 249.568 327.723ZM260.158 330.291L262.502 326.434H264.611L261.154 331.658L264.719 337H262.629L260.188 333.045L257.746 337H255.646L259.211 331.658L255.754 326.434H257.844L260.158 330.291ZM275.768 337H273.961V332.488H269.108V337H267.291V326.434H269.108V331.014H273.961V326.434H275.768V337ZM278.8 331.619C278.8 330.584 279.001 329.653 279.405 328.826C279.815 327.999 280.382 327.361 281.104 326.912C281.833 326.463 282.664 326.238 283.595 326.238C285.033 326.238 286.195 326.736 287.081 327.732C287.973 328.729 288.419 330.053 288.419 331.707V331.834C288.419 332.863 288.22 333.787 287.823 334.607C287.432 335.421 286.869 336.056 286.134 336.512C285.404 336.967 284.565 337.195 283.614 337.195C282.182 337.195 281.02 336.697 280.128 335.701C279.242 334.705 278.8 333.387 278.8 331.746V331.619ZM280.616 331.834C280.616 333.006 280.886 333.947 281.427 334.656C281.973 335.366 282.703 335.721 283.614 335.721C284.532 335.721 285.261 335.363 285.802 334.646C286.342 333.924 286.612 332.915 286.612 331.619C286.612 330.46 286.335 329.523 285.782 328.807C285.235 328.084 284.506 327.723 283.595 327.723C282.703 327.723 281.983 328.077 281.436 328.787C280.889 329.497 280.616 330.512 280.616 331.834ZM299.79 326.434V337H297.974V327.928H294.38L294.165 331.883C294.048 333.699 293.742 334.998 293.247 335.779C292.759 336.561 291.981 336.967 290.913 337H290.191V335.408L290.708 335.369C291.294 335.304 291.714 334.965 291.968 334.354C292.222 333.742 292.385 332.609 292.456 330.955L292.652 326.434H299.79ZM302.812 331.619C302.812 330.584 303.014 329.653 303.418 328.826C303.828 327.999 304.394 327.361 305.117 326.912C305.846 326.463 306.676 326.238 307.607 326.238C309.046 326.238 310.208 326.736 311.093 327.732C311.985 328.729 312.431 330.053 312.431 331.707V331.834C312.431 332.863 312.233 333.787 311.836 334.607C311.445 335.421 310.882 336.056 310.146 336.512C309.417 336.967 308.577 337.195 307.627 337.195C306.194 337.195 305.032 336.697 304.14 335.701C303.255 334.705 302.812 333.387 302.812 331.746V331.619ZM304.629 331.834C304.629 333.006 304.899 333.947 305.439 334.656C305.986 335.366 306.715 335.721 307.627 335.721C308.545 335.721 309.274 335.363 309.814 334.646C310.354 333.924 310.625 332.915 310.625 331.619C310.625 330.46 310.348 329.523 309.795 328.807C309.248 328.084 308.518 327.723 307.607 327.723C306.715 327.723 305.996 328.077 305.449 328.787C304.902 329.497 304.629 330.512 304.629 331.834ZM322.123 327.928H317.25V337H315.434V326.434H322.123V327.928ZM331.131 326.434H332.938V337H331.131V329.295L326.258 337H324.452V326.434H326.258V334.148L331.131 326.434ZM343.274 326.434H345.081V337H343.274V329.295L338.401 337H336.595V326.434H338.401V334.148L343.274 326.434ZM149.451 359.607L153.045 351.434H155.301V362H153.494V354.314L150.076 362H148.826L145.34 354.148V362H143.533V351.434H145.877L149.451 359.607ZM163.196 362.195C161.763 362.195 160.598 361.727 159.7 360.789C158.801 359.845 158.352 358.585 158.352 357.01V356.678C158.352 355.63 158.551 354.695 158.948 353.875C159.351 353.048 159.911 352.404 160.627 351.941C161.35 351.473 162.131 351.238 162.971 351.238C164.345 351.238 165.413 351.691 166.174 352.596C166.936 353.501 167.317 354.796 167.317 356.482V357.234H160.159C160.185 358.276 160.487 359.119 161.067 359.764C161.653 360.402 162.395 360.721 163.293 360.721C163.931 360.721 164.472 360.59 164.914 360.33C165.357 360.07 165.745 359.725 166.077 359.295L167.18 360.154C166.295 361.515 164.967 362.195 163.196 362.195ZM162.971 352.723C162.242 352.723 161.63 352.99 161.135 353.523C160.64 354.051 160.334 354.793 160.217 355.75H165.51V355.613C165.458 354.695 165.211 353.986 164.768 353.484C164.325 352.977 163.726 352.723 162.971 352.723ZM178.942 356.834C178.942 358.442 178.574 359.738 177.839 360.721C177.103 361.704 176.107 362.195 174.85 362.195C173.568 362.195 172.559 361.788 171.823 360.975V366.062H170.016V351.434H171.667L171.755 352.605C172.49 351.694 173.513 351.238 174.821 351.238C176.091 351.238 177.093 351.717 177.829 352.674C178.571 353.631 178.942 354.962 178.942 356.668V356.834ZM177.136 356.629C177.136 355.438 176.882 354.497 176.374 353.807C175.866 353.117 175.169 352.771 174.284 352.771C173.19 352.771 172.37 353.257 171.823 354.227V359.275C172.363 360.239 173.19 360.721 174.304 360.721C175.169 360.721 175.856 360.379 176.364 359.695C176.878 359.005 177.136 357.983 177.136 356.629ZM181.368 356.619C181.368 355.584 181.57 354.653 181.974 353.826C182.384 352.999 182.95 352.361 183.673 351.912C184.402 351.463 185.232 351.238 186.163 351.238C187.602 351.238 188.764 351.736 189.65 352.732C190.542 353.729 190.987 355.053 190.987 356.707V356.834C190.987 357.863 190.789 358.787 190.392 359.607C190.001 360.421 189.438 361.056 188.702 361.512C187.973 361.967 187.133 362.195 186.183 362.195C184.751 362.195 183.588 361.697 182.696 360.701C181.811 359.705 181.368 358.387 181.368 356.746V356.619ZM183.185 356.834C183.185 358.006 183.455 358.947 183.995 359.656C184.542 360.366 185.271 360.721 186.183 360.721C187.101 360.721 187.83 360.363 188.37 359.646C188.911 358.924 189.181 357.915 189.181 356.619C189.181 355.46 188.904 354.523 188.351 353.807C187.804 353.084 187.075 352.723 186.163 352.723C185.271 352.723 184.552 353.077 184.005 353.787C183.458 354.497 183.185 355.512 183.185 356.834ZM202.496 362H200.689V352.928H195.826V362H194.009V351.434H202.496V362ZM214.922 356.834C214.922 358.442 214.554 359.738 213.818 360.721C213.083 361.704 212.087 362.195 210.83 362.195C209.548 362.195 208.538 361.788 207.803 360.975V366.062H205.996V351.434H207.646L207.734 352.605C208.47 351.694 209.492 351.238 210.801 351.238C212.07 351.238 213.073 351.717 213.809 352.674C214.551 353.631 214.922 354.962 214.922 356.668V356.834ZM213.115 356.629C213.115 355.438 212.861 354.497 212.354 353.807C211.846 353.117 211.149 352.771 210.264 352.771C209.17 352.771 208.35 353.257 207.803 354.227V359.275C208.343 360.239 209.17 360.721 210.283 360.721C211.149 360.721 211.836 360.379 212.344 359.695C212.858 359.005 213.115 357.983 213.115 356.629ZM224.662 351.434H226.469V362H224.662V354.295L219.789 362H217.983V351.434H219.789V359.148L224.662 351.434ZM238.046 351.434V362H236.229V357.889H233.505L231.014 362H229.061L231.718 357.615C231.04 357.368 230.52 356.987 230.155 356.473C229.797 355.952 229.618 355.346 229.618 354.656C229.618 353.693 229.979 352.918 230.702 352.332C231.425 351.74 232.391 351.44 233.602 351.434H238.046ZM231.434 354.676C231.434 355.19 231.61 355.607 231.962 355.926C232.313 356.238 232.779 356.398 233.358 356.404H236.229V352.898H233.632C232.961 352.898 232.427 353.064 232.03 353.396C231.633 353.722 231.434 354.148 231.434 354.676ZM249.398 352.898H245.853V362H244.046V352.898H240.57V351.434H249.398V352.898ZM258.591 351.434H260.398V362H258.591V354.295L253.718 362H251.912V351.434H253.718V359.148L258.591 351.434ZM270.734 351.434H272.541V362H270.734V354.295L265.861 362H264.055V351.434H265.861V359.148L270.734 351.434ZM271.223 347.586C271.223 348.374 270.952 349.008 270.412 349.49C269.878 349.965 269.175 350.203 268.303 350.203C267.43 350.203 266.724 349.962 266.184 349.48C265.643 348.999 265.373 348.367 265.373 347.586H266.848C266.848 348.042 266.971 348.4 267.219 348.66C267.466 348.914 267.827 349.041 268.303 349.041C268.758 349.041 269.113 348.914 269.367 348.66C269.628 348.406 269.758 348.048 269.758 347.586H271.223Z" fill="white"/>
<rect x="46" y="283" width="80" height="80" fill="#E20000"/>
<path d="M79.9803 313C80.7697 314.184 81.1645 315.566 81.1645 317.145C81.1645 318.822 80.7697 320.105 79.8816 321.191C79.3882 321.783 78.6974 322.276 77.8092 322.77C79.1908 323.263 80.2763 324.053 80.9671 325.138C81.6579 326.224 82.0526 327.605 82.0526 329.086C82.0526 330.665 81.6579 332.145 80.8684 333.428C80.375 334.316 79.6842 335.007 78.8947 335.599C78.0066 336.29 77.0197 336.684 75.8355 336.98C74.6513 337.276 73.3684 337.375 71.9868 337.375H59.75V310.04H72.875C76.2303 310.138 78.5987 311.125 79.9803 313ZM65.1776 314.776V320.796H71.7895C72.9737 320.796 73.9605 320.599 74.6513 320.105C75.3421 319.612 75.7368 318.822 75.7368 317.737C75.7368 316.454 75.2434 315.665 74.2566 315.27C73.3684 314.974 72.3816 314.875 71 314.875H65.1776V314.776ZM65.1776 325.336V332.638H71.7895C72.9737 332.638 73.8618 332.441 74.5526 332.145C75.7368 331.553 76.3289 330.467 76.3289 328.79C76.3289 327.408 75.7368 326.421 74.5526 325.829C73.8618 325.533 72.9737 325.336 71.7895 325.336H65.1776Z" fill="white"/>
<path d="M111.164 329.382C110.671 330.961 109.98 332.243 109.092 333.23L112.25 336.191L109.289 339.25L106.033 336.191C105.046 336.783 104.158 337.178 103.467 337.474C102.283 337.868 100.803 338.066 99.125 338.066C95.5723 338.066 92.6118 336.98 90.3421 334.908C87.5789 332.342 86.0986 328.592 86.0986 323.658C86.0986 318.724 87.5789 314.974 90.4407 312.408C92.6118 310.336 95.5723 309.25 99.0263 309.25C102.579 309.25 105.539 310.336 107.908 312.507C110.671 315.072 112.053 318.625 112.053 323.263C112.053 325.632 111.757 327.704 111.164 329.382ZM100.803 333.033C101.099 332.934 101.592 332.836 102.085 332.539L99.3223 329.875L102.283 326.816L105.046 329.382C105.441 328.493 105.737 327.704 105.934 327.013C106.23 326.026 106.329 324.842 106.329 323.559C106.329 320.5 105.737 318.132 104.454 316.454C103.171 314.776 101.395 313.987 99.0263 313.987C96.7565 313.987 94.9802 314.776 93.5986 316.355C92.2171 317.934 91.6249 320.303 91.6249 323.559C91.6249 327.309 92.6118 329.974 94.4868 331.553C95.7697 332.638 97.2499 333.132 98.9276 333.132C99.6184 333.23 100.21 333.132 100.803 333.033Z" fill="white"/>
<path d="M144.285 309V283.406H153.25C156.355 283.406 158.711 284.004 160.316 285.199C161.922 286.383 162.725 288.123 162.725 290.42C162.725 291.674 162.402 292.781 161.758 293.742C161.113 294.691 160.217 295.389 159.068 295.834C160.381 296.162 161.412 296.824 162.162 297.82C162.924 298.816 163.305 300.035 163.305 301.477C163.305 303.938 162.52 305.801 160.949 307.066C159.379 308.332 157.141 308.977 154.234 309H144.285ZM149.559 297.855V304.764H154.076C155.318 304.764 156.285 304.471 156.977 303.885C157.68 303.287 158.031 302.467 158.031 301.424C158.031 299.08 156.818 297.891 154.393 297.855H149.559ZM149.559 294.129H153.461C156.121 294.082 157.451 293.021 157.451 290.947C157.451 289.787 157.111 288.955 156.432 288.451C155.764 287.936 154.703 287.678 153.25 287.678H149.559V294.129ZM184.476 297.908H174.351V304.764H186.234V309H169.077V283.406H186.198V287.678H174.351V293.777H184.476V297.908ZM204.399 302.285C204.399 301.289 204.047 300.527 203.344 300C202.641 299.461 201.375 298.898 199.547 298.312C197.719 297.715 196.272 297.129 195.205 296.555C192.299 294.984 190.846 292.869 190.846 290.209C190.846 288.826 191.233 287.596 192.006 286.518C192.791 285.428 193.911 284.578 195.364 283.969C196.829 283.359 198.469 283.055 200.286 283.055C202.114 283.055 203.743 283.389 205.172 284.057C206.602 284.713 207.709 285.645 208.495 286.852C209.291 288.059 209.69 289.43 209.69 290.965H204.416C204.416 289.793 204.047 288.885 203.309 288.24C202.571 287.584 201.534 287.256 200.198 287.256C198.909 287.256 197.907 287.531 197.192 288.082C196.477 288.621 196.12 289.336 196.12 290.227C196.12 291.059 196.536 291.756 197.368 292.318C198.211 292.881 199.448 293.408 201.077 293.9C204.077 294.803 206.262 295.922 207.633 297.258C209.004 298.594 209.69 300.258 209.69 302.25C209.69 304.465 208.852 306.205 207.176 307.471C205.5 308.725 203.245 309.352 200.409 309.352C198.44 309.352 196.647 308.994 195.03 308.279C193.412 307.553 192.176 306.562 191.321 305.309C190.477 304.055 190.055 302.602 190.055 300.949H195.346C195.346 303.773 197.034 305.186 200.409 305.186C201.662 305.186 202.641 304.934 203.344 304.43C204.047 303.914 204.399 303.199 204.399 302.285ZM234.341 287.678H226.502V309H221.228V287.678H213.494V283.406H234.341V287.678ZM269.863 296.783C269.863 299.174 269.477 301.254 268.703 303.023C267.93 304.781 266.857 306.193 265.486 307.26L269.74 310.6L266.383 313.57L260.934 309.193C260.312 309.299 259.668 309.352 259 309.352C256.879 309.352 254.986 308.842 253.322 307.822C251.658 306.803 250.369 305.35 249.455 303.463C248.541 301.564 248.078 299.385 248.066 296.924V295.658C248.066 293.139 248.518 290.924 249.42 289.014C250.334 287.092 251.617 285.621 253.27 284.602C254.934 283.57 256.832 283.055 258.965 283.055C261.098 283.055 262.99 283.57 264.643 284.602C266.307 285.621 267.59 287.092 268.492 289.014C269.406 290.924 269.863 293.133 269.863 295.641V296.783ZM264.52 295.623C264.52 292.939 264.039 290.9 263.078 289.506C262.117 288.111 260.746 287.414 258.965 287.414C257.195 287.414 255.83 288.105 254.869 289.488C253.908 290.859 253.422 292.875 253.41 295.535V296.783C253.41 299.396 253.891 301.424 254.852 302.865C255.812 304.307 257.195 305.027 259 305.027C260.77 305.027 262.129 304.336 263.078 302.953C264.027 301.559 264.508 299.531 264.52 296.871V295.623ZM294.902 283.406V300.264C294.902 303.064 294.023 305.279 292.265 306.908C290.519 308.537 288.128 309.352 285.093 309.352C282.105 309.352 279.732 308.561 277.974 306.979C276.216 305.396 275.32 303.223 275.284 300.457V283.406H280.558V300.299C280.558 301.975 280.956 303.199 281.753 303.973C282.562 304.734 283.675 305.115 285.093 305.115C288.058 305.115 289.564 303.557 289.611 300.439V283.406H294.902ZM316.424 297.908H306.299V304.764H318.182V309H301.026V283.406H318.147V287.678H306.299V293.777H316.424V297.908ZM336.347 302.285C336.347 301.289 335.996 300.527 335.293 300C334.589 299.461 333.324 298.898 331.496 298.312C329.668 297.715 328.22 297.129 327.154 296.555C324.248 294.984 322.795 292.869 322.795 290.209C322.795 288.826 323.181 287.596 323.955 286.518C324.74 285.428 325.859 284.578 327.312 283.969C328.777 283.359 330.418 283.055 332.234 283.055C334.062 283.055 335.691 283.389 337.121 284.057C338.55 284.713 339.658 285.645 340.443 286.852C341.24 288.059 341.638 289.43 341.638 290.965H336.365C336.365 289.793 335.996 288.885 335.257 288.24C334.519 287.584 333.482 287.256 332.146 287.256C330.857 287.256 329.855 287.531 329.14 288.082C328.425 288.621 328.068 289.336 328.068 290.227C328.068 291.059 328.484 291.756 329.316 292.318C330.16 292.881 331.396 293.408 333.025 293.9C336.025 294.803 338.211 295.922 339.582 297.258C340.953 298.594 341.638 300.258 341.638 302.25C341.638 304.465 340.8 306.205 339.125 307.471C337.449 308.725 335.193 309.352 332.357 309.352C330.388 309.352 328.595 308.994 326.978 308.279C325.361 307.553 324.125 306.562 323.269 305.309C322.425 304.055 322.004 302.602 322.004 300.949H327.295C327.295 303.773 328.982 305.186 332.357 305.186C333.611 305.186 334.589 304.934 335.293 304.43C335.996 303.914 336.347 303.199 336.347 302.285ZM366.29 287.678H358.45V309H353.177V287.678H345.442V283.406H366.29V287.678Z" fill="#E20000"/>
<path d="M143.87 659C143.757 659 143.66 658.966 143.581 658.898C143.513 658.819 143.479 658.722 143.479 658.609V647.508C143.479 647.383 143.513 647.287 143.581 647.219C143.66 647.14 143.757 647.1 143.87 647.1H152.251C152.376 647.1 152.472 647.14 152.54 647.219C152.619 647.287 152.659 647.383 152.659 647.508V658.609C152.659 658.722 152.619 658.819 152.54 658.898C152.461 658.966 152.364 659 152.251 659H151.384C151.271 659 151.174 658.966 151.095 658.898C151.027 658.819 150.993 658.722 150.993 658.609V648.63H145.145V658.609C145.145 658.722 145.105 658.819 145.026 658.898C144.947 658.966 144.85 659 144.737 659H143.87ZM159.015 659.17C157.768 659.17 156.799 658.819 156.108 658.116C155.428 657.413 155.065 656.478 155.02 655.311L155.003 654.58L155.02 653.849C155.065 652.693 155.433 651.764 156.125 651.061C156.816 650.347 157.779 649.99 159.015 649.99C160.25 649.99 161.213 650.347 161.905 651.061C162.596 651.764 162.964 652.693 163.01 653.849C163.021 653.974 163.027 654.217 163.027 654.58C163.027 654.943 163.021 655.186 163.01 655.311C162.964 656.478 162.596 657.413 161.905 658.116C161.225 658.819 160.261 659.17 159.015 659.17ZM159.015 657.861C159.729 657.861 160.29 657.634 160.698 657.181C161.117 656.728 161.344 656.076 161.378 655.226C161.389 655.113 161.395 654.897 161.395 654.58C161.395 654.263 161.389 654.047 161.378 653.934C161.344 653.084 161.117 652.432 160.698 651.979C160.29 651.526 159.729 651.299 159.015 651.299C158.301 651.299 157.734 651.526 157.315 651.979C156.895 652.432 156.674 653.084 156.652 653.934L156.635 654.58L156.652 655.226C156.674 656.076 156.895 656.728 157.315 657.181C157.734 657.634 158.301 657.861 159.015 657.861ZM164.645 660.87C164.532 660.87 164.436 660.83 164.356 660.751C164.288 660.683 164.254 660.592 164.254 660.479V658.031C164.254 657.918 164.288 657.827 164.356 657.759C164.436 657.68 164.532 657.64 164.645 657.64H164.73C165.206 657.629 165.563 657.232 165.801 656.45C166.051 655.668 166.175 654.427 166.175 652.727V650.551C166.175 650.438 166.209 650.347 166.277 650.279C166.357 650.2 166.453 650.16 166.566 650.16H171.989C172.103 650.16 172.193 650.2 172.261 650.279C172.341 650.347 172.38 650.438 172.38 650.551V657.606H173.179C173.293 657.606 173.383 657.646 173.451 657.725C173.531 657.793 173.57 657.884 173.57 657.997V660.479C173.57 660.592 173.531 660.683 173.451 660.751C173.383 660.83 173.293 660.87 173.179 660.87H172.38C172.267 660.87 172.171 660.83 172.091 660.751C172.023 660.683 171.989 660.592 171.989 660.479V659H165.835V660.479C165.835 660.592 165.796 660.683 165.716 660.751C165.648 660.83 165.558 660.87 165.444 660.87H164.645ZM170.799 657.606V651.52H167.722V652.914C167.722 655.181 167.399 656.756 166.753 657.64L170.799 657.606ZM178.052 659C177.938 659 177.842 658.966 177.763 658.898C177.695 658.819 177.661 658.722 177.661 658.609V651.52H174.703C174.589 651.52 174.493 651.486 174.414 651.418C174.346 651.339 174.312 651.242 174.312 651.129V650.551C174.312 650.438 174.346 650.347 174.414 650.279C174.493 650.2 174.589 650.16 174.703 650.16H182.183C182.296 650.16 182.387 650.2 182.455 650.279C182.534 650.347 182.574 650.438 182.574 650.551V651.129C182.574 651.242 182.534 651.339 182.455 651.418C182.387 651.486 182.296 651.52 182.183 651.52H179.225V658.609C179.225 658.722 179.191 658.819 179.123 658.898C179.055 658.966 178.964 659 178.851 659H178.052ZM184.439 659C184.326 659 184.229 658.966 184.15 658.898C184.082 658.819 184.048 658.722 184.048 658.609V650.551C184.048 650.438 184.082 650.347 184.15 650.279C184.229 650.2 184.326 650.16 184.439 650.16H187.975C189.018 650.16 189.811 650.375 190.355 650.806C190.91 651.225 191.188 651.803 191.188 652.54C191.188 653.027 191.097 653.407 190.916 653.679C190.735 653.94 190.457 654.166 190.083 654.359C190.491 654.529 190.808 654.812 191.035 655.209C191.273 655.606 191.392 656.031 191.392 656.484C191.392 657.3 191.103 657.923 190.525 658.354C189.958 658.785 189.154 659 188.111 659H184.439ZM187.873 653.917C188.428 653.917 188.865 653.798 189.182 653.56C189.499 653.322 189.658 652.988 189.658 652.557C189.658 652.138 189.505 651.843 189.199 651.673C188.893 651.492 188.451 651.401 187.873 651.401H185.612V653.917H187.873ZM187.975 657.759C188.542 657.759 188.984 657.651 189.301 657.436C189.63 657.221 189.794 656.903 189.794 656.484C189.794 656.031 189.647 655.702 189.352 655.498C189.057 655.283 188.598 655.175 187.975 655.175H185.612V657.759H187.975ZM197.113 659.17C195.946 659.17 195.011 658.813 194.308 658.099C193.617 657.374 193.237 656.388 193.169 655.141L193.152 654.563L193.169 654.002C193.249 652.778 193.634 651.803 194.325 651.078C195.028 650.353 195.952 649.99 197.096 649.99C198.354 649.99 199.329 650.392 200.02 651.197C200.712 651.99 201.057 653.067 201.057 654.427V654.716C201.057 654.829 201.018 654.926 200.938 655.005C200.87 655.073 200.78 655.107 200.666 655.107H194.784V655.26C194.818 655.997 195.039 656.626 195.447 657.147C195.867 657.657 196.416 657.912 197.096 657.912C197.618 657.912 198.043 657.81 198.371 657.606C198.711 657.391 198.961 657.17 199.119 656.943C199.221 656.807 199.295 656.728 199.34 656.705C199.397 656.671 199.493 656.654 199.629 656.654H200.462C200.564 656.654 200.649 656.682 200.717 656.739C200.785 656.796 200.819 656.875 200.819 656.977C200.819 657.226 200.661 657.527 200.343 657.878C200.037 658.229 199.601 658.535 199.034 658.796C198.479 659.045 197.839 659.17 197.113 659.17ZM199.442 653.934V653.883C199.442 653.101 199.227 652.466 198.796 651.979C198.377 651.48 197.81 651.231 197.096 651.231C196.382 651.231 195.816 651.48 195.396 651.979C194.988 652.466 194.784 653.101 194.784 653.883V653.934H199.442ZM203.498 662.23C203.385 662.23 203.288 662.19 203.209 662.111C203.141 662.043 203.107 661.952 203.107 661.839V650.551C203.107 650.438 203.141 650.347 203.209 650.279C203.288 650.2 203.385 650.16 203.498 650.16H204.28C204.393 650.16 204.484 650.2 204.552 650.279C204.631 650.347 204.671 650.438 204.671 650.551V651.299C205.306 650.426 206.235 649.99 207.459 649.99C208.649 649.99 209.539 650.364 210.128 651.112C210.729 651.86 211.052 652.823 211.097 654.002C211.108 654.127 211.114 654.319 211.114 654.58C211.114 654.841 211.108 655.033 211.097 655.158C211.052 656.325 210.729 657.289 210.128 658.048C209.527 658.796 208.638 659.17 207.459 659.17C206.28 659.17 205.362 658.745 204.705 657.895V661.839C204.705 661.952 204.671 662.043 204.603 662.111C204.535 662.19 204.444 662.23 204.331 662.23H203.498ZM207.102 657.793C207.907 657.793 208.49 657.544 208.853 657.045C209.227 656.546 209.431 655.889 209.465 655.073C209.476 654.96 209.482 654.795 209.482 654.58C209.482 652.438 208.689 651.367 207.102 651.367C206.32 651.367 205.731 651.628 205.334 652.149C204.949 652.659 204.739 653.271 204.705 653.985L204.688 654.631L204.705 655.294C204.728 655.963 204.943 656.546 205.351 657.045C205.759 657.544 206.343 657.793 207.102 657.793ZM212.707 660.87C212.594 660.87 212.497 660.83 212.418 660.751C212.35 660.683 212.316 660.592 212.316 660.479V658.031C212.316 657.918 212.35 657.827 212.418 657.759C212.497 657.68 212.594 657.64 212.707 657.64H212.792C213.268 657.629 213.625 657.232 213.863 656.45C214.112 655.668 214.237 654.427 214.237 652.727V650.551C214.237 650.438 214.271 650.347 214.339 650.279C214.418 650.2 214.515 650.16 214.628 650.16H220.051C220.164 650.16 220.255 650.2 220.323 650.279C220.402 650.347 220.442 650.438 220.442 650.551V657.606H221.241C221.354 657.606 221.445 657.646 221.513 657.725C221.592 657.793 221.632 657.884 221.632 657.997V660.479C221.632 660.592 221.592 660.683 221.513 660.751C221.445 660.83 221.354 660.87 221.241 660.87H220.442C220.329 660.87 220.232 660.83 220.153 660.751C220.085 660.683 220.051 660.592 220.051 660.479V659H213.897V660.479C213.897 660.592 213.857 660.683 213.778 660.751C213.71 660.83 213.619 660.87 213.506 660.87H212.707ZM218.861 657.606V651.52H215.784V652.914C215.784 655.181 215.461 656.756 214.815 657.64L218.861 657.606ZM230.924 650.16C231.015 650.16 231.094 650.194 231.162 650.262C231.242 650.33 231.281 650.409 231.281 650.5V658.609C231.281 658.722 231.242 658.819 231.162 658.898C231.094 658.966 231.004 659 230.89 659H230.091C229.978 659 229.882 658.966 229.802 658.898C229.734 658.819 229.7 658.722 229.7 658.609V652.438L224.991 658.745C224.867 658.915 224.719 659 224.549 659H223.784C223.682 659 223.592 658.966 223.512 658.898C223.444 658.819 223.41 658.734 223.41 658.643V650.551C223.41 650.438 223.444 650.347 223.512 650.279C223.592 650.2 223.688 650.16 223.801 650.16H224.617C224.731 650.16 224.821 650.2 224.889 650.279C224.969 650.347 225.008 650.438 225.008 650.551V656.688L229.7 650.415C229.825 650.245 229.972 650.16 230.142 650.16H230.924ZM236.473 659C236.359 659 236.263 658.966 236.184 658.898C236.116 658.819 236.082 658.722 236.082 658.609V651.52H233.124C233.01 651.52 232.914 651.486 232.835 651.418C232.767 651.339 232.733 651.242 232.733 651.129V650.551C232.733 650.438 232.767 650.347 232.835 650.279C232.914 650.2 233.01 650.16 233.124 650.16H240.604C240.717 650.16 240.808 650.2 240.876 650.279C240.955 650.347 240.995 650.438 240.995 650.551V651.129C240.995 651.242 240.955 651.339 240.876 651.418C240.808 651.486 240.717 651.52 240.604 651.52H237.646V658.609C237.646 658.722 237.612 658.819 237.544 658.898C237.476 658.966 237.385 659 237.272 659H236.473ZM246.005 659.17C244.838 659.17 243.903 658.813 243.2 658.099C242.509 657.374 242.129 656.388 242.061 655.141L242.044 654.563L242.061 654.002C242.14 652.778 242.526 651.803 243.217 651.078C243.92 650.353 244.843 649.99 245.988 649.99C247.246 649.99 248.221 650.392 248.912 651.197C249.603 651.99 249.949 653.067 249.949 654.427V654.716C249.949 654.829 249.909 654.926 249.83 655.005C249.762 655.073 249.671 655.107 249.558 655.107H243.676V655.26C243.71 655.997 243.931 656.626 244.339 657.147C244.758 657.657 245.308 657.912 245.988 657.912C246.509 657.912 246.934 657.81 247.263 657.606C247.603 657.391 247.852 657.17 248.011 656.943C248.113 656.807 248.187 656.728 248.232 656.705C248.289 656.671 248.385 656.654 248.521 656.654H249.354C249.456 656.654 249.541 656.682 249.609 656.739C249.677 656.796 249.711 656.875 249.711 656.977C249.711 657.226 249.552 657.527 249.235 657.878C248.929 658.229 248.493 658.535 247.926 658.796C247.371 659.045 246.73 659.17 246.005 659.17ZM248.334 653.934V653.883C248.334 653.101 248.119 652.466 247.688 651.979C247.269 651.48 246.702 651.231 245.988 651.231C245.274 651.231 244.707 651.48 244.288 651.979C243.88 652.466 243.676 653.101 243.676 653.883V653.934H248.334ZM261.725 659C261.611 659 261.515 658.966 261.436 658.898C261.368 658.819 261.334 658.722 261.334 658.609V655.413C260.756 655.957 259.889 656.229 258.733 656.229C257.701 656.229 256.919 656.002 256.387 655.549C255.854 655.096 255.588 654.387 255.588 653.424V650.551C255.588 650.438 255.622 650.347 255.69 650.279C255.769 650.2 255.865 650.16 255.979 650.16H256.812C256.925 650.16 257.016 650.2 257.084 650.279C257.163 650.347 257.203 650.438 257.203 650.551V653.322C257.203 653.832 257.35 654.206 257.645 654.444C257.939 654.671 258.404 654.784 259.039 654.784C259.775 654.784 260.342 654.693 260.739 654.512C261.135 654.331 261.334 654.025 261.334 653.594V650.551C261.334 650.438 261.368 650.347 261.436 650.279C261.515 650.2 261.611 650.16 261.725 650.16H262.575C262.688 650.16 262.779 650.2 262.847 650.279C262.926 650.347 262.966 650.438 262.966 650.551V658.609C262.966 658.722 262.926 658.819 262.847 658.898C262.779 658.966 262.688 659 262.575 659H261.725ZM268.198 659C268.085 659 267.989 658.966 267.909 658.898C267.841 658.819 267.807 658.722 267.807 658.609V651.52H264.849C264.736 651.52 264.64 651.486 264.56 651.418C264.492 651.339 264.458 651.242 264.458 651.129V650.551C264.458 650.438 264.492 650.347 264.56 650.279C264.64 650.2 264.736 650.16 264.849 650.16H272.329C272.443 650.16 272.533 650.2 272.601 650.279C272.681 650.347 272.72 650.438 272.72 650.551V651.129C272.72 651.242 272.681 651.339 272.601 651.418C272.533 651.486 272.443 651.52 272.329 651.52H269.371V658.609C269.371 658.722 269.337 658.819 269.269 658.898C269.201 658.966 269.111 659 268.997 659H268.198ZM277.816 659.17C276.569 659.17 275.6 658.819 274.909 658.116C274.229 657.413 273.866 656.478 273.821 655.311L273.804 654.58L273.821 653.849C273.866 652.693 274.234 651.764 274.926 651.061C275.617 650.347 276.58 649.99 277.816 649.99C279.051 649.99 280.014 650.347 280.706 651.061C281.397 651.764 281.765 652.693 281.811 653.849C281.822 653.974 281.828 654.217 281.828 654.58C281.828 654.943 281.822 655.186 281.811 655.311C281.765 656.478 281.397 657.413 280.706 658.116C280.026 658.819 279.062 659.17 277.816 659.17ZM277.816 657.861C278.53 657.861 279.091 657.634 279.499 657.181C279.918 656.728 280.145 656.076 280.179 655.226C280.19 655.113 280.196 654.897 280.196 654.58C280.196 654.263 280.19 654.047 280.179 653.934C280.145 653.084 279.918 652.432 279.499 651.979C279.091 651.526 278.53 651.299 277.816 651.299C277.102 651.299 276.535 651.526 276.116 651.979C275.696 652.432 275.475 653.084 275.453 653.934L275.436 654.58L275.453 655.226C275.475 656.076 275.696 656.728 276.116 657.181C276.535 657.634 277.102 657.861 277.816 657.861ZM288.514 659C288.401 659 288.305 658.966 288.225 658.898C288.157 658.819 288.123 658.722 288.123 658.609V650.551C288.123 650.438 288.157 650.347 288.225 650.279C288.305 650.2 288.401 650.16 288.514 650.16H292.05C293.093 650.16 293.886 650.375 294.43 650.806C294.986 651.225 295.263 651.803 295.263 652.54C295.263 653.027 295.173 653.407 294.991 653.679C294.81 653.94 294.532 654.166 294.158 654.359C294.566 654.529 294.884 654.812 295.11 655.209C295.348 655.606 295.467 656.031 295.467 656.484C295.467 657.3 295.178 657.923 294.6 658.354C294.034 658.785 293.229 659 292.186 659H288.514ZM291.948 653.917C292.504 653.917 292.94 653.798 293.257 653.56C293.575 653.322 293.733 652.988 293.733 652.557C293.733 652.138 293.58 651.843 293.274 651.673C292.968 651.492 292.526 651.401 291.948 651.401H289.687V653.917H291.948ZM292.05 657.759C292.617 657.759 293.059 657.651 293.376 657.436C293.705 657.221 293.869 656.903 293.869 656.484C293.869 656.031 293.722 655.702 293.427 655.498C293.133 655.283 292.674 655.175 292.05 655.175H289.687V657.759H292.05ZM298.044 659C297.93 659 297.834 658.966 297.755 658.898C297.687 658.819 297.653 658.722 297.653 658.609V650.551C297.653 650.438 297.687 650.347 297.755 650.279C297.834 650.2 297.93 650.16 298.044 650.16H298.86C298.973 650.16 299.064 650.2 299.132 650.279C299.211 650.347 299.251 650.438 299.251 650.551V653.05H301.019C302.141 653.05 302.974 653.316 303.518 653.849C304.073 654.37 304.351 655.113 304.351 656.076C304.351 657.073 304.056 657.81 303.467 658.286C302.889 658.762 302.005 659 300.815 659H298.044ZM305.949 659C305.835 659 305.739 658.966 305.66 658.898C305.592 658.819 305.558 658.722 305.558 658.609V650.551C305.558 650.438 305.592 650.347 305.66 650.279C305.739 650.2 305.835 650.16 305.949 650.16H306.765C306.878 650.16 306.969 650.2 307.037 650.279C307.116 650.347 307.156 650.438 307.156 650.551V658.609C307.156 658.722 307.116 658.819 307.037 658.898C306.969 658.966 306.878 659 306.765 659H305.949ZM300.866 657.725C301.568 657.725 302.073 657.6 302.379 657.351C302.696 657.102 302.855 656.677 302.855 656.076C302.855 655.475 302.696 655.033 302.379 654.75C302.073 654.467 301.568 654.325 300.866 654.325H299.234V657.725H300.866ZM314.247 659C314.133 659 314.037 658.966 313.958 658.898C313.89 658.819 313.856 658.722 313.856 658.609V650.551C313.856 650.438 313.89 650.347 313.958 650.279C314.037 650.2 314.133 650.16 314.247 650.16H315.063C315.176 650.16 315.267 650.2 315.335 650.279C315.414 650.347 315.454 650.438 315.454 650.551V653.815H320.078V650.551C320.078 650.438 320.112 650.347 320.18 650.279C320.259 650.2 320.355 650.16 320.469 650.16H321.268C321.381 650.16 321.472 650.2 321.54 650.279C321.619 650.347 321.659 650.438 321.659 650.551V658.609C321.659 658.722 321.619 658.819 321.54 658.898C321.472 658.966 321.381 659 321.268 659H320.469C320.355 659 320.259 658.966 320.18 658.898C320.112 658.819 320.078 658.722 320.078 658.609V655.175H315.454V658.609C315.454 658.722 315.414 658.819 315.335 658.898C315.267 658.966 315.176 659 315.063 659H314.247ZM327.751 659.17C326.584 659.17 325.649 658.813 324.946 658.099C324.255 657.374 323.875 656.388 323.807 655.141L323.79 654.563L323.807 654.002C323.886 652.778 324.272 651.803 324.963 651.078C325.666 650.353 326.589 649.99 327.734 649.99C328.992 649.99 329.967 650.392 330.658 651.197C331.349 651.99 331.695 653.067 331.695 654.427V654.716C331.695 654.829 331.655 654.926 331.576 655.005C331.508 655.073 331.417 655.107 331.304 655.107H325.422V655.26C325.456 655.997 325.677 656.626 326.085 657.147C326.504 657.657 327.054 657.912 327.734 657.912C328.255 657.912 328.68 657.81 329.009 657.606C329.349 657.391 329.598 657.17 329.757 656.943C329.859 656.807 329.933 656.728 329.978 656.705C330.035 656.671 330.131 656.654 330.267 656.654H331.1C331.202 656.654 331.287 656.682 331.355 656.739C331.423 656.796 331.457 656.875 331.457 656.977C331.457 657.226 331.298 657.527 330.981 657.878C330.675 658.229 330.239 658.535 329.672 658.796C329.117 659.045 328.476 659.17 327.751 659.17ZM330.08 653.934V653.883C330.08 653.101 329.865 652.466 329.434 651.979C329.015 651.48 328.448 651.231 327.734 651.231C327.02 651.231 326.453 651.48 326.034 651.979C325.626 652.466 325.422 653.101 325.422 653.883V653.934H330.08ZM143.666 682.23C143.553 682.23 143.456 682.19 143.377 682.111C143.309 682.043 143.275 681.952 143.275 681.839V670.551C143.275 670.438 143.309 670.347 143.377 670.279C143.456 670.2 143.553 670.16 143.666 670.16H144.448C144.561 670.16 144.652 670.2 144.72 670.279C144.799 670.347 144.839 670.438 144.839 670.551V671.299C145.474 670.426 146.403 669.99 147.627 669.99C148.817 669.99 149.707 670.364 150.296 671.112C150.897 671.86 151.22 672.823 151.265 674.002C151.276 674.127 151.282 674.319 151.282 674.58C151.282 674.841 151.276 675.033 151.265 675.158C151.22 676.325 150.897 677.289 150.296 678.048C149.695 678.796 148.806 679.17 147.627 679.17C146.448 679.17 145.53 678.745 144.873 677.895V681.839C144.873 681.952 144.839 682.043 144.771 682.111C144.703 682.19 144.612 682.23 144.499 682.23H143.666ZM147.27 677.793C148.075 677.793 148.658 677.544 149.021 677.045C149.395 676.546 149.599 675.889 149.633 675.073C149.644 674.96 149.65 674.795 149.65 674.58C149.65 672.438 148.857 671.367 147.27 671.367C146.488 671.367 145.899 671.628 145.502 672.149C145.117 672.659 144.907 673.271 144.873 673.985L144.856 674.631L144.873 675.294C144.896 675.963 145.111 676.546 145.519 677.045C145.927 677.544 146.511 677.793 147.27 677.793ZM157.006 679.17C155.759 679.17 154.79 678.819 154.099 678.116C153.419 677.413 153.056 676.478 153.011 675.311L152.994 674.58L153.011 673.849C153.056 672.693 153.425 671.764 154.116 671.061C154.807 670.347 155.771 669.99 157.006 669.99C158.241 669.99 159.205 670.347 159.896 671.061C160.587 671.764 160.956 672.693 161.001 673.849C161.012 673.974 161.018 674.217 161.018 674.58C161.018 674.943 161.012 675.186 161.001 675.311C160.956 676.478 160.587 677.413 159.896 678.116C159.216 678.819 158.253 679.17 157.006 679.17ZM157.006 677.861C157.72 677.861 158.281 677.634 158.689 677.181C159.108 676.728 159.335 676.076 159.369 675.226C159.38 675.113 159.386 674.897 159.386 674.58C159.386 674.263 159.38 674.047 159.369 673.934C159.335 673.084 159.108 672.432 158.689 671.979C158.281 671.526 157.72 671.299 157.006 671.299C156.292 671.299 155.725 671.526 155.306 671.979C154.887 672.432 154.666 673.084 154.643 673.934L154.626 674.58L154.643 675.226C154.666 676.076 154.887 676.728 155.306 677.181C155.725 677.634 156.292 677.861 157.006 677.861ZM170.882 674.376C170.893 674.489 170.899 674.671 170.899 674.92C170.899 675.135 170.893 675.288 170.882 675.379C170.836 676.524 170.468 677.442 169.777 678.133C169.097 678.824 168.133 679.17 166.887 679.17C165.606 679.17 164.631 678.807 163.963 678.082C163.294 677.357 162.937 676.359 162.892 675.09L162.875 674.07L162.892 673.05C162.903 671.429 163.118 670.217 163.538 669.412C163.968 668.596 164.575 668.012 165.357 667.661C166.15 667.298 167.431 666.885 169.199 666.42L169.607 666.318L169.692 666.301C169.782 666.301 169.862 666.335 169.93 666.403C170.009 666.46 170.054 666.528 170.066 666.607L170.202 667.304L170.219 667.406C170.219 667.485 170.19 667.553 170.134 667.61C170.088 667.667 170.02 667.706 169.93 667.729L169.08 667.933C167.776 668.25 166.841 668.522 166.275 668.749C165.708 668.976 165.266 669.333 164.949 669.82C164.643 670.296 164.473 671.01 164.439 671.962C164.711 671.554 165.096 671.225 165.595 670.976C166.093 670.715 166.62 670.585 167.176 670.585C168.32 670.585 169.21 670.936 169.845 671.639C170.491 672.33 170.836 673.243 170.882 674.376ZM169.25 675.311C169.261 675.232 169.267 675.101 169.267 674.92C169.267 674.716 169.261 674.563 169.25 674.461C169.227 673.634 169.012 672.993 168.604 672.54C168.207 672.075 167.686 671.843 167.04 671.843C166.314 671.843 165.719 672.075 165.255 672.54C164.801 672.993 164.558 673.634 164.524 674.461L164.507 674.92L164.524 675.311C164.558 676.15 164.784 676.796 165.204 677.249C165.623 677.691 166.184 677.912 166.887 677.912C167.601 677.912 168.167 677.691 168.587 677.249C169.006 676.796 169.227 676.15 169.25 675.311ZM176.646 679.17C175.399 679.17 174.43 678.819 173.739 678.116C173.059 677.413 172.696 676.478 172.651 675.311L172.634 674.58L172.651 673.849C172.696 672.693 173.064 671.764 173.756 671.061C174.447 670.347 175.41 669.99 176.646 669.99C177.881 669.99 178.844 670.347 179.536 671.061C180.227 671.764 180.595 672.693 180.641 673.849C180.652 673.974 180.658 674.217 180.658 674.58C180.658 674.943 180.652 675.186 180.641 675.311C180.595 676.478 180.227 677.413 179.536 678.116C178.856 678.819 177.892 679.17 176.646 679.17ZM176.646 677.861C177.36 677.861 177.921 677.634 178.329 677.181C178.748 676.728 178.975 676.076 179.009 675.226C179.02 675.113 179.026 674.897 179.026 674.58C179.026 674.263 179.02 674.047 179.009 673.934C178.975 673.084 178.748 672.432 178.329 671.979C177.921 671.526 177.36 671.299 176.646 671.299C175.932 671.299 175.365 671.526 174.946 671.979C174.526 672.432 174.305 673.084 174.283 673.934L174.266 674.58L174.283 675.226C174.305 676.076 174.526 676.728 174.946 677.181C175.365 677.634 175.932 677.861 176.646 677.861ZM185.489 679C185.376 679 185.28 678.966 185.2 678.898C185.132 678.819 185.098 678.722 185.098 678.609V671.52H182.14C182.027 671.52 181.931 671.486 181.851 671.418C181.783 671.339 181.749 671.242 181.749 671.129V670.551C181.749 670.438 181.783 670.347 181.851 670.279C181.931 670.2 182.027 670.16 182.14 670.16H189.62C189.734 670.16 189.824 670.2 189.892 670.279C189.972 670.347 190.011 670.438 190.011 670.551V671.129C190.011 671.242 189.972 671.339 189.892 671.418C189.824 671.486 189.734 671.52 189.62 671.52H186.662V678.609C186.662 678.722 186.628 678.819 186.56 678.898C186.492 678.966 186.402 679 186.288 679H185.489ZM191.367 680.275C191.276 680.275 191.202 680.241 191.146 680.173C191.1 680.105 191.083 680.02 191.095 679.918L191.486 677.487C191.531 677.158 191.69 676.994 191.962 676.994H193.101C193.18 676.994 193.242 677.022 193.288 677.079C193.344 677.136 193.373 677.204 193.373 677.283C193.373 677.34 193.356 677.43 193.322 677.555L192.421 679.884C192.364 680.02 192.302 680.116 192.234 680.173C192.166 680.241 192.064 680.275 191.928 680.275H191.367ZM200.277 679C200.164 679 200.067 678.966 199.988 678.898C199.92 678.819 199.886 678.722 199.886 678.609V670.551C199.886 670.438 199.92 670.347 199.988 670.279C200.067 670.2 200.164 670.16 200.277 670.16H207.026C207.139 670.16 207.23 670.2 207.298 670.279C207.377 670.347 207.417 670.438 207.417 670.551V678.609C207.417 678.722 207.377 678.819 207.298 678.898C207.23 678.966 207.139 679 207.026 679H206.21C206.097 679 206.006 678.966 205.938 678.898C205.87 678.819 205.836 678.722 205.836 678.609V671.52H201.484V678.609C201.484 678.722 201.444 678.819 201.365 678.898C201.297 678.966 201.206 679 201.093 679H200.277ZM213.482 679.17C212.315 679.17 211.38 678.813 210.677 678.099C209.986 677.374 209.606 676.388 209.538 675.141L209.521 674.563L209.538 674.002C209.618 672.778 210.003 671.803 210.694 671.078C211.397 670.353 212.321 669.99 213.465 669.99C214.723 669.99 215.698 670.392 216.389 671.197C217.081 671.99 217.426 673.067 217.426 674.427V674.716C217.426 674.829 217.387 674.926 217.307 675.005C217.239 675.073 217.149 675.107 217.035 675.107H211.153V675.26C211.187 675.997 211.408 676.626 211.816 677.147C212.236 677.657 212.785 677.912 213.465 677.912C213.987 677.912 214.412 677.81 214.74 677.606C215.08 677.391 215.33 677.17 215.488 676.943C215.59 676.807 215.664 676.728 215.709 676.705C215.766 676.671 215.862 676.654 215.998 676.654H216.831C216.933 676.654 217.018 676.682 217.086 676.739C217.154 676.796 217.188 676.875 217.188 676.977C217.188 677.226 217.03 677.527 216.712 677.878C216.406 678.229 215.97 678.535 215.403 678.796C214.848 679.045 214.208 679.17 213.482 679.17ZM215.811 673.934V673.883C215.811 673.101 215.596 672.466 215.165 671.979C214.746 671.48 214.179 671.231 213.465 671.231C212.751 671.231 212.185 671.48 211.765 671.979C211.357 672.466 211.153 673.101 211.153 673.883V673.934H215.811ZM219.867 682.23C219.754 682.23 219.658 682.19 219.578 682.111C219.51 682.043 219.476 681.952 219.476 681.839V670.551C219.476 670.438 219.51 670.347 219.578 670.279C219.658 670.2 219.754 670.16 219.867 670.16H220.649C220.763 670.16 220.853 670.2 220.921 670.279C221.001 670.347 221.04 670.438 221.04 670.551V671.299C221.675 670.426 222.604 669.99 223.828 669.99C225.018 669.99 225.908 670.364 226.497 671.112C227.098 671.86 227.421 672.823 227.466 674.002C227.478 674.127 227.483 674.319 227.483 674.58C227.483 674.841 227.478 675.033 227.466 675.158C227.421 676.325 227.098 677.289 226.497 678.048C225.897 678.796 225.007 679.17 223.828 679.17C222.65 679.17 221.732 678.745 221.074 677.895V681.839C221.074 681.952 221.04 682.043 220.972 682.111C220.904 682.19 220.814 682.23 220.7 682.23H219.867ZM223.471 677.793C224.276 677.793 224.86 677.544 225.222 677.045C225.596 676.546 225.8 675.889 225.834 675.073C225.846 674.96 225.851 674.795 225.851 674.58C225.851 672.438 225.058 671.367 223.471 671.367C222.689 671.367 222.1 671.628 221.703 672.149C221.318 672.659 221.108 673.271 221.074 673.985L221.057 674.631L221.074 675.294C221.097 675.963 221.312 676.546 221.72 677.045C222.128 677.544 222.712 677.793 223.471 677.793ZM233.122 679.17C231.955 679.17 231.02 678.813 230.317 678.099C229.626 677.374 229.246 676.388 229.178 675.141L229.161 674.563L229.178 674.002C229.257 672.778 229.643 671.803 230.334 671.078C231.037 670.353 231.96 669.99 233.105 669.99C234.363 669.99 235.338 670.392 236.029 671.197C236.72 671.99 237.066 673.067 237.066 674.427V674.716C237.066 674.829 237.026 674.926 236.947 675.005C236.879 675.073 236.788 675.107 236.675 675.107H230.793V675.26C230.827 675.997 231.048 676.626 231.456 677.147C231.875 677.657 232.425 677.912 233.105 677.912C233.626 677.912 234.051 677.81 234.38 677.606C234.72 677.391 234.969 677.17 235.128 676.943C235.23 676.807 235.304 676.728 235.349 676.705C235.406 676.671 235.502 676.654 235.638 676.654H236.471C236.573 676.654 236.658 676.682 236.726 676.739C236.794 676.796 236.828 676.875 236.828 676.977C236.828 677.226 236.669 677.527 236.352 677.878C236.046 678.229 235.61 678.535 235.043 678.796C234.488 679.045 233.847 679.17 233.122 679.17ZM235.451 673.934V673.883C235.451 673.101 235.236 672.466 234.805 671.979C234.386 671.48 233.819 671.231 233.105 671.231C232.391 671.231 231.824 671.48 231.405 671.979C230.997 672.466 230.793 673.101 230.793 673.883V673.934H235.451ZM239.49 679C239.376 679 239.28 678.966 239.201 678.898C239.133 678.819 239.099 678.722 239.099 678.609V670.551C239.099 670.438 239.133 670.347 239.201 670.279C239.28 670.2 239.376 670.16 239.49 670.16H243.026C244.068 670.16 244.862 670.375 245.406 670.806C245.961 671.225 246.239 671.803 246.239 672.54C246.239 673.027 246.148 673.407 245.967 673.679C245.785 673.94 245.508 674.166 245.134 674.359C245.542 674.529 245.859 674.812 246.086 675.209C246.324 675.606 246.443 676.031 246.443 676.484C246.443 677.3 246.154 677.923 245.576 678.354C245.009 678.785 244.204 679 243.162 679H239.49ZM242.924 673.917C243.479 673.917 243.915 673.798 244.233 673.56C244.55 673.322 244.709 672.988 244.709 672.557C244.709 672.138 244.556 671.843 244.25 671.673C243.944 671.492 243.502 671.401 242.924 671.401H240.663V673.917H242.924ZM243.026 677.759C243.592 677.759 244.034 677.651 244.352 677.436C244.68 677.221 244.845 676.903 244.845 676.484C244.845 676.031 244.697 675.702 244.403 675.498C244.108 675.283 243.649 675.175 243.026 675.175H240.663V677.759H243.026ZM252.164 679.17C250.997 679.17 250.062 678.813 249.359 678.099C248.668 677.374 248.288 676.388 248.22 675.141L248.203 674.563L248.22 674.002C248.299 672.778 248.685 671.803 249.376 671.078C250.079 670.353 251.002 669.99 252.147 669.99C253.405 669.99 254.38 670.392 255.071 671.197C255.762 671.99 256.108 673.067 256.108 674.427V674.716C256.108 674.829 256.068 674.926 255.989 675.005C255.921 675.073 255.83 675.107 255.717 675.107H249.835V675.26C249.869 675.997 250.09 676.626 250.498 677.147C250.917 677.657 251.467 677.912 252.147 677.912C252.668 677.912 253.093 677.81 253.422 677.606C253.762 677.391 254.011 677.17 254.17 676.943C254.272 676.807 254.346 676.728 254.391 676.705C254.448 676.671 254.544 676.654 254.68 676.654H255.513C255.615 676.654 255.7 676.682 255.768 676.739C255.836 676.796 255.87 676.875 255.87 676.977C255.87 677.226 255.711 677.527 255.394 677.878C255.088 678.229 254.652 678.535 254.085 678.796C253.53 679.045 252.889 679.17 252.164 679.17ZM254.493 673.934V673.883C254.493 673.101 254.278 672.466 253.847 671.979C253.428 671.48 252.861 671.231 252.147 671.231C251.433 671.231 250.866 671.48 250.447 671.979C250.039 672.466 249.835 673.101 249.835 673.883V673.934H254.493ZM258.549 682.23C258.435 682.23 258.339 682.19 258.26 682.111C258.192 682.043 258.158 681.952 258.158 681.839V670.551C258.158 670.438 258.192 670.347 258.26 670.279C258.339 670.2 258.435 670.16 258.549 670.16H259.331C259.444 670.16 259.535 670.2 259.603 670.279C259.682 670.347 259.722 670.438 259.722 670.551V671.299C260.356 670.426 261.286 669.99 262.51 669.99C263.7 669.99 264.589 670.364 265.179 671.112C265.779 671.86 266.102 672.823 266.148 674.002C266.159 674.127 266.165 674.319 266.165 674.58C266.165 674.841 266.159 675.033 266.148 675.158C266.102 676.325 265.779 677.289 265.179 678.048C264.578 678.796 263.688 679.17 262.51 679.17C261.331 679.17 260.413 678.745 259.756 677.895V681.839C259.756 681.952 259.722 682.043 259.654 682.111C259.586 682.19 259.495 682.23 259.382 682.23H258.549ZM262.153 677.793C262.957 677.793 263.541 677.544 263.904 677.045C264.278 676.546 264.482 675.889 264.516 675.073C264.527 674.96 264.533 674.795 264.533 674.58C264.533 672.438 263.739 671.367 262.153 671.367C261.371 671.367 260.781 671.628 260.385 672.149C259.999 672.659 259.79 673.271 259.756 673.985L259.739 674.631L259.756 675.294C259.778 675.963 259.994 676.546 260.402 677.045C260.81 677.544 261.393 677.793 262.153 677.793ZM268.659 679C268.545 679 268.449 678.966 268.37 678.898C268.302 678.819 268.268 678.722 268.268 678.609V670.551C268.268 670.438 268.302 670.347 268.37 670.279C268.449 670.2 268.545 670.16 268.659 670.16H269.475C269.588 670.16 269.679 670.2 269.747 670.279C269.826 670.347 269.866 670.438 269.866 670.551V673.815H274.49V670.551C274.49 670.438 274.524 670.347 274.592 670.279C274.671 670.2 274.767 670.16 274.881 670.16H275.68C275.793 670.16 275.884 670.2 275.952 670.279C276.031 670.347 276.071 670.438 276.071 670.551V678.609C276.071 678.722 276.031 678.819 275.952 678.898C275.884 678.966 275.793 679 275.68 679H274.881C274.767 679 274.671 678.966 274.592 678.898C274.524 678.819 274.49 678.722 274.49 678.609V675.175H269.866V678.609C269.866 678.722 269.826 678.819 269.747 678.898C269.679 678.966 269.588 679 269.475 679H268.659ZM286.141 670.16C286.232 670.16 286.311 670.194 286.379 670.262C286.458 670.33 286.498 670.409 286.498 670.5V678.609C286.498 678.722 286.458 678.819 286.379 678.898C286.311 678.966 286.22 679 286.107 679H285.308C285.195 679 285.098 678.966 285.019 678.898C284.951 678.819 284.917 678.722 284.917 678.609V672.438L280.208 678.745C280.083 678.915 279.936 679 279.766 679H279.001C278.899 679 278.808 678.966 278.729 678.898C278.661 678.819 278.627 678.734 278.627 678.643V670.551C278.627 670.438 278.661 670.347 278.729 670.279C278.808 670.2 278.905 670.16 279.018 670.16H279.834C279.947 670.16 280.038 670.2 280.106 670.279C280.185 670.347 280.225 670.438 280.225 670.551V676.688L284.917 670.415C285.042 670.245 285.189 670.16 285.359 670.16H286.141ZM291.69 679C291.576 679 291.48 678.966 291.401 678.898C291.333 678.819 291.299 678.722 291.299 678.609V671.52H288.341C288.227 671.52 288.131 671.486 288.052 671.418C287.984 671.339 287.95 671.242 287.95 671.129V670.551C287.95 670.438 287.984 670.347 288.052 670.279C288.131 670.2 288.227 670.16 288.341 670.16H295.821C295.934 670.16 296.025 670.2 296.093 670.279C296.172 670.347 296.212 670.438 296.212 670.551V671.129C296.212 671.242 296.172 671.339 296.093 671.418C296.025 671.486 295.934 671.52 295.821 671.52H292.863V678.609C292.863 678.722 292.829 678.819 292.761 678.898C292.693 678.966 292.602 679 292.489 679H291.69ZM301.222 679.17C300.054 679.17 299.119 678.813 298.417 678.099C297.725 677.374 297.346 676.388 297.278 675.141L297.261 674.563L297.278 674.002C297.357 672.778 297.742 671.803 298.434 671.078C299.136 670.353 300.06 669.99 301.205 669.99C302.463 669.99 303.437 670.392 304.129 671.197C304.82 671.99 305.166 673.067 305.166 674.427V674.716C305.166 674.829 305.126 674.926 305.047 675.005C304.979 675.073 304.888 675.107 304.775 675.107H298.893V675.26C298.927 675.997 299.148 676.626 299.556 677.147C299.975 677.657 300.525 677.912 301.205 677.912C301.726 677.912 302.151 677.81 302.48 677.606C302.82 677.391 303.069 677.17 303.228 676.943C303.33 676.807 303.403 676.728 303.449 676.705C303.505 676.671 303.602 676.654 303.738 676.654H304.571C304.673 676.654 304.758 676.682 304.826 676.739C304.894 676.796 304.928 676.875 304.928 676.977C304.928 677.226 304.769 677.527 304.452 677.878C304.146 678.229 303.709 678.535 303.143 678.796C302.587 679.045 301.947 679.17 301.222 679.17ZM303.551 673.934V673.883C303.551 673.101 303.335 672.466 302.905 671.979C302.485 671.48 301.919 671.231 301.205 671.231C300.491 671.231 299.924 671.48 299.505 671.979C299.097 672.466 298.893 673.101 298.893 673.883V673.934H303.551ZM145.961 699C145.848 699 145.751 698.966 145.672 698.898C145.604 698.819 145.57 698.722 145.57 698.609V691.52H142.612C142.499 691.52 142.402 691.486 142.323 691.418C142.255 691.339 142.221 691.242 142.221 691.129V690.551C142.221 690.438 142.255 690.347 142.323 690.279C142.402 690.2 142.499 690.16 142.612 690.16H150.092C150.205 690.16 150.296 690.2 150.364 690.279C150.443 690.347 150.483 690.438 150.483 690.551V691.129C150.483 691.242 150.443 691.339 150.364 691.418C150.296 691.486 150.205 691.52 150.092 691.52H147.134V698.609C147.134 698.722 147.1 698.819 147.032 698.898C146.964 698.966 146.873 699 146.76 699H145.961ZM155.493 699.17C154.326 699.17 153.391 698.813 152.688 698.099C151.997 697.374 151.617 696.388 151.549 695.141L151.532 694.563L151.549 694.002C151.629 692.778 152.014 691.803 152.705 691.078C153.408 690.353 154.332 689.99 155.476 689.99C156.734 689.99 157.709 690.392 158.4 691.197C159.092 691.99 159.437 693.067 159.437 694.427V694.716C159.437 694.829 159.398 694.926 159.318 695.005C159.25 695.073 159.16 695.107 159.046 695.107H153.164V695.26C153.198 695.997 153.419 696.626 153.827 697.147C154.247 697.657 154.796 697.912 155.476 697.912C155.998 697.912 156.423 697.81 156.751 697.606C157.091 697.391 157.341 697.17 157.499 696.943C157.601 696.807 157.675 696.728 157.72 696.705C157.777 696.671 157.873 696.654 158.009 696.654H158.842C158.944 696.654 159.029 696.682 159.097 696.739C159.165 696.796 159.199 696.875 159.199 696.977C159.199 697.226 159.041 697.527 158.723 697.878C158.417 698.229 157.981 698.535 157.414 698.796C156.859 699.045 156.219 699.17 155.493 699.17ZM157.822 693.934V693.883C157.822 693.101 157.607 692.466 157.176 691.979C156.757 691.48 156.19 691.231 155.476 691.231C154.762 691.231 154.196 691.48 153.776 691.979C153.368 692.466 153.164 693.101 153.164 693.883V693.934H157.822ZM160.979 699C160.865 699 160.769 698.96 160.69 698.881C160.61 698.802 160.571 698.705 160.571 698.592V697.963C160.571 697.85 160.605 697.759 160.673 697.691C160.741 697.623 160.826 697.589 160.928 697.589C161.472 697.566 161.874 697.181 162.135 696.433C162.407 695.674 162.543 694.438 162.543 692.727V690.551C162.543 690.438 162.577 690.347 162.645 690.279C162.724 690.2 162.82 690.16 162.934 690.16H168.34C168.453 690.16 168.544 690.2 168.612 690.279C168.691 690.347 168.731 690.438 168.731 690.551V698.609C168.731 698.722 168.691 698.819 168.612 698.898C168.544 698.966 168.453 699 168.34 699H167.524C167.41 699 167.32 698.966 167.252 698.898C167.184 698.819 167.15 698.722 167.15 698.609V691.52H164.09V692.914C164.09 695.079 163.84 696.637 163.342 697.589C162.843 698.53 162.055 699 160.979 699ZM174.801 699.17C173.634 699.17 172.699 698.813 171.996 698.099C171.305 697.374 170.925 696.388 170.857 695.141L170.84 694.563L170.857 694.002C170.936 692.778 171.322 691.803 172.013 691.078C172.716 690.353 173.639 689.99 174.784 689.99C176.042 689.99 177.017 690.392 177.708 691.197C178.399 691.99 178.745 693.067 178.745 694.427V694.716C178.745 694.829 178.705 694.926 178.626 695.005C178.558 695.073 178.467 695.107 178.354 695.107H172.472V695.26C172.506 695.997 172.727 696.626 173.135 697.147C173.554 697.657 174.104 697.912 174.784 697.912C175.305 697.912 175.73 697.81 176.059 697.606C176.399 697.391 176.648 697.17 176.807 696.943C176.909 696.807 176.983 696.728 177.028 696.705C177.085 696.671 177.181 696.654 177.317 696.654H178.15C178.252 696.654 178.337 696.682 178.405 696.739C178.473 696.796 178.507 696.875 178.507 696.977C178.507 697.226 178.348 697.527 178.031 697.878C177.725 698.229 177.289 698.535 176.722 698.796C176.167 699.045 175.526 699.17 174.801 699.17ZM177.13 693.934V693.883C177.13 693.101 176.915 692.466 176.484 691.979C176.065 691.48 175.498 691.231 174.784 691.231C174.07 691.231 173.503 691.48 173.084 691.979C172.676 692.466 172.472 693.101 172.472 693.883V693.934H177.13ZM185.215 702.23C185.101 702.23 185.005 702.19 184.926 702.111C184.858 702.043 184.824 701.952 184.824 701.839V699C183.396 699 182.319 698.66 181.594 697.98C180.868 697.289 180.472 696.354 180.404 695.175L180.387 694.58L180.404 693.985C180.472 692.818 180.868 691.888 181.594 691.197C182.33 690.506 183.407 690.16 184.824 690.16V687.321C184.824 687.208 184.858 687.117 184.926 687.049C185.005 686.97 185.101 686.93 185.215 686.93H186.014C186.127 686.93 186.218 686.97 186.286 687.049C186.365 687.117 186.405 687.208 186.405 687.321V690.16C187.821 690.16 188.892 690.506 189.618 691.197C190.354 691.888 190.757 692.818 190.825 693.985C190.836 694.11 190.842 694.308 190.842 694.58C190.842 694.852 190.836 695.05 190.825 695.175C190.757 696.354 190.36 697.289 189.635 697.98C188.921 698.66 187.844 699 186.405 699V701.839C186.405 701.952 186.365 702.043 186.286 702.111C186.218 702.19 186.127 702.23 186.014 702.23H185.215ZM184.824 691.469C183.022 691.469 182.075 692.347 181.985 694.104L181.968 694.58C181.968 695.634 182.194 696.416 182.648 696.926C183.112 697.436 183.838 697.691 184.824 697.691V691.469ZM186.405 697.691C188.207 697.691 189.153 696.813 189.244 695.056C189.255 694.943 189.261 694.784 189.261 694.58C189.261 694.365 189.255 694.206 189.244 694.104C189.153 692.347 188.207 691.469 186.405 691.469V697.691ZM196.584 699.17C195.337 699.17 194.368 698.819 193.677 698.116C192.997 697.413 192.634 696.478 192.589 695.311L192.572 694.58L192.589 693.849C192.634 692.693 193.003 691.764 193.694 691.061C194.385 690.347 195.349 689.99 196.584 689.99C197.819 689.99 198.783 690.347 199.474 691.061C200.165 691.764 200.534 692.693 200.579 693.849C200.59 693.974 200.596 694.217 200.596 694.58C200.596 694.943 200.59 695.186 200.579 695.311C200.534 696.478 200.165 697.413 199.474 698.116C198.794 698.819 197.831 699.17 196.584 699.17ZM196.584 697.861C197.298 697.861 197.859 697.634 198.267 697.181C198.686 696.728 198.913 696.076 198.947 695.226C198.958 695.113 198.964 694.897 198.964 694.58C198.964 694.263 198.958 694.047 198.947 693.934C198.913 693.084 198.686 692.432 198.267 691.979C197.859 691.526 197.298 691.299 196.584 691.299C195.87 691.299 195.303 691.526 194.884 691.979C194.465 692.432 194.244 693.084 194.221 693.934L194.204 694.58L194.221 695.226C194.244 696.076 194.465 696.728 194.884 697.181C195.303 697.634 195.87 697.861 196.584 697.861ZM203.116 699C203.002 699 202.906 698.966 202.827 698.898C202.759 698.819 202.725 698.722 202.725 698.609V690.551C202.725 690.438 202.759 690.347 202.827 690.279C202.906 690.2 203.002 690.16 203.116 690.16H203.932C204.045 690.16 204.136 690.2 204.204 690.279C204.283 690.347 204.323 690.438 204.323 690.551V693.815H208.947V690.551C208.947 690.438 208.981 690.347 209.049 690.279C209.128 690.2 209.224 690.16 209.338 690.16H210.137C210.25 690.16 210.341 690.2 210.409 690.279C210.488 690.347 210.528 690.438 210.528 690.551V698.609C210.528 698.722 210.488 698.819 210.409 698.898C210.341 698.966 210.25 699 210.137 699H209.338C209.224 699 209.128 698.966 209.049 698.898C208.981 698.819 208.947 698.722 208.947 698.609V695.175H204.323V698.609C204.323 698.722 204.283 698.819 204.204 698.898C204.136 698.966 204.045 699 203.932 699H203.116ZM217.642 699C217.529 699 217.432 698.966 217.353 698.898C217.285 698.819 217.251 698.722 217.251 698.609V690.551C217.251 690.438 217.285 690.347 217.353 690.279C217.432 690.2 217.529 690.16 217.642 690.16H218.458C218.571 690.16 218.662 690.2 218.73 690.279C218.809 690.347 218.849 690.438 218.849 690.551V693.815H223.473V690.551C223.473 690.438 223.507 690.347 223.575 690.279C223.654 690.2 223.751 690.16 223.864 690.16H224.663C224.776 690.16 224.867 690.2 224.935 690.279C225.014 690.347 225.054 690.438 225.054 690.551V698.609C225.054 698.722 225.014 698.819 224.935 698.898C224.867 698.966 224.776 699 224.663 699H223.864C223.751 699 223.654 698.966 223.575 698.898C223.507 698.819 223.473 698.722 223.473 698.609V695.175H218.849V698.609C218.849 698.722 218.809 698.819 218.73 698.898C218.662 698.966 218.571 699 218.458 699H217.642ZM230.076 699.17C229.52 699.17 229.005 699.057 228.529 698.83C228.053 698.603 227.673 698.297 227.39 697.912C227.118 697.515 226.982 697.079 226.982 696.603C226.982 695.855 227.288 695.243 227.9 694.767C228.523 694.28 229.362 693.962 230.416 693.815L232.949 693.458V692.965C232.949 691.809 232.286 691.231 230.96 691.231C230.461 691.231 230.053 691.339 229.736 691.554C229.418 691.758 229.18 692.002 229.022 692.285C228.988 692.387 228.942 692.461 228.886 692.506C228.84 692.551 228.772 692.574 228.682 692.574H227.951C227.849 692.574 227.758 692.54 227.679 692.472C227.611 692.393 227.577 692.302 227.577 692.2C227.588 691.928 227.713 691.622 227.951 691.282C228.2 690.931 228.58 690.63 229.09 690.381C229.6 690.12 230.229 689.99 230.977 689.99C232.246 689.99 233.158 690.29 233.714 690.891C234.269 691.48 234.547 692.217 234.547 693.101V698.609C234.547 698.722 234.507 698.819 234.428 698.898C234.36 698.966 234.269 699 234.156 699H233.374C233.26 699 233.164 698.966 233.085 698.898C233.017 698.819 232.983 698.722 232.983 698.609V697.878C232.733 698.241 232.371 698.547 231.895 698.796C231.419 699.045 230.812 699.17 230.076 699.17ZM230.433 697.895C231.169 697.895 231.77 697.657 232.235 697.181C232.711 696.694 232.949 695.997 232.949 695.09V694.614L230.977 694.903C230.172 695.016 229.566 695.209 229.158 695.481C228.75 695.742 228.546 696.076 228.546 696.484C228.546 696.937 228.733 697.289 229.107 697.538C229.481 697.776 229.923 697.895 230.433 697.895ZM243.18 699C243.078 699 242.993 698.966 242.925 698.898C242.869 698.819 242.84 698.728 242.84 698.626C242.84 698.547 242.863 698.473 242.908 698.405L245.509 694.784C245.237 694.852 244.931 694.886 244.591 694.886C243.787 694.875 243.073 694.688 242.449 694.325C241.837 693.962 241.367 693.481 241.038 692.88C240.71 692.279 240.545 691.639 240.545 690.959C240.545 690.279 240.704 689.633 241.021 689.021C241.35 688.398 241.837 687.893 242.483 687.508C243.129 687.123 243.911 686.93 244.829 686.93C245.747 686.93 246.529 687.117 247.175 687.491C247.833 687.865 248.326 688.358 248.654 688.97C248.983 689.582 249.147 690.234 249.147 690.925C249.147 691.537 249.04 692.081 248.824 692.557C248.609 693.022 248.309 693.532 247.923 694.087L244.642 698.66C244.563 698.762 244.484 698.847 244.404 698.915C244.336 698.972 244.234 699 244.098 699H243.18ZM244.829 693.509C245.305 693.509 245.742 693.407 246.138 693.203C246.546 692.988 246.869 692.687 247.107 692.302C247.345 691.905 247.464 691.452 247.464 690.942C247.464 690.432 247.345 689.984 247.107 689.599C246.869 689.202 246.546 688.902 246.138 688.698C245.742 688.483 245.305 688.375 244.829 688.375C244.353 688.375 243.917 688.483 243.52 688.698C243.124 688.902 242.806 689.202 242.568 689.599C242.342 689.984 242.228 690.432 242.228 690.942C242.228 691.452 242.342 691.905 242.568 692.302C242.806 692.687 243.124 692.988 243.52 693.203C243.917 693.407 244.353 693.509 244.829 693.509ZM255.366 699.17C253.904 699.17 252.833 698.745 252.153 697.895C251.473 697.045 251.11 695.929 251.065 694.546C251.053 694.24 251.048 693.747 251.048 693.067C251.048 692.364 251.053 691.854 251.065 691.537C251.099 690.177 251.461 689.072 252.153 688.222C252.844 687.361 253.915 686.93 255.366 686.93C256.828 686.93 257.904 687.361 258.596 688.222C259.287 689.072 259.65 690.177 259.684 691.537C259.706 692.172 259.718 692.682 259.718 693.067C259.718 693.441 259.706 693.934 259.684 694.546C259.638 695.929 259.276 697.045 258.596 697.895C257.916 698.745 256.839 699.17 255.366 699.17ZM255.366 697.708C256.216 697.708 256.856 697.425 257.287 696.858C257.729 696.291 257.961 695.492 257.984 694.461C258.006 693.804 258.018 693.328 258.018 693.033C258.018 692.716 258.006 692.251 257.984 691.639C257.961 690.619 257.734 689.82 257.304 689.242C256.873 688.664 256.227 688.375 255.366 688.375C254.516 688.375 253.87 688.664 253.428 689.242C252.997 689.82 252.77 690.619 252.748 691.639L252.731 693.033L252.748 694.461C252.77 695.492 252.997 696.291 253.428 696.858C253.87 697.425 254.516 697.708 255.366 697.708ZM264.066 691.758C263.612 691.758 263.193 691.656 262.808 691.452C262.422 691.237 262.116 690.948 261.89 690.585C261.674 690.211 261.567 689.797 261.567 689.344C261.567 688.891 261.674 688.483 261.89 688.12C262.116 687.746 262.422 687.457 262.808 687.253C263.193 687.038 263.612 686.93 264.066 686.93C264.519 686.93 264.938 687.038 265.324 687.253C265.709 687.457 266.009 687.746 266.225 688.12C266.451 688.483 266.565 688.891 266.565 689.344C266.565 689.797 266.451 690.211 266.225 690.585C266.009 690.948 265.709 691.237 265.324 691.452C264.938 691.656 264.519 691.758 264.066 691.758ZM264.066 690.636C264.451 690.636 264.763 690.517 265.001 690.279C265.239 690.041 265.358 689.729 265.358 689.344C265.358 688.959 265.239 688.647 265.001 688.409C264.763 688.171 264.451 688.052 264.066 688.052C263.68 688.052 263.369 688.171 263.131 688.409C262.893 688.647 262.774 688.959 262.774 689.344C262.774 689.729 262.893 690.041 263.131 690.279C263.369 690.517 263.68 690.636 264.066 690.636Z" fill="white"/>
<path d="M53.7789 659.709H69.5937V669.966H72.3726V656.122C72.3726 654.909 71.4126 654 70.2505 654H53.1221C51.9095 654 51 654.96 51 656.122V689.419C51 690.632 51.96 691.541 53.1221 691.541H58.2253V683.305H53.7789V659.709ZM59.1853 656.122H64.0863C64.4905 656.122 64.7937 656.425 64.7937 656.829C64.7937 657.234 64.4905 657.537 64.0863 657.537H59.1853C58.7811 657.537 58.4779 657.234 58.4779 656.829C58.4779 656.425 58.8316 656.122 59.1853 656.122Z" fill="white"/>
<path d="M96.8274 673.149H63.5811C62.3684 673.149 61.4084 674.109 61.4084 675.322V692.4C61.4084 693.613 62.3684 694.573 63.5811 694.573H96.8274C97.9895 694.573 99 693.613 99 692.4V675.322C99 674.16 98.04 673.149 96.8274 673.149ZM65.5516 685.68C64.5411 685.68 63.7832 684.872 63.7832 683.912C63.7832 682.901 64.5916 682.093 65.5516 682.093C66.5621 682.093 67.32 682.901 67.32 683.912C67.32 684.872 66.5116 685.68 65.5516 685.68ZM93.24 691.743H69.6442V675.928H93.24V691.743ZM96.8274 686.286C96.8274 686.69 96.5242 686.994 96.12 686.994C95.7158 686.994 95.4127 686.69 95.4127 686.286V681.385C95.4127 680.981 95.7158 680.678 96.12 680.678C96.5242 680.678 96.8274 680.981 96.8274 681.385V686.286Z" fill="white"/>
<path d="M81.1642 666.076C80.9116 665.823 80.8105 665.52 80.8105 665.217C80.8105 664.914 80.9116 664.56 81.1642 664.358C81.6695 663.853 82.4274 663.853 82.9326 664.358L83.9937 665.419C83.64 662.135 80.8611 659.507 77.4758 659.507C76.7684 659.507 76.2126 658.951 76.2126 658.244C76.2126 657.537 76.7684 656.981 77.4758 656.981C82.2758 656.981 86.2169 660.77 86.52 665.469L87.7326 664.257C88.2379 663.751 88.9958 663.751 89.5011 664.257C90.0063 664.762 90.0063 665.52 89.5011 666.025L86.2169 669.309C85.7116 669.815 84.9537 669.815 84.4484 669.309L81.1642 666.076Z" fill="white"/>
</svg>
