<?xml version="1.0" encoding="utf-8"?>
<!-- Generator: Adobe Illustrator 16.0.0, SVG Export Plug-In . SVG Version: 6.00 Build 0)  -->
<!DOCTYPE svg PUBLIC "-//W3C//DTD SVG 1.1//EN" "http://www.w3.org/Graphics/SVG/1.1/DTD/svg11.dtd">
<svg version="1.1" id="Layer_1" xmlns="http://www.w3.org/2000/svg" xmlns:xlink="http://www.w3.org/1999/xlink" x="0px" y="0px"
	 width="414px" height="736px" viewBox="0 0 414 736" enable-background="new 0 0 414 736" xml:space="preserve">
<rect fill="#232323" width="414" height="736"/>
<path fill="#E20000" d="M16,629h382v91H16V629z"/>
<path display="none" fill="#FFFFFF" d="M152.615,322.781h1.875V337h-1.875v-10.957L145.613,337h-1.884v-14.219h1.884v10.957
	L152.615,322.781z M165.051,327.928h-4.873V337h-1.815v-10.565h6.688V327.928z M176.149,331.834c0,1.608-0.368,2.904-1.103,3.888
	c-0.736,0.982-1.732,1.475-2.989,1.475c-1.282,0-2.291-0.407-3.027-1.221v5.087h-1.807v-14.627h1.651l0.088,1.171
	c0.734-0.911,1.758-1.367,3.065-1.367c1.271,0,2.272,0.479,3.009,1.437c0.741,0.957,1.112,2.288,1.112,3.993L176.149,331.834
	L176.149,331.834z M174.343,331.63c0-1.19-0.254-2.133-0.762-2.822c-0.509-0.689-1.205-1.036-2.091-1.036
	c-1.094,0-1.913,0.486-2.461,1.457v5.048c0.54,0.964,1.367,1.445,2.48,1.445c0.865,0,1.552-0.342,2.061-1.025
	C174.085,334.006,174.343,332.983,174.343,331.63z M178.575,331.619c0-1.035,0.201-1.966,0.604-2.793
	c0.41-0.826,0.977-1.465,1.699-1.914c0.729-0.448,1.559-0.674,2.49-0.674c1.438,0,2.601,0.498,3.486,1.494
	c0.893,0.996,1.338,2.32,1.338,3.975v0.127c0,1.029-0.198,1.953-0.596,2.773c-0.391,0.813-0.954,1.448-1.689,1.904
	c-0.729,0.455-1.569,0.684-2.52,0.684c-1.432,0-2.595-0.498-3.486-1.494c-0.886-0.996-1.328-2.313-1.328-3.955L178.575,331.619
	L178.575,331.619z M180.392,331.834c0,1.173,0.271,2.113,0.811,2.822c0.547,0.71,1.275,1.064,2.188,1.064
	c0.918,0,1.647-0.357,2.188-1.074c0.541-0.723,0.811-1.73,0.811-3.027c0-1.158-0.277-2.096-0.83-2.813
	c-0.547-0.724-1.276-1.084-2.188-1.084c-0.893,0-1.611,0.354-2.158,1.063S180.392,330.512,180.392,331.834z M191.226,337v-10.565
	h4.121c1.407,0,2.484,0.247,3.233,0.742c0.755,0.487,1.133,1.207,1.133,2.157c0,0.488-0.147,0.932-0.44,1.328
	c-0.293,0.392-0.726,0.689-1.299,0.898c0.638,0.149,1.149,0.442,1.533,0.879c0.391,0.438,0.586,0.957,0.586,1.563
	c0,0.97-0.358,1.712-1.074,2.227c-0.709,0.515-1.715,0.771-3.017,0.771H191.226z M193.033,332.361v3.185h2.987
	c0.755,0,1.318-0.141,1.69-0.421c0.377-0.279,0.565-0.674,0.565-1.182c0-1.055-0.774-1.582-2.323-1.582H193.033z M193.033,330.916
	h2.334c1.692,0,2.538-0.494,2.538-1.483s-0.801-1.501-2.401-1.533h-2.471V330.916z M205.059,330.076h2.744
	c1.198,0.014,2.146,0.326,2.842,0.938c0.696,0.612,1.045,1.441,1.045,2.49c0,1.055-0.357,1.9-1.074,2.538
	c-0.717,0.639-1.68,0.957-2.891,0.957h-4.473v-10.565h1.807V330.076z M215.459,337h-1.816v-10.565h1.816V337z M205.059,331.552
	v3.975h2.686c0.677,0,1.2-0.173,1.571-0.518c0.371-0.353,0.558-0.83,0.558-1.437c0-0.586-0.183-1.063-0.547-1.436
	c-0.358-0.378-0.862-0.572-1.515-0.586L205.059,331.552L205.059,331.552z M223.598,337.195c-1.432,0-2.598-0.469-3.496-1.406
	c-0.896-0.943-1.348-2.203-1.348-3.778v-0.332c0-1.048,0.199-1.982,0.596-2.804c0.404-0.826,0.965-1.471,1.681-1.934
	c0.723-0.469,1.505-0.703,2.344-0.703c1.374,0,2.44,0.453,3.204,1.357c0.761,0.905,1.142,2.2,1.142,3.887v0.752h-7.157
	c0.025,1.042,0.328,1.885,0.907,2.529c0.586,0.639,1.328,0.957,2.228,0.957c0.639,0,1.179-0.131,1.621-0.392
	c0.442-0.26,0.83-0.604,1.162-1.034l1.104,0.858C226.697,336.515,225.369,337.195,223.598,337.195z M223.373,327.723
	c-0.729,0-1.342,0.268-1.836,0.801c-0.494,0.527-0.801,1.27-0.917,2.227h5.292v-0.137c-0.053-0.918-0.301-1.627-0.742-2.129
	C224.729,327.977,224.129,327.723,223.373,327.723z M243.831,327.898h-3.545V337h-1.808v-9.102h-3.477v-1.465h8.828L243.831,327.898
	L243.831,327.898z M249.793,337.195c-1.434,0-2.6-0.469-3.497-1.406c-0.897-0.943-1.348-2.203-1.348-3.778v-0.332
	c0-1.048,0.198-1.982,0.597-2.804c0.402-0.826,0.963-1.471,1.68-1.934c0.723-0.469,1.504-0.703,2.344-0.703
	c1.373,0,2.44,0.453,3.203,1.357c0.763,0.905,1.144,2.2,1.144,3.887v0.752h-7.159c0.026,1.042,0.329,1.885,0.909,2.529
	c0.586,0.639,1.328,0.957,2.226,0.957c0.639,0,1.18-0.131,1.621-0.392c0.443-0.26,0.83-0.604,1.162-1.034l1.104,0.858
	C252.893,336.515,251.563,337.195,249.793,337.195z M249.568,327.723c-0.729,0-1.342,0.268-1.836,0.801
	c-0.495,0.527-0.801,1.27-0.918,2.227h5.293v-0.137c-0.053-0.918-0.299-1.627-0.742-2.129
	C250.922,327.977,250.323,327.723,249.568,327.723z M260.157,330.291l2.345-3.856h2.107l-3.456,5.225l3.564,5.342h-2.09l-2.44-3.954
	L257.746,337h-2.102l3.565-5.342l-3.457-5.225h2.09L260.157,330.291z M275.768,337h-1.807v-4.512h-4.854V337h-1.816v-10.565h1.816
	v4.58h4.854v-4.58h1.807V337z M278.8,331.619c0-1.035,0.201-1.966,0.604-2.793c0.41-0.826,0.978-1.465,1.699-1.914
	c0.729-0.448,1.561-0.674,2.49-0.674c1.438,0,2.6,0.498,3.486,1.494c0.892,0.996,1.338,2.32,1.338,3.975v0.127
	c0,1.029-0.199,1.953-0.597,2.773c-0.392,0.813-0.953,1.448-1.688,1.904c-0.729,0.455-1.568,0.684-2.521,0.684
	c-1.433,0-2.595-0.498-3.485-1.494c-0.886-0.996-1.328-2.313-1.328-3.955L278.8,331.619L278.8,331.619z M280.615,331.834
	c0,1.173,0.271,2.113,0.812,2.822c0.546,0.71,1.276,1.064,2.188,1.064c0.918,0,1.646-0.357,2.188-1.074
	c0.54-0.723,0.811-1.73,0.811-3.027c0-1.158-0.276-2.096-0.83-2.813c-0.548-0.724-1.275-1.084-2.188-1.084
	c-0.892,0-1.612,0.354-2.159,1.063S280.615,330.512,280.615,331.834z M299.79,326.434V337h-1.815v-9.071h-3.595l-0.215,3.955
	c-0.117,1.815-0.423,3.114-0.918,3.896c-0.488,0.782-1.267,1.188-2.334,1.221h-0.724v-1.592l0.519-0.039
	c0.586-0.064,1.006-0.403,1.26-1.015c0.255-0.612,0.417-1.745,0.488-3.399l0.194-4.521L299.79,326.434L299.79,326.434z
	 M302.813,331.619c0-1.035,0.201-1.966,0.605-2.793c0.41-0.826,0.977-1.465,1.699-1.914c0.729-0.448,1.559-0.674,2.488-0.674
	c1.439,0,2.603,0.498,3.486,1.494c0.893,0.996,1.338,2.32,1.338,3.975v0.127c0,1.029-0.197,1.953-0.595,2.773
	c-0.392,0.813-0.954,1.448-1.69,1.904c-0.729,0.455-1.567,0.684-2.519,0.684c-1.435,0-2.596-0.498-3.487-1.494
	c-0.885-0.996-1.328-2.313-1.328-3.955v-0.127H302.813z M304.629,331.834c0,1.173,0.27,2.113,0.811,2.822
	c0.547,0.71,1.275,1.064,2.188,1.064c0.918,0,1.646-0.357,2.188-1.074c0.539-0.723,0.812-1.73,0.812-3.027
	c0-1.158-0.276-2.096-0.83-2.813c-0.547-0.724-1.276-1.084-2.188-1.084c-0.892,0-1.609,0.354-2.157,1.063
	C304.902,329.497,304.629,330.512,304.629,331.834z M322.123,327.928h-4.873V337h-1.816v-10.565h6.689V327.928z M331.131,326.434
	h1.807V337h-1.807v-7.704L326.258,337h-1.806v-10.565h1.806v7.715L331.131,326.434z M343.273,326.434h1.809V337h-1.809v-7.704
	L338.4,337h-1.806v-10.565h1.806v7.715L343.273,326.434z M149.451,359.607l3.594-8.174h2.256V362h-1.807v-7.686L150.076,362h-1.25
	l-3.486-7.852V362h-1.807v-10.565h2.344L149.451,359.607z M163.196,362.195c-1.434,0-2.598-0.469-3.495-1.406
	c-0.899-0.943-1.349-2.203-1.349-3.778v-0.332c0-1.048,0.199-1.982,0.596-2.804c0.403-0.826,0.964-1.471,1.68-1.934
	c0.723-0.469,1.504-0.703,2.344-0.703c1.374,0,2.442,0.453,3.203,1.357c0.762,0.905,1.143,2.2,1.143,3.887v0.752h-7.157
	c0.025,1.042,0.327,1.885,0.907,2.529c0.586,0.639,1.328,0.957,2.227,0.957c0.638,0,1.179-0.131,1.621-0.392
	c0.442-0.26,0.831-0.604,1.163-1.034l1.103,0.858C166.295,361.515,164.967,362.195,163.196,362.195z M162.971,352.723
	c-0.729,0-1.341,0.268-1.836,0.801c-0.495,0.527-0.801,1.27-0.918,2.227h5.293v-0.137c-0.052-0.918-0.299-1.627-0.742-2.129
	C164.325,352.977,163.726,352.723,162.971,352.723z M178.942,356.834c0,1.608-0.368,2.904-1.103,3.888
	c-0.736,0.982-1.732,1.475-2.989,1.475c-1.282,0-2.291-0.407-3.027-1.221v5.087h-1.807v-14.627h1.651l0.088,1.171
	c0.734-0.911,1.758-1.367,3.065-1.367c1.271,0,2.271,0.479,3.009,1.437c0.741,0.957,1.112,2.288,1.112,3.993L178.942,356.834
	L178.942,356.834z M177.136,356.63c0-1.19-0.254-2.133-0.762-2.822c-0.509-0.689-1.205-1.036-2.09-1.036
	c-1.095,0-1.914,0.486-2.462,1.457v5.048c0.54,0.964,1.367,1.445,2.48,1.445c0.865,0,1.552-0.342,2.061-1.025
	C176.878,359.006,177.136,357.983,177.136,356.63z M181.368,356.619c0-1.035,0.201-1.966,0.605-2.793
	c0.41-0.826,0.977-1.465,1.699-1.914c0.729-0.448,1.559-0.674,2.49-0.674c1.438,0,2.601,0.498,3.486,1.494
	c0.893,0.996,1.337,2.32,1.337,3.975v0.127c0,1.029-0.197,1.953-0.595,2.773c-0.391,0.813-0.954,1.448-1.689,1.904
	c-0.729,0.455-1.569,0.684-2.52,0.684c-1.432,0-2.595-0.498-3.487-1.494c-0.885-0.996-1.327-2.313-1.327-3.955L181.368,356.619
	L181.368,356.619z M183.185,356.834c0,1.173,0.271,2.113,0.811,2.822c0.547,0.71,1.275,1.064,2.188,1.064
	c0.918,0,1.647-0.357,2.188-1.074c0.541-0.723,0.811-1.73,0.811-3.027c0-1.158-0.277-2.096-0.83-2.813
	c-0.547-0.724-1.275-1.084-2.188-1.084c-0.893,0-1.611,0.354-2.158,1.063S183.185,355.512,183.185,356.834z M202.496,362h-1.808
	v-9.071h-4.862V362h-1.817v-10.565h8.487V362z M214.922,356.834c0,1.608-0.368,2.904-1.104,3.888
	c-0.734,0.982-1.73,1.475-2.987,1.475c-1.282,0-2.292-0.407-3.027-1.221v5.087h-1.807v-14.627h1.649l0.088,1.171
	c0.735-0.911,1.759-1.367,3.066-1.367c1.27,0,2.271,0.479,3.008,1.437c0.742,0.957,1.113,2.288,1.113,3.993V356.834z
	 M213.115,356.63c0-1.19-0.254-2.133-0.762-2.822s-1.205-1.036-2.09-1.036c-1.094,0-1.914,0.486-2.461,1.457v5.048
	c0.54,0.964,1.367,1.445,2.48,1.445c0.865,0,1.553-0.342,2.061-1.025C212.857,359.006,213.115,357.983,213.115,356.63z
	 M224.662,351.434h1.807V362h-1.807v-7.704L219.789,362h-1.807v-10.565h1.807v7.715L224.662,351.434z M238.046,351.434V362h-1.817
	v-4.11h-2.724l-2.491,4.11h-1.953l2.657-4.385c-0.678-0.247-1.198-0.628-1.563-1.143c-0.357-0.521-0.536-1.127-0.536-1.816
	c0-0.963,0.359-1.738,1.084-2.324c0.723-0.592,1.688-0.892,2.898-0.897L238.046,351.434L238.046,351.434z M231.434,354.677
	c0,0.515,0.176,0.932,0.528,1.25c0.351,0.313,0.815,0.473,1.396,0.479h2.871v-3.506h-2.597c-0.671,0-1.205,0.165-1.603,0.497
	C231.633,353.722,231.434,354.148,231.434,354.677z M249.398,352.898h-3.545V362h-1.808v-9.102h-3.478v-1.465h8.828v1.465H249.398z
	 M258.591,351.434h1.808V362h-1.808v-7.704L253.718,362h-1.806v-10.565h1.806v7.715L258.591,351.434z M270.734,351.434h1.808V362
	h-1.808v-7.704L265.861,362h-1.807v-10.565h1.807v7.715L270.734,351.434z M271.223,347.587c0,0.788-0.271,1.422-0.811,1.903
	c-0.534,0.476-1.237,0.713-2.109,0.713c-0.873,0-1.578-0.24-2.119-0.723c-0.541-0.48-0.811-1.113-0.811-1.895h1.475
	c0,0.456,0.123,0.813,0.371,1.073c0.247,0.254,0.608,0.381,1.084,0.381c0.455,0,0.811-0.127,1.064-0.381
	c0.261-0.254,0.391-0.611,0.391-1.073L271.223,347.587L271.223,347.587z"/>
<rect x="46" y="283" fill="#E20000" width="80" height="80"/>
<path fill="#FFFFFF" d="M79.981,313c0.789,1.185,1.184,2.566,1.184,4.146c0,1.677-0.395,2.959-1.283,4.046
	c-0.493,0.592-1.184,1.085-2.072,1.579c1.382,0.492,2.468,1.282,3.158,2.367c0.69,1.086,1.086,2.468,1.086,3.948
	c0,1.579-0.396,3.06-1.185,4.342c-0.493,0.889-1.185,1.579-1.974,2.171c-0.889,0.691-1.875,1.085-3.06,1.382
	c-1.184,0.296-2.467,0.395-3.849,0.395H59.75v-27.334h13.125C76.231,310.138,78.599,311.125,79.981,313z M65.178,314.776v6.021
	h6.611c1.185,0,2.171-0.197,2.862-0.691c0.69-0.492,1.085-1.282,1.085-2.367c0-1.283-0.493-2.071-1.48-2.467
	c-0.888-0.297-1.875-0.396-3.256-0.396h-5.822V314.776z M65.178,325.337v7.302h6.611c1.185,0,2.072-0.196,2.764-0.492
	c1.184-0.593,1.776-1.679,1.776-3.354c0-1.383-0.593-2.369-1.776-2.962c-0.691-0.296-1.579-0.492-2.764-0.492L65.178,325.337
	L65.178,325.337z"/>
<path fill="#FFFFFF" d="M111.164,329.383c-0.493,1.579-1.185,2.86-2.072,3.848l3.158,2.962l-2.961,3.059l-3.256-3.059
	c-0.987,0.592-1.875,0.986-2.566,1.282c-1.184,0.395-2.664,0.593-4.342,0.593c-3.553,0-6.514-1.087-8.783-3.158
	c-2.763-2.565-4.243-6.315-4.243-11.25s1.48-8.685,4.342-11.25c2.171-2.071,5.132-3.158,8.586-3.158
	c3.553,0,6.513,1.087,8.882,3.258c2.763,2.564,4.145,6.117,4.145,10.756C112.053,325.633,111.757,327.704,111.164,329.383z
	 M100.803,333.033c0.296-0.1,0.789-0.196,1.282-0.494l-2.763-2.664l2.961-3.059l2.763,2.565c0.395-0.89,0.69-1.679,0.888-2.369
	c0.296-0.986,0.396-2.171,0.396-3.454c0-3.06-0.593-5.427-1.875-7.104c-1.283-1.678-3.06-2.467-5.428-2.467
	c-2.271,0-4.047,0.789-5.428,2.368c-1.382,1.578-1.974,3.947-1.974,7.203c0,3.75,0.986,6.415,2.861,7.994
	c1.283,1.085,2.764,1.579,4.441,1.579C99.618,333.23,100.21,333.133,100.803,333.033z"/>
<path fill="#E20000" d="M144.285,309v-25.594h8.965c3.104,0,5.461,0.598,7.065,1.793c1.606,1.184,2.409,2.924,2.409,5.221
	c0,1.254-0.323,2.361-0.967,3.322c-0.646,0.949-1.541,1.647-2.69,2.092c1.313,0.328,2.345,0.99,3.095,1.986
	c0.762,0.996,1.143,2.215,1.143,3.657c0,2.461-0.785,4.324-2.356,5.589c-1.569,1.266-3.808,1.91-6.715,1.934H144.285z
	 M149.559,297.855v6.909h4.518c1.241,0,2.209-0.293,2.9-0.879c0.703-0.599,1.054-1.418,1.054-2.462c0-2.344-1.213-3.532-3.638-3.568
	H149.559z M149.559,294.129h3.902c2.66-0.047,3.99-1.107,3.99-3.182c0-1.16-0.341-1.992-1.02-2.496
	c-0.668-0.515-1.729-0.772-3.182-0.772h-3.691L149.559,294.129L149.559,294.129z M184.476,297.908h-10.125v6.856h11.883V309h-17.156
	v-25.594h17.12v4.271h-11.847v6.099h10.125V297.908z M204.399,302.285c0-0.996-0.352-1.758-1.055-2.285
	c-0.703-0.539-1.969-1.102-3.797-1.688c-1.828-0.598-3.275-1.184-4.342-1.757c-2.906-1.571-4.359-3.687-4.359-6.347
	c0-1.383,0.387-2.612,1.16-3.69c0.785-1.09,1.905-1.94,3.357-2.549c1.466-0.61,3.104-0.914,4.923-0.914
	c1.827,0,3.457,0.334,4.886,1.002c1.43,0.655,2.537,1.588,3.323,2.795c0.796,1.207,1.194,2.578,1.194,4.112h-5.273
	c0-1.172-0.369-2.079-1.107-2.725c-0.738-0.656-1.774-0.984-3.111-0.984c-1.288,0-2.291,0.275-3.006,0.826
	c-0.715,0.539-1.071,1.254-1.071,2.146c0,0.832,0.416,1.528,1.248,2.091c0.843,0.563,2.079,1.09,3.709,1.582
	c3,0.903,5.185,2.021,6.556,3.357c1.371,1.337,2.058,3,2.058,4.992c0,2.215-0.838,3.955-2.515,5.222
	c-1.676,1.254-3.931,1.881-6.767,1.881c-1.97,0-3.763-0.357-5.38-1.072c-1.617-0.727-2.854-1.717-3.709-2.97
	c-0.844-1.254-1.266-2.707-1.266-4.36h5.291c0,2.824,1.688,4.237,5.063,4.237c1.253,0,2.231-0.252,2.935-0.756
	C204.047,303.914,204.399,303.199,204.399,302.285z M234.341,287.678h-7.839V309h-5.273v-21.321h-7.733v-4.272h20.847
	L234.341,287.678L234.341,287.678z M269.863,296.783c0,2.391-0.387,4.471-1.159,6.24c-0.772,1.758-1.847,3.17-3.218,4.237
	l4.254,3.34l-3.356,2.971l-5.448-4.377c-0.623,0.105-1.267,0.158-1.935,0.158c-2.121,0-4.015-0.51-5.679-1.529
	c-1.663-1.02-2.952-2.472-3.866-4.359c-0.914-1.898-1.377-4.077-1.39-6.539v-1.266c0-2.52,0.451-4.734,1.354-6.645
	c0.914-1.922,2.197-3.394,3.85-4.412c1.664-1.032,3.563-1.547,5.695-1.547c2.133,0,4.024,0.515,5.678,1.547
	c1.664,1.019,2.947,2.49,3.851,4.412c0.913,1.909,1.37,4.118,1.37,6.627V296.783z M264.52,295.623c0-2.684-0.479-4.723-1.44-6.117
	s-2.332-2.092-4.113-2.092c-1.771,0-3.135,0.691-4.096,2.074c-0.961,1.371-1.447,3.387-1.459,6.047v1.248
	c0,2.613,0.479,4.641,1.44,6.082c0.961,1.442,2.344,2.162,4.148,2.162c1.77,0,3.129-0.691,4.078-2.074
	c0.947-1.394,1.43-3.422,1.441-6.082V295.623L264.52,295.623z M294.902,283.406v16.858c0,2.8-0.879,5.015-2.637,6.644
	c-1.746,1.629-4.138,2.443-7.173,2.443c-2.987,0-5.36-0.791-7.118-2.373c-1.759-1.583-2.654-3.755-2.689-6.521v-17.051h5.273v16.893
	c0,1.677,0.397,2.9,1.194,3.675c0.81,0.761,1.922,1.142,3.34,1.142c2.966,0,4.472-1.558,4.519-4.676v-17.033L294.902,283.406
	L294.902,283.406z M316.424,297.908h-10.125v6.856h11.883V309h-17.156v-25.594h17.121v4.271h-11.848v6.099h10.125V297.908z
	 M336.347,302.285c0-0.996-0.351-1.758-1.054-2.285c-0.704-0.539-1.97-1.102-3.797-1.688c-1.828-0.598-3.276-1.184-4.343-1.757
	c-2.905-1.571-4.358-3.687-4.358-6.347c0-1.383,0.387-2.612,1.16-3.69c0.784-1.09,1.902-1.94,3.355-2.549
	c1.465-0.61,3.106-0.914,4.922-0.914c1.828,0,3.457,0.334,4.889,1.002c1.429,0.655,2.536,1.588,3.32,2.795
	c0.798,1.207,1.195,2.578,1.195,4.112h-5.272c0-1.172-0.368-2.079-1.107-2.725c-0.737-0.656-1.774-0.984-3.11-0.984
	c-1.289,0-2.291,0.275-3.006,0.826c-0.716,0.539-1.072,1.254-1.072,2.146c0,0.832,0.416,1.528,1.248,2.091
	c0.845,0.563,2.08,1.09,3.709,1.582c3,0.903,5.187,2.021,6.558,3.357c1.371,1.337,2.056,3,2.056,4.992
	c0,2.215-0.838,3.955-2.513,5.222c-1.677,1.254-3.933,1.881-6.769,1.881c-1.969,0-3.763-0.357-5.379-1.072
	c-1.617-0.727-2.854-1.717-3.709-2.97c-0.845-1.254-1.266-2.707-1.266-4.36h5.291c0,2.824,1.688,4.237,5.063,4.237
	c1.254,0,2.231-0.252,2.937-0.756C335.996,303.914,336.347,303.199,336.347,302.285z M366.29,287.678h-7.84V309h-5.273v-21.321
	h-7.735v-4.272h20.85L366.29,287.678L366.29,287.678z"/>
<path fill="#FFFFFF" d="M143.87,659c-0.113,0-0.21-0.033-0.289-0.102c-0.068-0.079-0.103-0.177-0.103-0.289v-11.102
	c0-0.125,0.034-0.222,0.103-0.289c0.079-0.079,0.176-0.119,0.289-0.119h8.381c0.125,0,0.221,0.04,0.289,0.119
	c0.079,0.067,0.119,0.164,0.119,0.289v11.102c0,0.112-0.04,0.21-0.119,0.289c-0.079,0.067-0.177,0.102-0.289,0.102h-0.867
	c-0.113,0-0.21-0.033-0.289-0.102c-0.068-0.079-0.102-0.177-0.102-0.289v-9.979h-5.849v9.979c0,0.112-0.04,0.21-0.119,0.289
	c-0.079,0.067-0.176,0.102-0.289,0.102H143.87z M159.015,659.171c-1.247,0-2.216-0.352-2.907-1.055
	c-0.68-0.703-1.043-1.638-1.088-2.806l-0.017-0.73l0.017-0.73c0.045-1.155,0.413-2.085,1.105-2.787
	c0.69-0.715,1.653-1.071,2.89-1.071c1.235,0,2.198,0.356,2.89,1.071c0.69,0.702,1.06,1.632,1.104,2.787
	c0.011,0.125,0.017,0.368,0.017,0.73c0,0.363-0.006,0.605-0.017,0.73c-0.046,1.168-0.414,2.103-1.104,2.806
	C161.225,658.819,160.261,659.171,159.015,659.171z M159.015,657.861c0.714,0,1.275-0.228,1.683-0.681
	c0.42-0.452,0.646-1.104,0.681-1.955c0.011-0.112,0.017-0.328,0.017-0.646c0-0.316-0.006-0.532-0.017-0.646
	c-0.034-0.851-0.261-1.502-0.681-1.955c-0.407-0.452-0.969-0.68-1.683-0.68c-0.714,0-1.281,0.228-1.7,0.68
	c-0.42,0.453-0.641,1.104-0.663,1.955l-0.017,0.646l0.017,0.646c0.022,0.851,0.243,1.503,0.663,1.955
	C157.734,657.635,158.301,657.861,159.015,657.861z M164.645,660.87c-0.113,0-0.209-0.04-0.289-0.118
	c-0.067-0.068-0.102-0.159-0.102-0.271v-2.448c0-0.112,0.034-0.204,0.102-0.271c0.08-0.079,0.176-0.119,0.289-0.119h0.085
	c0.477-0.011,0.833-0.407,1.071-1.189c0.25-0.781,0.374-2.022,0.374-3.724v-2.176c0-0.112,0.034-0.204,0.102-0.271
	c0.08-0.079,0.177-0.119,0.289-0.119h5.423c0.114,0,0.204,0.04,0.271,0.119c0.08,0.067,0.119,0.159,0.119,0.271v7.056h0.799
	c0.114,0,0.204,0.04,0.272,0.118c0.079,0.068,0.118,0.159,0.118,0.271v2.482c0,0.112-0.039,0.203-0.118,0.271
	c-0.068,0.078-0.158,0.118-0.272,0.118h-0.799c-0.113,0-0.209-0.04-0.289-0.118c-0.068-0.068-0.103-0.159-0.103-0.271V659h-6.153
	v1.479c0,0.113-0.039,0.204-0.119,0.272c-0.068,0.078-0.158,0.118-0.272,0.118L164.645,660.87L164.645,660.87z M170.799,657.606
	v-6.087h-3.077v1.395c0,2.268-0.323,3.843-0.969,4.727L170.799,657.606z M178.052,659c-0.114,0-0.21-0.033-0.289-0.102
	c-0.067-0.079-0.102-0.177-0.102-0.289v-7.09h-2.958c-0.114,0-0.21-0.033-0.289-0.102c-0.068-0.079-0.103-0.177-0.103-0.289v-0.578
	c0-0.112,0.034-0.204,0.103-0.271c0.079-0.079,0.175-0.119,0.289-0.119h7.479c0.113,0,0.204,0.04,0.272,0.119
	c0.079,0.067,0.118,0.159,0.118,0.271v0.578c0,0.112-0.039,0.21-0.118,0.289c-0.068,0.067-0.159,0.102-0.272,0.102h-2.958v7.09
	c0,0.112-0.034,0.21-0.102,0.289c-0.068,0.067-0.159,0.102-0.272,0.102H178.052z M184.439,659c-0.112,0-0.21-0.033-0.289-0.102
	c-0.067-0.079-0.102-0.177-0.102-0.289v-8.059c0-0.112,0.034-0.204,0.102-0.271c0.079-0.079,0.177-0.119,0.289-0.119h3.536
	c1.043,0,1.836,0.215,2.38,0.646c0.556,0.419,0.833,0.997,0.833,1.733c0,0.487-0.091,0.867-0.271,1.14
	c-0.182,0.262-0.459,0.486-0.833,0.681c0.407,0.17,0.725,0.453,0.952,0.85c0.237,0.396,0.356,0.822,0.356,1.275
	c0,0.815-0.289,1.438-0.867,1.869c-0.566,0.432-1.371,0.646-2.414,0.646H184.439z M187.873,653.918c0.555,0,0.991-0.119,1.309-0.357
	c0.318-0.237,0.477-0.571,0.477-1.003c0-0.419-0.153-0.714-0.46-0.884c-0.306-0.182-0.747-0.271-1.325-0.271h-2.262v2.517
	L187.873,653.918L187.873,653.918z M187.975,657.76c0.567,0,1.009-0.107,1.326-0.322c0.329-0.216,0.493-0.533,0.493-0.952
	c0-0.453-0.147-0.782-0.442-0.986c-0.295-0.215-0.754-0.322-1.377-0.322h-2.363v2.584L187.975,657.76L187.975,657.76z
	 M197.113,659.171c-1.167,0-2.103-0.356-2.805-1.071c-0.69-0.725-1.071-1.711-1.139-2.958l-0.018-0.577l0.018-0.562
	c0.08-1.225,0.465-2.199,1.156-2.925c0.702-0.725,1.627-1.088,2.771-1.088c1.258,0,2.233,0.401,2.924,1.207
	c0.692,0.793,1.037,1.87,1.037,3.229v0.289c0,0.112-0.039,0.21-0.119,0.289c-0.067,0.067-0.158,0.103-0.271,0.103h-5.882v0.152
	c0.033,0.736,0.255,1.366,0.662,1.888c0.421,0.51,0.97,0.765,1.648,0.765c0.522,0,0.947-0.102,1.275-0.306
	c0.34-0.216,0.59-0.437,0.748-0.663c0.102-0.137,0.176-0.216,0.221-0.238c0.057-0.033,0.153-0.051,0.289-0.051h0.833
	c0.102,0,0.187,0.027,0.255,0.085c0.068,0.058,0.102,0.136,0.102,0.237c0,0.249-0.157,0.551-0.476,0.901
	c-0.306,0.351-0.742,0.656-1.309,0.918C198.479,659.046,197.839,659.171,197.113,659.171z M199.442,653.934v-0.051
	c0-0.782-0.215-1.417-0.646-1.904c-0.419-0.498-0.986-0.747-1.7-0.747c-0.714,0-1.28,0.249-1.7,0.747
	c-0.408,0.487-0.611,1.122-0.611,1.904v0.051H199.442z M203.498,662.23c-0.113,0-0.21-0.04-0.289-0.119
	c-0.068-0.067-0.103-0.159-0.103-0.271v-11.288c0-0.112,0.034-0.204,0.103-0.271c0.079-0.079,0.176-0.119,0.289-0.119h0.781
	c0.113,0,0.204,0.04,0.271,0.119c0.079,0.067,0.119,0.159,0.119,0.271v0.748c0.635-0.873,1.563-1.31,2.788-1.31
	c1.188,0,2.08,0.374,2.669,1.122c0.602,0.748,0.924,1.711,0.969,2.891c0.012,0.125,0.018,0.316,0.018,0.577
	c0,0.262-0.006,0.453-0.018,0.578c-0.045,1.167-0.367,2.131-0.969,2.891c-0.602,0.748-1.49,1.122-2.669,1.122
	c-1.18,0-2.098-0.426-2.754-1.275v3.944c0,0.112-0.034,0.204-0.103,0.271c-0.067,0.078-0.159,0.118-0.271,0.118L203.498,662.23
	L203.498,662.23z M207.102,657.794c0.805,0,1.388-0.249,1.751-0.748c0.373-0.499,0.578-1.156,0.611-1.973
	c0.012-0.112,0.018-0.277,0.018-0.493c0-2.143-0.793-3.213-2.38-3.213c-0.782,0-1.371,0.262-1.768,0.782
	c-0.386,0.51-0.596,1.122-0.629,1.836l-0.018,0.646l0.018,0.663c0.022,0.669,0.237,1.252,0.646,1.751
	C205.76,657.544,206.343,657.794,207.102,657.794z M212.707,660.87c-0.113,0-0.21-0.04-0.289-0.118
	c-0.068-0.068-0.104-0.159-0.104-0.271v-2.448c0-0.112,0.035-0.204,0.104-0.271c0.079-0.079,0.176-0.119,0.289-0.119h0.085
	c0.476-0.011,0.833-0.407,1.07-1.189c0.249-0.781,0.374-2.022,0.374-3.724v-2.176c0-0.112,0.033-0.204,0.103-0.271
	c0.079-0.079,0.177-0.119,0.289-0.119h5.423c0.113,0,0.204,0.04,0.271,0.119c0.078,0.067,0.119,0.159,0.119,0.271v7.056h0.799
	c0.113,0,0.203,0.04,0.271,0.118c0.079,0.068,0.119,0.159,0.119,0.271v2.482c0,0.112-0.04,0.203-0.119,0.271
	c-0.068,0.078-0.158,0.118-0.271,0.118h-0.799c-0.112,0-0.211-0.04-0.289-0.118c-0.067-0.068-0.103-0.159-0.103-0.271V659h-6.153
	v1.479c0,0.113-0.041,0.204-0.119,0.272c-0.067,0.078-0.158,0.118-0.271,0.118L212.707,660.87L212.707,660.87z M218.861,657.606
	v-6.087h-3.076v1.395c0,2.268-0.323,3.843-0.971,4.727L218.861,657.606z M230.924,650.16c0.092,0,0.17,0.034,0.238,0.103
	c0.08,0.067,0.118,0.146,0.118,0.237v8.109c0,0.112-0.038,0.21-0.118,0.289c-0.068,0.067-0.158,0.102-0.271,0.102h-0.8
	c-0.112,0-0.209-0.033-0.289-0.102c-0.067-0.079-0.102-0.177-0.102-0.289v-6.172l-4.71,6.308c-0.123,0.17-0.271,0.255-0.441,0.255
	h-0.765c-0.103,0-0.192-0.033-0.272-0.102c-0.068-0.079-0.102-0.164-0.102-0.256v-8.092c0-0.112,0.033-0.204,0.102-0.271
	c0.08-0.079,0.176-0.119,0.289-0.119h0.816c0.113,0,0.203,0.04,0.271,0.119c0.08,0.067,0.119,0.159,0.119,0.271v6.138l4.692-6.273
	c0.125-0.17,0.271-0.255,0.441-0.255H230.924L230.924,650.16z M236.473,659c-0.113,0-0.21-0.033-0.289-0.102
	c-0.067-0.079-0.102-0.177-0.102-0.289v-7.09h-2.958c-0.114,0-0.21-0.033-0.289-0.102c-0.067-0.079-0.103-0.177-0.103-0.289v-0.578
	c0-0.112,0.033-0.204,0.103-0.271c0.079-0.079,0.175-0.119,0.289-0.119h7.479c0.112,0,0.203,0.04,0.271,0.119
	c0.079,0.067,0.119,0.159,0.119,0.271v0.578c0,0.112-0.04,0.21-0.119,0.289c-0.068,0.067-0.159,0.102-0.271,0.102h-2.959v7.09
	c0,0.112-0.033,0.21-0.102,0.289c-0.068,0.067-0.159,0.102-0.271,0.102H236.473z M246.005,659.171c-1.167,0-2.103-0.356-2.805-1.071
	c-0.691-0.725-1.071-1.711-1.14-2.958l-0.018-0.577l0.018-0.562c0.078-1.225,0.465-2.199,1.155-2.925
	c0.703-0.725,1.626-1.088,2.771-1.088c1.259,0,2.232,0.401,2.925,1.207c0.689,0.793,1.036,1.87,1.036,3.229v0.289
	c0,0.112-0.039,0.21-0.118,0.289c-0.068,0.067-0.159,0.103-0.271,0.103h-5.883v0.152c0.034,0.736,0.256,1.366,0.663,1.888
	c0.419,0.51,0.97,0.765,1.648,0.765c0.521,0,0.946-0.102,1.274-0.306c0.34-0.216,0.59-0.437,0.748-0.663
	c0.103-0.137,0.176-0.216,0.221-0.238c0.059-0.033,0.153-0.051,0.289-0.051h0.834c0.103,0,0.188,0.027,0.254,0.085
	c0.068,0.058,0.104,0.136,0.104,0.237c0,0.249-0.159,0.551-0.477,0.901c-0.307,0.351-0.741,0.656-1.31,0.918
	C247.371,659.046,246.73,659.171,246.005,659.171z M248.334,653.934v-0.051c0-0.782-0.215-1.417-0.646-1.904
	c-0.418-0.498-0.984-0.747-1.699-0.747s-1.28,0.249-1.699,0.747c-0.408,0.487-0.612,1.122-0.612,1.904v0.051H248.334z M261.725,659
	c-0.113,0-0.209-0.033-0.289-0.102c-0.066-0.079-0.102-0.177-0.102-0.289v-3.196c-0.578,0.544-1.445,0.815-2.602,0.815
	c-1.031,0-1.813-0.227-2.347-0.68c-0.532-0.453-0.799-1.162-0.799-2.125v-2.873c0-0.112,0.034-0.204,0.103-0.271
	c0.078-0.079,0.175-0.119,0.289-0.119h0.832c0.113,0,0.205,0.04,0.272,0.119c0.079,0.067,0.119,0.159,0.119,0.271v2.771
	c0,0.51,0.146,0.884,0.44,1.122c0.295,0.228,0.76,0.34,1.396,0.34c0.735,0,1.303-0.091,1.699-0.271
	c0.396-0.182,0.596-0.486,0.596-0.918v-3.043c0-0.112,0.034-0.204,0.103-0.271c0.078-0.079,0.174-0.119,0.289-0.119h0.851
	c0.112,0,0.203,0.04,0.271,0.119c0.079,0.067,0.119,0.159,0.119,0.271v8.059c0,0.112-0.04,0.21-0.119,0.289
	c-0.067,0.067-0.158,0.102-0.271,0.102L261.725,659L261.725,659z M268.198,659c-0.112,0-0.209-0.033-0.288-0.102
	c-0.068-0.079-0.104-0.177-0.104-0.289v-7.09h-2.957c-0.113,0-0.209-0.033-0.289-0.102c-0.067-0.079-0.103-0.177-0.103-0.289v-0.578
	c0-0.112,0.034-0.204,0.103-0.271c0.08-0.079,0.176-0.119,0.289-0.119h7.479c0.112,0,0.203,0.04,0.271,0.119
	c0.08,0.067,0.119,0.159,0.119,0.271v0.578c0,0.112-0.039,0.21-0.119,0.289c-0.067,0.067-0.158,0.102-0.271,0.102h-2.958v7.09
	c0,0.112-0.034,0.21-0.104,0.289c-0.066,0.067-0.158,0.102-0.271,0.102H268.198z M277.816,659.171c-1.248,0-2.217-0.352-2.906-1.055
	c-0.682-0.703-1.044-1.638-1.089-2.806l-0.018-0.73l0.018-0.73c0.045-1.155,0.413-2.085,1.104-2.787
	c0.691-0.715,1.654-1.071,2.891-1.071c1.235,0,2.197,0.356,2.891,1.071c0.689,0.702,1.059,1.632,1.104,2.787
	c0.012,0.125,0.019,0.368,0.019,0.73c0,0.363-0.007,0.605-0.019,0.73c-0.045,1.168-0.414,2.103-1.104,2.806
	C280.025,658.819,279.063,659.171,277.816,659.171z M277.816,657.861c0.714,0,1.274-0.228,1.684-0.681
	c0.419-0.452,0.646-1.104,0.68-1.955c0.012-0.112,0.018-0.328,0.018-0.646c0-0.316-0.006-0.532-0.018-0.646
	c-0.033-0.851-0.261-1.502-0.68-1.955c-0.408-0.452-0.97-0.68-1.684-0.68c-0.715,0-1.28,0.228-1.7,0.68
	c-0.42,0.453-0.642,1.104-0.662,1.955l-0.019,0.646l0.019,0.646c0.021,0.851,0.242,1.503,0.662,1.955
	C276.536,657.634,277.102,657.861,277.816,657.861z M288.514,659c-0.113,0-0.209-0.033-0.289-0.102
	c-0.067-0.079-0.102-0.177-0.102-0.289v-8.059c0-0.112,0.033-0.204,0.102-0.271c0.08-0.079,0.176-0.119,0.289-0.119h3.536
	c1.043,0,1.836,0.215,2.38,0.646c0.557,0.419,0.834,0.997,0.834,1.733c0,0.487-0.091,0.867-0.272,1.14
	c-0.181,0.262-0.459,0.486-0.833,0.681c0.408,0.17,0.727,0.453,0.951,0.85c0.238,0.396,0.357,0.822,0.357,1.275
	c0,0.815-0.289,1.438-0.867,1.869c-0.564,0.432-1.371,0.646-2.414,0.646H288.514z M291.948,653.918c0.557,0,0.991-0.119,1.31-0.357
	c0.318-0.237,0.477-0.571,0.477-1.003c0-0.419-0.152-0.714-0.459-0.884c-0.307-0.182-0.748-0.271-1.326-0.271h-2.262v2.517
	L291.948,653.918L291.948,653.918z M292.05,657.76c0.567,0,1.009-0.107,1.326-0.322c0.329-0.216,0.493-0.533,0.493-0.952
	c0-0.453-0.147-0.782-0.442-0.986c-0.294-0.215-0.753-0.322-1.377-0.322h-2.362v2.584L292.05,657.76L292.05,657.76z M298.044,659
	c-0.114,0-0.21-0.033-0.289-0.102c-0.067-0.079-0.103-0.177-0.103-0.289v-8.059c0-0.112,0.033-0.204,0.103-0.271
	c0.079-0.079,0.175-0.119,0.289-0.119h0.815c0.113,0,0.203,0.04,0.271,0.119c0.079,0.067,0.119,0.159,0.119,0.271v2.499h1.768
	c1.123,0,1.955,0.267,2.5,0.799c0.555,0.521,0.832,1.265,0.832,2.228c0,0.997-0.295,1.734-0.884,2.21
	c-0.578,0.477-1.462,0.714-2.651,0.714H298.044L298.044,659z M305.948,659c-0.113,0-0.21-0.033-0.288-0.102
	c-0.068-0.079-0.104-0.177-0.104-0.289v-8.059c0-0.112,0.034-0.204,0.104-0.271c0.078-0.079,0.175-0.119,0.288-0.119h0.815
	c0.113,0,0.204,0.04,0.272,0.119c0.078,0.067,0.118,0.159,0.118,0.271v8.059c0,0.112-0.04,0.21-0.118,0.289
	c-0.068,0.067-0.159,0.102-0.272,0.102H305.948z M300.865,657.725c0.701,0,1.207-0.125,1.514-0.374
	c0.316-0.249,0.477-0.674,0.477-1.274c0-0.602-0.159-1.043-0.477-1.326c-0.307-0.282-0.813-0.425-1.514-0.425h-1.633v3.399H300.865z
	 M314.247,659c-0.114,0-0.21-0.033-0.289-0.102c-0.067-0.079-0.103-0.177-0.103-0.289v-8.059c0-0.112,0.033-0.204,0.103-0.271
	c0.079-0.079,0.175-0.119,0.289-0.119h0.815c0.112,0,0.203,0.04,0.271,0.119c0.079,0.067,0.119,0.159,0.119,0.271v3.265h4.624
	v-3.265c0-0.112,0.032-0.204,0.102-0.271c0.079-0.079,0.175-0.119,0.289-0.119h0.8c0.112,0,0.203,0.04,0.271,0.119
	c0.079,0.067,0.119,0.159,0.119,0.271v8.059c0,0.112-0.04,0.21-0.119,0.289c-0.068,0.067-0.159,0.102-0.271,0.102h-0.8
	c-0.114,0-0.21-0.033-0.289-0.102c-0.067-0.079-0.102-0.177-0.102-0.289v-3.435h-4.624v3.435c0,0.112-0.04,0.21-0.119,0.289
	c-0.068,0.067-0.159,0.102-0.271,0.102H314.247z M327.751,659.171c-1.167,0-2.103-0.356-2.806-1.071
	c-0.69-0.725-1.07-1.711-1.139-2.958l-0.018-0.577l0.018-0.562c0.078-1.225,0.465-2.199,1.155-2.925
	c0.703-0.725,1.626-1.088,2.771-1.088c1.26,0,2.233,0.401,2.925,1.207c0.69,0.793,1.036,1.87,1.036,3.229v0.289
	c0,0.112-0.039,0.21-0.117,0.289c-0.068,0.067-0.159,0.103-0.272,0.103h-5.882v0.152c0.034,0.736,0.255,1.366,0.663,1.888
	c0.419,0.51,0.969,0.765,1.647,0.765c0.521,0,0.946-0.102,1.275-0.306c0.34-0.216,0.589-0.437,0.748-0.663
	c0.102-0.137,0.176-0.216,0.221-0.238c0.059-0.033,0.153-0.051,0.289-0.051h0.834c0.103,0,0.188,0.027,0.254,0.085
	c0.068,0.058,0.104,0.136,0.104,0.237c0,0.249-0.159,0.551-0.477,0.901c-0.307,0.351-0.742,0.656-1.31,0.918
	C329.117,659.046,328.477,659.171,327.751,659.171z M330.08,653.934v-0.051c0-0.782-0.216-1.417-0.646-1.904
	c-0.418-0.498-0.985-0.747-1.699-0.747c-0.715,0-1.28,0.249-1.699,0.747c-0.408,0.487-0.612,1.122-0.612,1.904v0.051H330.08z
	 M143.666,682.23c-0.113,0-0.21-0.04-0.289-0.119c-0.068-0.067-0.103-0.159-0.103-0.271v-11.288c0-0.112,0.034-0.204,0.103-0.271
	c0.079-0.079,0.176-0.119,0.289-0.119h0.781c0.113,0,0.204,0.04,0.271,0.119c0.079,0.067,0.119,0.159,0.119,0.271v0.748
	c0.635-0.873,1.563-1.31,2.788-1.31c1.189,0,2.08,0.374,2.669,1.122c0.601,0.748,0.924,1.711,0.969,2.891
	c0.011,0.125,0.017,0.316,0.017,0.577c0,0.262-0.006,0.453-0.017,0.578c-0.045,1.167-0.368,2.131-0.969,2.891
	c-0.602,0.748-1.49,1.122-2.669,1.122c-1.18,0-2.098-0.426-2.754-1.275v3.944c0,0.112-0.034,0.204-0.103,0.271
	c-0.067,0.078-0.159,0.118-0.271,0.118L143.666,682.23L143.666,682.23z M147.27,677.794c0.806,0,1.389-0.249,1.751-0.748
	c0.374-0.499,0.578-1.156,0.612-1.973c0.011-0.112,0.017-0.277,0.017-0.493c0-2.143-0.793-3.213-2.38-3.213
	c-0.782,0-1.371,0.262-1.768,0.782c-0.385,0.51-0.596,1.122-0.629,1.836l-0.018,0.646l0.018,0.663
	c0.022,0.669,0.237,1.252,0.646,1.751C145.928,677.544,146.511,677.794,147.27,677.794z M157.006,679.171
	c-1.247,0-2.216-0.352-2.907-1.055c-0.68-0.703-1.043-1.638-1.088-2.806l-0.017-0.73l0.017-0.73
	c0.045-1.155,0.414-2.085,1.104-2.787c0.691-0.715,1.655-1.071,2.891-1.071c1.234,0,2.199,0.356,2.89,1.071
	c0.691,0.702,1.061,1.632,1.105,2.787c0.011,0.125,0.017,0.368,0.017,0.73c0,0.363-0.006,0.605-0.017,0.73
	c-0.045,1.168-0.414,2.103-1.105,2.806C159.216,678.819,158.253,679.171,157.006,679.171z M157.006,677.861
	c0.714,0,1.274-0.228,1.683-0.681c0.419-0.452,0.646-1.104,0.681-1.955c0.011-0.112,0.017-0.328,0.017-0.646
	c0-0.316-0.006-0.532-0.017-0.646c-0.034-0.851-0.262-1.502-0.681-1.955c-0.408-0.452-0.969-0.68-1.683-0.68s-1.281,0.228-1.7,0.68
	c-0.419,0.453-0.64,1.104-0.663,1.955l-0.017,0.646l0.017,0.646c0.023,0.851,0.244,1.503,0.663,1.955
	C155.725,677.634,156.292,677.861,157.006,677.861z M170.882,674.377c0.011,0.112,0.017,0.295,0.017,0.544
	c0,0.215-0.006,0.367-0.017,0.459c-0.046,1.146-0.414,2.063-1.105,2.754c-0.68,0.69-1.644,1.037-2.89,1.037
	c-1.281,0-2.256-0.363-2.924-1.089c-0.669-0.725-1.026-1.723-1.071-2.991l-0.017-1.021l0.017-1.021
	c0.011-1.621,0.227-2.833,0.646-3.639c0.43-0.815,1.037-1.399,1.818-1.751c0.793-0.362,2.074-0.775,3.842-1.24l0.408-0.103
	l0.085-0.018c0.09,0,0.17,0.034,0.238,0.103c0.079,0.058,0.124,0.125,0.136,0.203l0.137,0.697l0.017,0.103
	c0,0.079-0.029,0.146-0.085,0.204c-0.046,0.058-0.114,0.096-0.204,0.118l-0.85,0.204c-1.305,0.316-2.239,0.589-2.806,0.816
	c-0.566,0.227-1.009,0.584-1.326,1.07c-0.306,0.477-0.476,1.189-0.51,2.143c0.272-0.408,0.657-0.737,1.156-0.986
	c0.498-0.261,1.025-0.391,1.581-0.391c1.144,0,2.034,0.351,2.669,1.054C170.49,672.33,170.836,673.243,170.882,674.377z
	 M169.25,675.311c0.011-0.078,0.017-0.21,0.017-0.391c0-0.204-0.006-0.357-0.017-0.459c-0.023-0.827-0.238-1.469-0.646-1.922
	c-0.396-0.465-0.918-0.696-1.563-0.696c-0.727,0-1.321,0.231-1.785,0.696c-0.454,0.453-0.697,1.095-0.731,1.922l-0.017,0.459
	l0.017,0.391c0.034,0.84,0.261,1.485,0.681,1.938c0.419,0.44,0.979,0.662,1.683,0.662c0.714,0,1.28-0.222,1.7-0.662
	C169.006,676.797,169.227,676.15,169.25,675.311z M176.646,679.171c-1.247,0-2.216-0.352-2.907-1.055
	c-0.68-0.703-1.043-1.638-1.088-2.806l-0.017-0.73l0.017-0.73c0.045-1.155,0.413-2.085,1.105-2.787
	c0.69-0.715,1.654-1.071,2.89-1.071s2.198,0.356,2.891,1.071c0.69,0.702,1.059,1.632,1.104,2.787
	c0.011,0.125,0.018,0.368,0.018,0.73c0,0.363-0.007,0.605-0.018,0.73c-0.046,1.168-0.414,2.103-1.104,2.806
	C178.856,678.819,177.892,679.171,176.646,679.171z M176.646,677.861c0.714,0,1.275-0.228,1.684-0.681
	c0.419-0.452,0.646-1.104,0.68-1.955c0.011-0.112,0.017-0.328,0.017-0.646c0-0.316-0.006-0.532-0.017-0.646
	c-0.034-0.851-0.261-1.502-0.68-1.955c-0.408-0.452-0.97-0.68-1.684-0.68s-1.281,0.228-1.7,0.68
	c-0.42,0.453-0.642,1.104-0.662,1.955l-0.018,0.646l0.018,0.646c0.021,0.851,0.242,1.503,0.662,1.955
	C175.365,677.635,175.932,677.861,176.646,677.861z M185.489,679c-0.112,0-0.209-0.033-0.288-0.102
	c-0.068-0.079-0.103-0.177-0.103-0.289v-7.09h-2.958c-0.113,0-0.209-0.033-0.289-0.102c-0.067-0.079-0.102-0.177-0.102-0.289v-0.578
	c0-0.112,0.034-0.204,0.102-0.271c0.08-0.079,0.176-0.119,0.289-0.119h7.48c0.113,0,0.203,0.04,0.271,0.119
	c0.08,0.067,0.119,0.159,0.119,0.271v0.578c0,0.112-0.039,0.21-0.119,0.289c-0.068,0.067-0.158,0.102-0.271,0.102h-2.958v7.09
	c0,0.112-0.034,0.21-0.103,0.289c-0.067,0.067-0.158,0.102-0.271,0.102H185.489z M191.367,680.275c-0.092,0-0.165-0.034-0.222-0.103
	c-0.046-0.067-0.063-0.153-0.051-0.255l0.391-2.432c0.045-0.329,0.204-0.493,0.477-0.493h1.139c0.079,0,0.142,0.028,0.188,0.085
	c0.056,0.058,0.085,0.125,0.085,0.204c0,0.058-0.018,0.146-0.052,0.271l-0.9,2.329c-0.058,0.136-0.119,0.231-0.188,0.289
	c-0.067,0.067-0.17,0.103-0.306,0.103L191.367,680.275L191.367,680.275z M200.277,679c-0.112,0-0.21-0.033-0.289-0.102
	c-0.067-0.079-0.103-0.177-0.103-0.289v-8.059c0-0.112,0.034-0.204,0.103-0.271c0.079-0.079,0.177-0.119,0.289-0.119h6.749
	c0.113,0,0.204,0.04,0.272,0.119c0.079,0.067,0.119,0.159,0.119,0.271v8.059c0,0.112-0.04,0.21-0.119,0.289
	c-0.068,0.067-0.159,0.102-0.272,0.102h-0.815c-0.113,0-0.204-0.033-0.272-0.102c-0.067-0.079-0.102-0.177-0.102-0.289v-7.09h-4.353
	v7.09c0,0.112-0.04,0.21-0.119,0.289c-0.067,0.067-0.158,0.102-0.271,0.102H200.277z M213.482,679.171
	c-1.168,0-2.103-0.356-2.806-1.071c-0.69-0.725-1.071-1.711-1.139-2.958l-0.019-0.577l0.019-0.562
	c0.08-1.225,0.465-2.199,1.155-2.925c0.703-0.725,1.627-1.088,2.771-1.088c1.258,0,2.232,0.401,2.924,1.207
	c0.692,0.793,1.037,1.87,1.037,3.229v0.289c0,0.112-0.039,0.21-0.118,0.289c-0.068,0.067-0.158,0.103-0.271,0.103h-5.883v0.152
	c0.033,0.736,0.256,1.366,0.662,1.888c0.42,0.51,0.971,0.765,1.649,0.765c0.521,0,0.947-0.102,1.274-0.306
	c0.341-0.216,0.591-0.437,0.748-0.663c0.103-0.137,0.177-0.216,0.222-0.238c0.058-0.033,0.151-0.051,0.289-0.051h0.833
	c0.102,0,0.188,0.027,0.255,0.085s0.103,0.136,0.103,0.237c0,0.249-0.158,0.551-0.477,0.901c-0.307,0.351-0.742,0.656-1.311,0.918
	C214.848,679.046,214.208,679.171,213.482,679.171z M215.811,673.934v-0.051c0-0.782-0.215-1.417-0.646-1.904
	c-0.419-0.498-0.986-0.747-1.7-0.747s-1.279,0.249-1.699,0.747c-0.408,0.487-0.612,1.122-0.612,1.904v0.051H215.811z
	 M219.867,682.23c-0.113,0-0.209-0.04-0.289-0.119c-0.068-0.067-0.104-0.159-0.104-0.271v-11.288c0-0.112,0.034-0.204,0.104-0.271
	c0.08-0.079,0.176-0.119,0.289-0.119h0.781c0.113,0,0.203,0.04,0.271,0.119c0.08,0.067,0.119,0.159,0.119,0.271v0.748
	c0.635-0.873,1.563-1.31,2.788-1.31c1.188,0,2.08,0.374,2.669,1.122c0.602,0.748,0.924,1.711,0.969,2.891
	c0.012,0.125,0.018,0.316,0.018,0.577c0,0.262-0.006,0.453-0.018,0.578c-0.045,1.167-0.367,2.131-0.969,2.891
	c-0.602,0.748-1.49,1.122-2.669,1.122s-2.097-0.426-2.755-1.275v3.944c0,0.112-0.033,0.204-0.103,0.271
	c-0.067,0.078-0.157,0.118-0.271,0.118L219.867,682.23L219.867,682.23z M223.471,677.794c0.805,0,1.389-0.249,1.752-0.748
	c0.373-0.499,0.577-1.156,0.611-1.973c0.012-0.112,0.018-0.277,0.018-0.493c0-2.143-0.793-3.213-2.381-3.213
	c-0.781,0-1.371,0.262-1.768,0.782c-0.387,0.51-0.596,1.122-0.63,1.836l-0.017,0.646l0.017,0.663
	c0.022,0.669,0.237,1.252,0.646,1.751S222.712,677.794,223.471,677.794z M233.122,679.171c-1.167,0-2.103-0.356-2.806-1.071
	c-0.69-0.725-1.07-1.711-1.14-2.958l-0.017-0.577l0.017-0.562c0.079-1.225,0.466-2.199,1.156-2.925
	c0.703-0.725,1.626-1.088,2.771-1.088c1.258,0,2.233,0.401,2.924,1.207c0.691,0.793,1.037,1.87,1.037,3.229v0.289
	c0,0.112-0.039,0.21-0.118,0.289c-0.067,0.067-0.158,0.103-0.271,0.103h-5.882v0.152c0.034,0.736,0.255,1.366,0.663,1.888
	c0.419,0.51,0.969,0.765,1.647,0.765c0.521,0,0.946-0.102,1.275-0.306c0.34-0.216,0.589-0.437,0.748-0.663
	c0.102-0.137,0.176-0.216,0.221-0.238c0.058-0.033,0.153-0.051,0.289-0.051h0.833c0.103,0,0.188,0.027,0.255,0.085
	c0.068,0.058,0.104,0.136,0.104,0.237c0,0.249-0.159,0.551-0.477,0.901c-0.307,0.351-0.742,0.656-1.31,0.918
	C234.488,679.046,233.848,679.171,233.122,679.171z M235.451,673.934v-0.051c0-0.782-0.217-1.417-0.646-1.904
	c-0.419-0.498-0.986-0.747-1.699-0.747c-0.715,0-1.281,0.249-1.7,0.747c-0.407,0.487-0.611,1.122-0.611,1.904v0.051H235.451z
	 M239.49,679c-0.113,0-0.21-0.033-0.288-0.102c-0.068-0.079-0.103-0.177-0.103-0.289v-8.059c0-0.112,0.033-0.204,0.103-0.271
	c0.078-0.079,0.175-0.119,0.288-0.119h3.535c1.043,0,1.837,0.215,2.381,0.646c0.556,0.419,0.833,0.997,0.833,1.733
	c0,0.487-0.091,0.867-0.271,1.14c-0.182,0.262-0.459,0.486-0.833,0.681c0.408,0.17,0.725,0.453,0.952,0.85
	c0.237,0.396,0.356,0.822,0.356,1.275c0,0.815-0.289,1.438-0.866,1.869c-0.567,0.432-1.372,0.646-2.414,0.646H239.49z
	 M242.924,673.918c0.555,0,0.991-0.119,1.309-0.357c0.318-0.237,0.478-0.571,0.478-1.003c0-0.419-0.153-0.714-0.459-0.884
	c-0.308-0.182-0.748-0.271-1.326-0.271h-2.261v2.517L242.924,673.918L242.924,673.918z M243.025,677.76
	c0.566,0,1.01-0.107,1.326-0.322c0.328-0.216,0.493-0.533,0.493-0.952c0-0.453-0.147-0.782-0.442-0.986
	c-0.295-0.215-0.754-0.322-1.377-0.322h-2.361v2.584L243.025,677.76L243.025,677.76z M252.164,679.171
	c-1.167,0-2.104-0.356-2.807-1.071c-0.689-0.725-1.069-1.711-1.139-2.958l-0.017-0.577l0.017-0.562
	c0.079-1.225,0.465-2.199,1.156-2.925c0.703-0.725,1.626-1.088,2.771-1.088c1.258,0,2.232,0.401,2.924,1.207
	c0.69,0.793,1.037,1.87,1.037,3.229v0.289c0,0.112-0.041,0.21-0.119,0.289c-0.067,0.067-0.158,0.103-0.271,0.103h-5.882v0.152
	c0.034,0.736,0.255,1.366,0.663,1.888c0.419,0.51,0.969,0.765,1.648,0.765c0.521,0,0.945-0.102,1.274-0.306
	c0.34-0.216,0.589-0.437,0.748-0.663c0.103-0.137,0.176-0.216,0.222-0.238c0.057-0.033,0.152-0.051,0.288-0.051h0.833
	c0.103,0,0.188,0.027,0.256,0.085s0.103,0.136,0.103,0.237c0,0.249-0.159,0.551-0.478,0.901c-0.306,0.351-0.742,0.656-1.309,0.918
	C253.53,679.046,252.889,679.171,252.164,679.171z M254.493,673.934v-0.051c0-0.782-0.216-1.417-0.646-1.904
	c-0.42-0.498-0.986-0.747-1.701-0.747c-0.713,0-1.28,0.249-1.699,0.747c-0.407,0.487-0.611,1.122-0.611,1.904v0.051H254.493z
	 M258.549,682.23c-0.113,0-0.21-0.04-0.289-0.119c-0.068-0.067-0.103-0.159-0.103-0.271v-11.288c0-0.112,0.034-0.204,0.103-0.271
	c0.079-0.079,0.176-0.119,0.289-0.119h0.782c0.112,0,0.204,0.04,0.271,0.119c0.08,0.067,0.119,0.159,0.119,0.271v0.748
	c0.635-0.873,1.564-1.31,2.788-1.31c1.19,0,2.079,0.374,2.669,1.122c0.601,0.748,0.924,1.711,0.969,2.891
	c0.013,0.125,0.019,0.316,0.019,0.577c0,0.262-0.006,0.453-0.019,0.578c-0.045,1.167-0.368,2.131-0.969,2.891
	c-0.601,0.748-1.49,1.122-2.669,1.122s-2.097-0.426-2.754-1.275v3.944c0,0.112-0.034,0.204-0.103,0.271
	c-0.067,0.078-0.158,0.118-0.271,0.118L258.549,682.23L258.549,682.23z M262.153,677.794c0.805,0,1.389-0.249,1.751-0.748
	c0.374-0.499,0.578-1.156,0.611-1.973c0.012-0.112,0.018-0.277,0.018-0.493c0-2.143-0.794-3.213-2.38-3.213
	c-0.781,0-1.372,0.262-1.769,0.782c-0.386,0.51-0.595,1.122-0.629,1.836l-0.018,0.646l0.018,0.663
	c0.021,0.669,0.238,1.252,0.646,1.751C260.811,677.545,261.393,677.794,262.153,677.794z M268.659,679
	c-0.114,0-0.211-0.033-0.289-0.102c-0.068-0.079-0.103-0.177-0.103-0.289v-8.059c0-0.112,0.033-0.204,0.103-0.271
	c0.078-0.079,0.175-0.119,0.289-0.119h0.815c0.112,0,0.203,0.04,0.271,0.119c0.079,0.067,0.118,0.159,0.118,0.271v3.265h4.624
	v-3.265c0-0.112,0.033-0.204,0.103-0.271c0.079-0.079,0.175-0.119,0.289-0.119h0.799c0.113,0,0.204,0.04,0.272,0.119
	c0.078,0.067,0.118,0.159,0.118,0.271v8.059c0,0.112-0.04,0.21-0.118,0.289c-0.068,0.067-0.159,0.102-0.272,0.102h-0.799
	c-0.114,0-0.21-0.033-0.289-0.102c-0.067-0.079-0.103-0.177-0.103-0.289v-3.435h-4.624v3.435c0,0.112-0.039,0.21-0.118,0.289
	c-0.068,0.067-0.159,0.102-0.271,0.102H268.659z M286.141,670.16c0.092,0,0.17,0.034,0.238,0.103
	c0.079,0.067,0.119,0.146,0.119,0.237v8.109c0,0.112-0.04,0.21-0.119,0.289c-0.068,0.067-0.159,0.102-0.271,0.102h-0.799
	c-0.113,0-0.211-0.033-0.289-0.102c-0.067-0.079-0.103-0.177-0.103-0.289v-6.172l-4.709,6.308c-0.125,0.17-0.272,0.255-0.442,0.255
	h-0.765c-0.103,0-0.192-0.033-0.272-0.102c-0.066-0.079-0.102-0.164-0.102-0.256v-8.092c0-0.112,0.034-0.204,0.102-0.271
	c0.08-0.079,0.177-0.119,0.289-0.119h0.816c0.112,0,0.204,0.04,0.271,0.119c0.078,0.067,0.119,0.159,0.119,0.271v6.138l4.691-6.273
	c0.125-0.17,0.271-0.255,0.441-0.255H286.141L286.141,670.16z M291.689,679c-0.112,0-0.209-0.033-0.289-0.102
	c-0.066-0.079-0.102-0.177-0.102-0.289v-7.09h-2.958c-0.114,0-0.21-0.033-0.289-0.102c-0.067-0.079-0.102-0.177-0.102-0.289v-0.578
	c0-0.112,0.032-0.204,0.102-0.271c0.079-0.079,0.175-0.119,0.289-0.119h7.479c0.113,0,0.203,0.04,0.271,0.119
	c0.079,0.067,0.119,0.159,0.119,0.271v0.578c0,0.112-0.04,0.21-0.119,0.289c-0.068,0.067-0.158,0.102-0.271,0.102h-2.958v7.09
	c0,0.112-0.033,0.21-0.103,0.289c-0.068,0.067-0.158,0.102-0.271,0.102H291.689z M301.222,679.171c-1.168,0-2.103-0.356-2.805-1.071
	c-0.692-0.725-1.071-1.711-1.14-2.958l-0.018-0.577l0.018-0.562c0.078-1.225,0.465-2.199,1.156-2.925
	c0.701-0.725,1.625-1.088,2.771-1.088c1.258,0,2.231,0.401,2.924,1.207c0.69,0.793,1.037,1.87,1.037,3.229v0.289
	c0,0.112-0.04,0.21-0.119,0.289c-0.067,0.067-0.159,0.103-0.272,0.103h-5.881v0.152c0.033,0.736,0.254,1.366,0.662,1.888
	c0.42,0.51,0.969,0.765,1.649,0.765c0.521,0,0.944-0.102,1.274-0.306c0.34-0.216,0.588-0.437,0.748-0.663
	c0.103-0.137,0.174-0.216,0.221-0.238c0.057-0.033,0.152-0.051,0.289-0.051h0.832c0.104,0,0.188,0.027,0.257,0.085
	c0.067,0.058,0.102,0.136,0.102,0.237c0,0.249-0.159,0.551-0.476,0.901c-0.307,0.351-0.743,0.656-1.311,0.918
	C302.587,679.046,301.947,679.171,301.222,679.171z M303.551,673.934v-0.051c0-0.782-0.216-1.417-0.646-1.904
	c-0.421-0.498-0.985-0.747-1.699-0.747c-0.715,0-1.281,0.249-1.7,0.747c-0.408,0.487-0.611,1.122-0.611,1.904v0.051H303.551z
	 M145.961,699c-0.113,0-0.21-0.033-0.289-0.102c-0.068-0.079-0.103-0.177-0.103-0.289v-7.09h-2.958c-0.112,0-0.21-0.033-0.289-0.102
	c-0.067-0.079-0.103-0.177-0.103-0.289v-0.578c0-0.112,0.034-0.204,0.103-0.271c0.079-0.079,0.177-0.119,0.289-0.119h7.48
	c0.113,0,0.204,0.04,0.271,0.119c0.079,0.067,0.119,0.159,0.119,0.271v0.578c0,0.112-0.04,0.21-0.119,0.289
	c-0.067,0.067-0.158,0.102-0.271,0.102h-2.958v7.09c0,0.112-0.034,0.21-0.103,0.289c-0.067,0.067-0.158,0.102-0.271,0.102H145.961z
	 M155.493,699.171c-1.167,0-2.103-0.356-2.806-1.071c-0.69-0.725-1.07-1.711-1.139-2.958l-0.018-0.577l0.018-0.562
	c0.08-1.225,0.465-2.199,1.156-2.925c0.703-0.725,1.627-1.088,2.771-1.088c1.258,0,2.233,0.401,2.924,1.207
	c0.692,0.793,1.037,1.87,1.037,3.229v0.289c0,0.112-0.039,0.21-0.119,0.289c-0.067,0.067-0.157,0.103-0.271,0.103h-5.882v0.152
	c0.033,0.736,0.255,1.366,0.663,1.888c0.42,0.51,0.969,0.765,1.648,0.765c0.522,0,0.947-0.102,1.275-0.306
	c0.34-0.216,0.59-0.437,0.748-0.663c0.102-0.137,0.176-0.216,0.221-0.238c0.057-0.033,0.153-0.051,0.289-0.051h0.833
	c0.102,0,0.187,0.027,0.255,0.085c0.068,0.058,0.103,0.136,0.103,0.237c0,0.249-0.157,0.551-0.477,0.901
	c-0.306,0.351-0.742,0.656-1.309,0.918C156.859,699.046,156.219,699.171,155.493,699.171z M157.822,693.934v-0.051
	c0-0.782-0.215-1.417-0.646-1.904c-0.419-0.498-0.986-0.747-1.7-0.747c-0.714,0-1.28,0.249-1.7,0.747
	c-0.407,0.487-0.611,1.122-0.611,1.904v0.051H157.822z M160.979,699c-0.114,0-0.21-0.039-0.289-0.118
	c-0.08-0.079-0.119-0.177-0.119-0.289v-0.629c0-0.113,0.034-0.204,0.103-0.271c0.067-0.068,0.153-0.103,0.255-0.103
	c0.544-0.022,0.946-0.408,1.207-1.156c0.271-0.759,0.408-1.994,0.408-3.705v-2.177c0-0.112,0.034-0.204,0.102-0.271
	c0.079-0.079,0.175-0.119,0.289-0.119h5.406c0.113,0,0.204,0.04,0.271,0.119c0.079,0.067,0.119,0.159,0.119,0.271v8.059
	c0,0.112-0.04,0.21-0.119,0.289c-0.067,0.067-0.158,0.102-0.271,0.102h-0.816c-0.113,0-0.204-0.033-0.271-0.102
	c-0.068-0.079-0.103-0.177-0.103-0.289v-7.089h-3.06v1.394c0,2.165-0.25,3.724-0.748,4.676C162.843,698.53,162.055,699,160.979,699z
	 M174.801,699.171c-1.167,0-2.103-0.356-2.805-1.071c-0.691-0.725-1.071-1.711-1.14-2.958l-0.017-0.577l0.017-0.562
	c0.079-1.225,0.465-2.199,1.156-2.925c0.703-0.725,1.626-1.088,2.771-1.088c1.258,0,2.232,0.401,2.924,1.207
	c0.69,0.793,1.037,1.87,1.037,3.229v0.289c0,0.112-0.04,0.21-0.119,0.289c-0.068,0.067-0.159,0.103-0.272,0.103h-5.882v0.152
	c0.034,0.736,0.255,1.366,0.663,1.888c0.419,0.51,0.969,0.765,1.649,0.765c0.521,0,0.945-0.102,1.274-0.306
	c0.34-0.216,0.589-0.437,0.748-0.663c0.104-0.137,0.176-0.216,0.221-0.238c0.058-0.033,0.153-0.051,0.289-0.051h0.833
	c0.103,0,0.188,0.027,0.255,0.085c0.068,0.058,0.103,0.136,0.103,0.237c0,0.249-0.159,0.551-0.477,0.901
	c-0.306,0.351-0.741,0.656-1.309,0.918C176.167,699.046,175.526,699.171,174.801,699.171z M177.13,693.934v-0.051
	c0-0.782-0.215-1.417-0.646-1.904c-0.419-0.498-0.985-0.747-1.699-0.747c-0.715,0-1.281,0.249-1.7,0.747
	c-0.408,0.487-0.612,1.122-0.612,1.904v0.051H177.13z M185.215,702.23c-0.114,0-0.21-0.04-0.289-0.119
	c-0.068-0.067-0.103-0.159-0.103-0.271V699c-1.428,0-2.505-0.34-3.229-1.02c-0.726-0.691-1.122-1.627-1.189-2.806l-0.018-0.596
	l0.018-0.595c0.067-1.167,0.465-2.098,1.189-2.788c0.736-0.69,1.813-1.037,3.229-1.037v-2.839c0-0.112,0.034-0.204,0.103-0.271
	c0.079-0.079,0.175-0.119,0.289-0.119h0.799c0.113,0,0.204,0.04,0.272,0.119c0.078,0.067,0.118,0.159,0.118,0.271v2.839
	c1.416,0,2.487,0.347,3.214,1.037c0.735,0.69,1.139,1.621,1.207,2.788c0.011,0.125,0.017,0.322,0.017,0.595
	c0,0.271-0.006,0.471-0.017,0.596c-0.068,1.179-0.466,2.113-1.19,2.806c-0.714,0.68-1.791,1.02-3.229,1.02v2.84
	c0,0.112-0.04,0.204-0.118,0.271c-0.068,0.079-0.159,0.119-0.272,0.119H185.215L185.215,702.23z M184.823,691.469
	c-1.802,0-2.748,0.878-2.839,2.635l-0.017,0.477c0,1.055,0.226,1.836,0.68,2.347c0.464,0.511,1.19,0.766,2.176,0.766V691.469z
	 M186.405,697.691c1.803,0,2.748-0.879,2.84-2.636c0.011-0.112,0.017-0.271,0.017-0.477c0-0.215-0.006-0.374-0.017-0.477
	c-0.092-1.757-1.037-2.635-2.84-2.635V697.691z M196.584,699.171c-1.247,0-2.216-0.352-2.907-1.055
	c-0.68-0.703-1.043-1.638-1.088-2.806l-0.018-0.73l0.018-0.73c0.045-1.155,0.414-2.085,1.104-2.787
	c0.691-0.715,1.655-1.071,2.891-1.071c1.234,0,2.199,0.356,2.89,1.071c0.691,0.702,1.061,1.632,1.105,2.787
	c0.011,0.125,0.017,0.368,0.017,0.73c0,0.363-0.006,0.605-0.017,0.73c-0.045,1.168-0.414,2.103-1.105,2.806
	C198.794,698.819,197.831,699.171,196.584,699.171z M196.584,697.861c0.714,0,1.274-0.228,1.683-0.681
	c0.419-0.452,0.646-1.104,0.68-1.955c0.012-0.112,0.018-0.328,0.018-0.646c0-0.316-0.006-0.532-0.018-0.646
	c-0.033-0.851-0.261-1.502-0.68-1.955c-0.408-0.452-0.969-0.68-1.683-0.68s-1.281,0.228-1.7,0.68
	c-0.419,0.453-0.64,1.104-0.663,1.955l-0.017,0.646l0.017,0.646c0.023,0.851,0.244,1.503,0.663,1.955
	C195.303,697.634,195.87,697.861,196.584,697.861z M203.115,699c-0.113,0-0.21-0.033-0.288-0.102
	c-0.068-0.079-0.103-0.177-0.103-0.289v-8.059c0-0.112,0.034-0.204,0.103-0.271c0.078-0.079,0.175-0.119,0.288-0.119h0.816
	c0.113,0,0.204,0.04,0.272,0.119c0.079,0.067,0.118,0.159,0.118,0.271v3.265h4.624v-3.265c0-0.112,0.033-0.204,0.103-0.271
	c0.079-0.079,0.175-0.119,0.289-0.119h0.799c0.113,0,0.204,0.04,0.272,0.119c0.078,0.067,0.117,0.159,0.117,0.271v8.059
	c0,0.112-0.039,0.21-0.117,0.289c-0.068,0.067-0.159,0.102-0.272,0.102h-0.799c-0.114,0-0.21-0.033-0.289-0.102
	c-0.067-0.079-0.103-0.177-0.103-0.289v-3.435h-4.624v3.435c0,0.112-0.039,0.21-0.118,0.289c-0.068,0.067-0.159,0.102-0.272,0.102
	H203.115z M217.643,699c-0.113,0-0.211-0.033-0.289-0.102c-0.067-0.079-0.103-0.177-0.103-0.289v-8.059
	c0-0.112,0.034-0.204,0.103-0.271c0.078-0.079,0.176-0.119,0.289-0.119h0.815c0.112,0,0.204,0.04,0.271,0.119
	c0.08,0.067,0.119,0.159,0.119,0.271v3.265h4.624v-3.265c0-0.112,0.034-0.204,0.104-0.271c0.077-0.079,0.176-0.119,0.288-0.119h0.8
	c0.112,0,0.204,0.04,0.271,0.119c0.079,0.067,0.119,0.159,0.119,0.271v8.059c0,0.112-0.04,0.21-0.119,0.289
	c-0.066,0.067-0.158,0.102-0.271,0.102h-0.8c-0.112,0-0.211-0.033-0.288-0.102c-0.068-0.079-0.104-0.177-0.104-0.289v-3.435h-4.624
	v3.435c0,0.112-0.039,0.21-0.119,0.289c-0.066,0.067-0.158,0.102-0.271,0.102H217.643z M230.076,699.171
	c-0.557,0-1.071-0.113-1.549-0.341c-0.476-0.227-0.854-0.532-1.139-0.918c-0.271-0.396-0.408-0.833-0.408-1.31
	c0-0.747,0.308-1.359,0.918-1.836c0.623-0.486,1.463-0.805,2.518-0.952l2.532-0.355v-0.493c0-1.156-0.662-1.733-1.988-1.733
	c-0.499,0-0.907,0.107-1.226,0.322c-0.316,0.204-0.556,0.448-0.713,0.73c-0.035,0.103-0.08,0.177-0.137,0.222
	c-0.046,0.045-0.113,0.067-0.204,0.067h-0.729c-0.104,0-0.193-0.034-0.272-0.103c-0.067-0.079-0.102-0.17-0.102-0.271
	c0.011-0.271,0.136-0.578,0.374-0.918c0.249-0.352,0.629-0.651,1.139-0.9c0.51-0.262,1.139-0.392,1.887-0.392
	c1.271,0,2.183,0.3,2.737,0.9c0.556,0.589,0.833,1.326,0.833,2.21v5.509c0,0.112-0.04,0.21-0.119,0.288
	c-0.068,0.068-0.158,0.103-0.271,0.103h-0.781c-0.114,0-0.21-0.033-0.289-0.103c-0.068-0.078-0.104-0.176-0.104-0.288v-0.73
	c-0.25,0.362-0.61,0.669-1.088,0.918C231.419,699.046,230.813,699.171,230.076,699.171z M230.434,697.895
	c0.735,0,1.336-0.237,1.801-0.714c0.478-0.486,0.715-1.185,0.715-2.091v-0.477l-1.973,0.289c-0.805,0.112-1.41,0.306-1.817,0.578
	c-0.408,0.261-0.612,0.595-0.612,1.003c0,0.452,0.188,0.805,0.561,1.054C229.48,697.776,229.923,697.895,230.434,697.895z
	 M243.18,699c-0.102,0-0.187-0.033-0.255-0.102c-0.056-0.079-0.085-0.17-0.085-0.271c0-0.079,0.021-0.153,0.068-0.222l2.601-3.621
	c-0.272,0.067-0.578,0.103-0.918,0.103c-0.804-0.012-1.519-0.197-2.143-0.562c-0.611-0.362-1.081-0.844-1.41-1.444
	c-0.328-0.602-0.493-1.241-0.493-1.922c0-0.68,0.159-1.325,0.477-1.938c0.328-0.623,0.815-1.128,1.461-1.514
	c0.646-0.386,1.43-0.578,2.348-0.578s1.699,0.188,2.346,0.562c0.658,0.374,1.151,0.867,1.479,1.479
	c0.329,0.611,0.493,1.265,0.493,1.955c0,0.611-0.106,1.155-0.323,1.632c-0.216,0.466-0.515,0.976-0.9,1.53l-3.28,4.572
	c-0.08,0.103-0.158,0.188-0.238,0.255c-0.067,0.059-0.17,0.085-0.307,0.085L243.18,699L243.18,699z M244.829,693.51
	c0.476,0,0.913-0.103,1.309-0.307c0.408-0.215,0.731-0.516,0.97-0.9c0.237-0.396,0.356-0.851,0.356-1.359
	c0-0.51-0.119-0.958-0.356-1.344c-0.237-0.396-0.562-0.696-0.97-0.9c-0.396-0.215-0.833-0.323-1.309-0.323
	c-0.478,0-0.912,0.108-1.31,0.323c-0.396,0.204-0.715,0.504-0.953,0.9c-0.226,0.386-0.34,0.833-0.34,1.344
	c0,0.51,0.114,0.963,0.34,1.359c0.238,0.385,0.558,0.687,0.953,0.9C243.917,693.407,244.354,693.51,244.829,693.51z
	 M255.365,699.171c-1.463,0-2.532-0.426-3.213-1.274c-0.68-0.851-1.043-1.967-1.088-3.35c-0.013-0.307-0.018-0.8-0.018-1.479
	c0-0.703,0.005-1.213,0.018-1.53c0.033-1.359,0.396-2.465,1.088-3.314c0.69-0.86,1.763-1.292,3.213-1.292
	c1.463,0,2.538,0.432,3.229,1.292c0.691,0.851,1.054,1.955,1.089,3.314c0.021,0.636,0.033,1.146,0.033,1.53
	c0,0.374-0.012,0.866-0.033,1.479c-0.047,1.383-0.408,2.499-1.089,3.35C257.915,698.746,256.839,699.171,255.365,699.171z
	 M255.365,697.709c0.851,0,1.49-0.283,1.922-0.851c0.441-0.567,0.674-1.366,0.695-2.396c0.022-0.657,0.035-1.134,0.035-1.429
	c0-0.316-0.013-0.781-0.035-1.395c-0.021-1.021-0.25-1.818-0.68-2.396c-0.431-0.578-1.076-0.867-1.938-0.867
	c-0.85,0-1.495,0.289-1.938,0.867c-0.431,0.578-0.657,1.377-0.68,2.396l-0.019,1.395l0.019,1.429c0.021,1.03,0.249,1.829,0.68,2.396
	C253.87,697.426,254.516,697.709,255.365,697.709z M264.066,691.759c-0.454,0-0.873-0.103-1.258-0.307
	c-0.387-0.215-0.692-0.504-0.918-0.866c-0.217-0.374-0.324-0.788-0.324-1.241s0.107-0.86,0.324-1.225
	c0.226-0.374,0.531-0.663,0.918-0.866c0.385-0.216,0.804-0.323,1.258-0.323c0.453,0,0.871,0.107,1.258,0.323
	c0.386,0.203,0.686,0.492,0.9,0.866c0.228,0.362,0.34,0.771,0.34,1.225s-0.112,0.867-0.34,1.241c-0.216,0.362-0.516,0.651-0.9,0.866
	C264.938,691.656,264.52,691.759,264.066,691.759z M264.066,690.636c0.386,0,0.696-0.119,0.936-0.356
	c0.237-0.238,0.355-0.551,0.355-0.936c0-0.386-0.118-0.697-0.355-0.936c-0.238-0.237-0.55-0.356-0.936-0.356
	c-0.387,0-0.696,0.119-0.936,0.356c-0.238,0.238-0.357,0.55-0.357,0.936c0,0.385,0.119,0.696,0.357,0.936
	C263.369,690.518,263.68,690.636,264.066,690.636z"/>
<path fill="#FFFFFF" d="M53.779,659.709h15.815v10.258h2.778v-13.845c0-1.213-0.96-2.122-2.122-2.122H53.122
	c-1.213,0-2.122,0.961-2.122,2.122v33.298c0,1.213,0.96,2.121,2.122,2.121h5.103v-8.235h-4.446V659.709z M59.185,656.122h4.901
	c0.404,0,0.707,0.304,0.707,0.707c0,0.405-0.303,0.708-0.707,0.708h-4.901c-0.403,0-0.707-0.303-0.707-0.708
	C58.478,656.426,58.831,656.122,59.185,656.122z"/>
<path fill="#FFFFFF" d="M96.827,673.149H63.581c-1.213,0-2.173,0.96-2.173,2.173V692.4c0,1.213,0.96,2.173,2.173,2.173h33.246
	c1.162,0,2.173-0.96,2.173-2.173v-17.078C99,674.16,98.04,673.149,96.827,673.149z M65.552,685.68c-1.011,0-1.769-0.809-1.769-1.769
	c0-1.011,0.809-1.818,1.769-1.818c1.01,0,1.768,0.809,1.768,1.818C67.32,684.872,66.512,685.68,65.552,685.68z M93.24,691.743
	H69.644v-15.814H93.24V691.743z M96.827,686.286c0,0.404-0.304,0.708-0.707,0.708c-0.404,0-0.708-0.304-0.708-0.708v-4.9
	c0-0.403,0.304-0.707,0.708-0.707c0.403,0,0.707,0.304,0.707,0.707V686.286z"/>
<path fill="#FFFFFF" d="M81.164,666.076c-0.253-0.253-0.354-0.557-0.354-0.858c0-0.304,0.101-0.657,0.354-0.858
	c0.505-0.506,1.263-0.506,1.769,0l1.061,1.062c-0.354-3.284-3.133-5.912-6.518-5.912c-0.707,0-1.264-0.557-1.264-1.264
	s0.557-1.263,1.264-1.263c4.8,0,8.741,3.789,9.044,8.487l1.213-1.212c0.505-0.506,1.263-0.506,1.769,0
	c0.505,0.505,0.505,1.264,0,1.769l-3.284,3.284c-0.506,0.506-1.264,0.506-1.769,0L81.164,666.076z"/>
<g>
	<path fill="#FFFFFF" d="M54.661,388.881l0.014,0.043c0.019,0.979-0.325,1.798-1.031,2.457c-0.707,0.659-1.641,0.988-2.801,0.988
		c-1.18,0-2.141-0.418-2.883-1.254c-0.743-0.835-1.114-1.896-1.114-3.18v-1.855c0-1.284,0.371-2.346,1.114-3.185
		c0.743-0.838,1.704-1.257,2.883-1.257c1.179,0,2.118,0.314,2.815,0.942s1.036,1.46,1.017,2.496l-0.014,0.043h-1.354
		c0-0.73-0.215-1.309-0.645-1.733s-1.036-0.638-1.819-0.638c-0.788,0-1.416,0.317-1.884,0.953c-0.468,0.635-0.702,1.423-0.702,2.363
		v1.87c0,0.95,0.234,1.743,0.702,2.378c0.468,0.635,1.096,0.952,1.884,0.952c0.783,0,1.39-0.211,1.819-0.634
		c0.43-0.422,0.645-1.006,0.645-1.751H54.661z"/>
	<path fill="#FFFFFF" d="M64.474,387.936c0,1.274-0.395,2.332-1.186,3.173s-1.816,1.261-3.077,1.261
		c-1.218,0-2.208-0.42-2.969-1.261c-0.762-0.841-1.143-1.898-1.143-3.173v-1.855c0-1.271,0.381-2.328,1.143-3.174
		c0.761-0.845,1.751-1.268,2.969-1.268c1.261,0,2.286,0.422,3.077,1.265s1.186,1.901,1.186,3.177V387.936z M63.063,386.065
		c0-0.955-0.258-1.738-0.773-2.35c-0.516-0.611-1.208-0.917-2.078-0.917c-0.821,0-1.477,0.306-1.966,0.917
		c-0.489,0.611-0.734,1.395-0.734,2.35v1.87c0,0.964,0.245,1.752,0.734,2.363c0.49,0.611,1.145,0.917,1.966,0.917
		c0.874,0,1.568-0.305,2.081-0.913c0.513-0.609,0.77-1.398,0.77-2.367V386.065z"/>
	<path fill="#FFFFFF" d="M66.508,392.219v-10.43h3.402c1.089,0,1.941,0.235,2.557,0.706c0.616,0.47,0.924,1.176,0.924,2.116
		c0,0.449-0.139,0.852-0.416,1.207c-0.277,0.356-0.645,0.627-1.103,0.813c0.683,0.096,1.224,0.392,1.623,0.888
		c0.398,0.497,0.598,1.082,0.598,1.755c0,0.955-0.31,1.685-0.931,2.188c-0.621,0.504-1.461,0.756-2.521,0.756H66.508z
		 M67.919,386.224h2.285c0.525,0,0.953-0.145,1.282-0.434c0.329-0.289,0.494-0.691,0.494-1.207c0-0.563-0.178-0.985-0.534-1.265
		c-0.356-0.279-0.868-0.419-1.537-0.419h-1.991V386.224z M67.919,387.326v3.789h2.722c0.645,0,1.145-0.158,1.5-0.476
		c0.355-0.318,0.534-0.768,0.534-1.351c0-0.578-0.182-1.043-0.544-1.396s-0.853-0.542-1.468-0.566H70.57H67.919z"/>
	<path fill="#FFFFFF" d="M77.246,388.035v4.184h-1.411v-10.43h3.99c1.113,0,1.978,0.287,2.597,0.859
		c0.618,0.573,0.928,1.328,0.928,2.264c0,0.946-0.31,1.703-0.928,2.271c-0.619,0.568-1.484,0.853-2.597,0.853H77.246z
		 M77.246,386.933h2.579c0.707,0,1.234-0.19,1.583-0.569c0.349-0.38,0.523-0.858,0.523-1.437s-0.175-1.061-0.526-1.447
		s-0.877-0.58-1.58-0.58h-2.579V386.933z"/>
	<path fill="#FFFFFF" d="M90.856,387.384h-4.284v3.731h5.014v1.104h-6.425v-10.43h6.347v1.11h-4.936v3.374h4.284V387.384z"/>
	<path fill="#FFFFFF" d="M98.427,390.264h0.043l3.331-8.475h1.755v10.43h-1.411v-7.814l-0.043-0.008l-3.159,7.822h-0.981
		l-3.252-8.08l-0.043,0.007v8.073h-1.411v-10.43h1.855L98.427,390.264z"/>
	<path fill="#FFFFFF" d="M111.693,387.384h-4.284v3.731h5.014v1.104h-6.425v-10.43h6.347v1.11h-4.936v3.374h4.284V387.384z"/>
	<path fill="#FFFFFF" d="M121.979,392.219h-1.411v-4.605h-5.064v4.605h-1.411v-10.43h1.411v4.714h5.064v-4.714h1.411V392.219z"/>
	<path fill="#FFFFFF" d="M132.302,392.219h-1.411v-4.605h-5.064v4.605h-1.411v-10.43h1.411v4.714h5.064v-4.714h1.411V392.219z"/>
	<path fill="#FFFFFF" d="M136.098,385.915h2.572c1.112,0,1.978,0.285,2.597,0.856c0.618,0.57,0.927,1.326,0.927,2.267
		c0,0.945-0.31,1.712-0.931,2.3c-0.621,0.587-1.485,0.881-2.593,0.881h-3.983v-10.43h1.411V385.915z M136.098,387.025v4.09h2.572
		c0.702,0,1.229-0.201,1.583-0.604c0.353-0.404,0.53-0.899,0.53-1.486c0-0.568-0.175-1.044-0.526-1.426s-0.88-0.573-1.586-0.573
		H136.098z M144.88,392.219h-1.418v-10.43h1.418V392.219z"/>
	<path fill="#FFFFFF" d="M152.96,387.384h-4.284v3.731h5.014v1.104h-6.425v-10.43h6.347v1.11h-4.936v3.374h4.284V387.384z"/>
	<path fill="#FFFFFF" d="M166.297,382.899h-3.438v9.319h-1.411v-9.319h-3.395v-1.11h8.245V382.899z"/>
	<path fill="#FFFFFF" d="M173.475,387.384h-4.284v3.731h5.014v1.104h-6.425v-10.43h6.347v1.11h-4.936v3.374h4.284V387.384z"/>
	<path fill="#FFFFFF" d="M179.313,385.858l2.435-4.069h1.705l-3.31,5.172l3.381,5.258h-1.683l-2.5-4.141l-2.507,4.141h-1.705
		l3.381-5.258l-3.309-5.172h1.69L179.313,385.858z"/>
	<path fill="#FFFFFF" d="M193.038,392.219h-1.411v-4.605h-5.064v4.605h-1.411v-10.43h1.411v4.714h5.064v-4.714h1.411V392.219z"/>
	<path fill="#FFFFFF" d="M203.438,387.936c0,1.274-0.395,2.332-1.186,3.173s-1.816,1.261-3.077,1.261
		c-1.218,0-2.208-0.42-2.969-1.261c-0.762-0.841-1.143-1.898-1.143-3.173v-1.855c0-1.271,0.381-2.328,1.143-3.174
		c0.761-0.845,1.751-1.268,2.969-1.268c1.261,0,2.286,0.422,3.077,1.265s1.186,1.901,1.186,3.177V387.936z M202.027,386.065
		c0-0.955-0.258-1.738-0.773-2.35c-0.516-0.611-1.208-0.917-2.078-0.917c-0.821,0-1.477,0.306-1.966,0.917
		c-0.489,0.611-0.734,1.395-0.734,2.35v1.87c0,0.964,0.245,1.752,0.734,2.363c0.49,0.611,1.145,0.917,1.966,0.917
		c0.874,0,1.568-0.305,2.081-0.913c0.513-0.609,0.77-1.398,0.77-2.367V386.065z"/>
	<path fill="#FFFFFF" d="M213.137,381.789v10.43h-1.41v-9.319h-3.769l-0.007,3.804c0,1.91-0.246,3.307-0.738,4.19
		c-0.492,0.884-1.308,1.325-2.45,1.325h-0.379v-1.104h0.293c0.659,0,1.134-0.34,1.426-1.021c0.291-0.681,0.439-1.811,0.444-3.392
		l0.007-4.914H213.137z"/>
	<path fill="#FFFFFF" d="M223.522,387.936c0,1.274-0.395,2.332-1.185,3.173c-0.791,0.841-1.816,1.261-3.077,1.261
		c-1.218,0-2.207-0.42-2.969-1.261s-1.143-1.898-1.143-3.173v-1.855c0-1.271,0.381-2.328,1.143-3.174
		c0.762-0.845,1.751-1.268,2.969-1.268c1.261,0,2.286,0.422,3.077,1.265c0.79,0.843,1.185,1.901,1.185,3.177V387.936z
		 M222.111,386.065c0-0.955-0.258-1.738-0.773-2.35s-1.208-0.917-2.077-0.917c-0.821,0-1.477,0.306-1.966,0.917
		c-0.49,0.611-0.734,1.395-0.734,2.35v1.87c0,0.964,0.244,1.752,0.734,2.363c0.489,0.611,1.145,0.917,1.966,0.917
		c0.874,0,1.567-0.305,2.081-0.913c0.514-0.609,0.77-1.398,0.77-2.367V386.065z"/>
	<path fill="#FFFFFF" d="M231.904,382.899h-4.985v9.319h-1.411v-10.43h6.396V382.899z"/>
	<path fill="#FFFFFF" d="M240.099,381.789h1.411v10.43h-1.411v-7.951l-0.043-0.015l-5.021,7.966h-1.411v-10.43h1.411v7.944
		l0.043,0.014L240.099,381.789z"/>
	<path fill="#FFFFFF" d="M250.414,381.789h1.411v10.43h-1.411v-7.951l-0.043-0.015l-5.021,7.966h-1.411v-10.43h1.411v7.944
		l0.043,0.014L250.414,381.789z"/>
	<path fill="#FFFFFF" d="M265.17,382.899h-3.438v9.319h-1.411v-9.319h-3.396v-1.11h8.245V382.899z"/>
	<path fill="#FFFFFF" d="M273.149,381.789h1.411v10.43h-1.411v-7.951l-0.043-0.015l-5.021,7.966h-1.411v-10.43h1.411v7.944
		l0.043,0.014L273.149,381.789z"/>
	<path fill="#FFFFFF" d="M282.139,390.264h0.043l3.331-8.475h1.755v10.43h-1.411v-7.814l-0.043-0.008l-3.159,7.822h-0.981
		l-3.252-8.08l-0.043,0.007v8.073h-1.411v-10.43h1.855L282.139,390.264z"/>
	<path fill="#FFFFFF" d="M296.057,382.899h-4.985v3.016h2.571c1.112,0,1.978,0.285,2.597,0.856c0.618,0.57,0.928,1.326,0.928,2.267
		c0,0.945-0.311,1.712-0.932,2.3c-0.621,0.587-1.485,0.881-2.593,0.881h-3.982v-10.43h6.396V382.899z M291.071,387.025v4.09h2.571
		c0.702,0,1.229-0.201,1.583-0.604c0.354-0.404,0.53-0.899,0.53-1.486c0-0.568-0.176-1.044-0.526-1.426
		c-0.352-0.382-0.88-0.573-1.587-0.573H291.071z"/>
	<path fill="#FFFFFF" d="M305.462,381.789h1.411v10.43h-1.411v-7.951l-0.043-0.015l-5.021,7.966h-1.411v-10.43h1.411v7.944
		l0.043,0.014L305.462,381.789z"/>
	<path fill="#FFFFFF" d="M317.288,381.789v10.43h-1.411v-9.319h-3.768l-0.008,3.804c0,1.91-0.246,3.307-0.737,4.19
		c-0.492,0.884-1.309,1.325-2.45,1.325h-0.38v-1.104h0.294c0.659,0,1.134-0.34,1.426-1.021c0.291-0.681,0.439-1.811,0.444-3.392
		l0.007-4.914H317.288z"/>
	<path fill="#FFFFFF" d="M329.516,394.776h-1.411v-2.558h-7.665v2.571h-1.411v-3.675h0.745c0.63,0,1.102-0.433,1.415-1.3
		c0.313-0.866,0.512-2.136,0.598-3.807l0.236-4.22h6.067v9.326h1.426V394.776z M323.212,386.009
		c-0.063,1.188-0.19,2.209-0.384,3.062s-0.474,1.534-0.842,2.045h4.692v-8.216h-3.303L323.212,386.009z"/>
	<path fill="#FFFFFF" d="M337.639,381.789h1.411v10.43h-1.411v-7.951l-0.043-0.015l-5.021,7.966h-1.411v-10.43h1.411v7.944
		l0.043,0.014L337.639,381.789z"/>
	<path fill="#FFFFFF" d="M349.343,392.219h-1.411v-4.605h-5.064v4.605h-1.411v-10.43h1.411v4.714h5.064v-4.714h1.411V392.219z"/>
	<path fill="#FFFFFF" d="M358.125,382.899h-4.985v9.319h-1.411v-10.43h6.396V382.899z"/>
	<path fill="#FFFFFF" d="M363.819,389.532h-3.926l-0.931,2.687h-1.44l3.761-10.43h1.211l3.682,10.43h-1.439L363.819,389.532z
		 M360.302,388.351h3.116l-1.519-4.477h-0.043L360.302,388.351z"/>
</g>
<g>
	<path fill="#FFFFFF" d="M156.555,346.04h-1.592v-2.789h-8.649v2.805h-1.592v-4.008h0.841c0.711,0,1.243-0.473,1.596-1.418
		s0.578-2.329,0.675-4.152l0.267-4.602h6.847v10.172h1.608V346.04z M149.442,336.478c-0.07,1.297-0.214,2.41-0.433,3.34
		s-0.535,1.673-0.95,2.23h5.294v-8.961h-3.726L149.442,336.478z"/>
	<path fill="#FFFFFF" d="M164.816,337.978h-4.833v4.07h5.658v1.203h-7.251v-11.375h7.162v1.211h-5.569v3.68h4.833V337.978z"/>
	<path fill="#FFFFFF" d="M176.424,331.876v11.375h-1.592v-10.164h-4.252l-0.008,4.148c0,2.083-0.277,3.607-0.833,4.57
		c-0.555,0.964-1.477,1.445-2.764,1.445h-0.429v-1.203h0.332c0.744,0,1.28-0.371,1.608-1.113s0.496-1.975,0.501-3.699l0.008-5.359
		H176.424z"/>
	<path fill="#FFFFFF" d="M185.38,340.321h-4.43l-1.051,2.93h-1.625l4.244-11.375h1.366l4.155,11.375h-1.625L185.38,340.321z
		 M181.412,339.032h3.516l-1.713-4.883h-0.049L181.412,339.032z"/>
	<path fill="#FFFFFF" d="M196.196,337.978h-4.833v4.07h5.658v1.203h-7.251v-11.375h7.162v1.211h-5.569v3.68h4.833V337.978z"/>
	<path fill="#FFFFFF" d="M204.74,341.118h0.048l3.758-9.242h1.98v11.375h-1.592v-8.523l-0.049-0.008l-3.564,8.531h-1.107
		l-3.67-8.813l-0.048,0.008v8.805h-1.593v-11.375h2.094L204.74,341.118z"/>
	<path fill="#FFFFFF" d="M226.299,343.251h-1.593v-5.023h-5.715v5.023h-1.593v-11.375h1.593v5.141h5.715v-5.141h1.593V343.251z"/>
	<path fill="#FFFFFF" d="M235.271,340.321h-4.43l-1.051,2.93h-1.625l4.244-11.375h1.365l4.155,11.375h-1.625L235.271,340.321z
		 M231.303,339.032h3.516l-1.714-4.883h-0.048L231.303,339.032z"/>
	<path fill="#FFFFFF" d="M247.97,339.61l0.017,0.047c0.021,1.068-0.366,1.961-1.164,2.68s-1.852,1.078-3.161,1.078
		c-1.331,0-2.415-0.456-3.253-1.367c-0.838-0.911-1.257-2.067-1.257-3.469v-2.023c0-1.401,0.419-2.559,1.257-3.473
		s1.922-1.371,3.253-1.371s2.391,0.343,3.177,1.027c0.787,0.685,1.17,1.593,1.148,2.723l-0.017,0.047h-1.527
		c0-0.797-0.242-1.427-0.728-1.891c-0.485-0.463-1.17-0.695-2.054-0.695c-0.889,0-1.598,0.347-2.125,1.039
		c-0.528,0.693-0.793,1.552-0.793,2.578v2.039c0,1.037,0.265,1.901,0.793,2.594c0.527,0.693,1.236,1.039,2.125,1.039
		c0.884,0,1.568-0.23,2.054-0.691s0.728-1.098,0.728-1.91H247.97z"/>
	<path fill="#FFFFFF" d="M258.05,333.087h-3.881v10.164h-1.592v-10.164h-3.832v-1.211h9.305V333.087z"/>
	<path fill="#FFFFFF" d="M268.485,338.579c0,1.391-0.446,2.544-1.338,3.461c-0.893,0.917-2.05,1.375-3.472,1.375
		c-1.375,0-2.491-0.458-3.351-1.375c-0.86-0.917-1.29-2.07-1.29-3.461v-2.023c0-1.385,0.43-2.539,1.29-3.461
		c0.859-0.922,1.976-1.383,3.351-1.383c1.422,0,2.579,0.46,3.472,1.379c0.892,0.919,1.338,2.074,1.338,3.465V338.579z
		 M266.893,336.54c0-1.042-0.291-1.896-0.873-2.563c-0.582-0.667-1.363-1-2.344-1c-0.928,0-1.667,0.333-2.22,1
		c-0.552,0.667-0.828,1.521-0.828,2.563v2.039c0,1.052,0.276,1.912,0.828,2.578c0.553,0.667,1.292,1,2.22,1
		c0.985,0,1.769-0.332,2.348-0.996s0.869-1.524,0.869-2.582V336.54z"/>
	<path fill="#FFFFFF" d="M271.452,343.251h-1.689l2.765-5.164c-0.766-0.266-1.346-0.646-1.742-1.141
		c-0.396-0.495-0.594-1.096-0.594-1.805c0-1.036,0.369-1.84,1.107-2.41s1.757-0.855,3.056-0.855h3.767v11.375h-1.593v-4.758h-2.61
		L271.452,343.251z M276.528,333.087h-2.174c-0.841,0-1.479,0.181-1.916,0.543c-0.437,0.362-0.654,0.861-0.654,1.496
		c0,0.641,0.219,1.159,0.658,1.555c0.439,0.396,1.071,0.594,1.896,0.594h2.19V333.087z"/>
	<path fill="#FFFFFF" d="M282.114,331.876v10.172h4.785v-10.172h1.585v10.172h4.761v-10.172h1.593v10.148h1.374v4.039h-1.593v-2.813
		h-14.098v-11.375H282.114z"/>
	<path fill="#FFFFFF" d="M305.265,331.876h1.592v11.375h-1.592v-8.672l-0.049-0.016l-5.666,8.688h-1.593v-11.375h1.593v8.664
		l0.048,0.016L305.265,331.876z"/>
	<path fill="#FFFFFF" d="M316,337.978h-4.834v4.07h5.658v1.203h-7.251v-11.375h7.162v1.211h-5.569v3.68H316V337.978z"/>
	<path fill="#FFFFFF" d="M330.153,331.876h1.592v11.375h-1.592v-8.672l-0.049-0.016l-5.666,8.688h-1.593v-11.375h1.593v8.664
		l0.048,0.016L330.153,331.876z"/>
	<path fill="#FFFFFF" d="M341.624,333.087h-5.626v10.164h-1.593v-11.375h7.219V333.087z"/>
	<path fill="#FFFFFF" d="M345.132,338.688v4.563h-1.593v-11.375h4.503c1.255,0,2.231,0.313,2.93,0.938s1.047,1.448,1.047,2.469
		c0,1.031-0.349,1.857-1.047,2.477c-0.698,0.62-1.675,0.93-2.93,0.93H345.132z M345.132,337.485h2.91
		c0.797,0,1.393-0.207,1.786-0.621s0.59-0.936,0.59-1.566c0-0.63-0.198-1.156-0.594-1.578c-0.396-0.422-0.99-0.633-1.782-0.633
		h-2.91V337.485z"/>
	<path fill="#FFFFFF" d="M355.6,336.376h2.901c1.256,0,2.232,0.312,2.931,0.934c0.698,0.623,1.047,1.447,1.047,2.473
		c0,1.031-0.351,1.867-1.051,2.508c-0.701,0.641-1.676,0.961-2.927,0.961h-4.494v-11.375h1.593V336.376z M355.6,337.587v4.461h2.901
		c0.793,0,1.388-0.22,1.787-0.66c0.398-0.44,0.598-0.98,0.598-1.621c0-0.62-0.198-1.138-0.594-1.555
		c-0.396-0.417-0.993-0.625-1.791-0.625H355.6z M365.51,343.251h-1.601v-11.375h1.601V343.251z"/>
</g>
</svg>
