<svg xmlns="http://www.w3.org/2000/svg" xmlns:xlink="http://www.w3.org/1999/xlink"><symbol id="arrow-left" viewBox="0 0 48 48">
  <circle cx="24" cy="24" r="23" fill="none" stroke="currentcolor" stroke-width="2"/>
  <path d="M20 32L12 24L20 16" fill="none" stroke="currentcolor" stroke-width="2" stroke-linecap="round"/>
  <path d="M12 24H37" stroke="currentcolor" stroke-width="2" stroke-linecap="round"/>
</symbol><symbol id="arrow-right" viewBox="0 0 48 48">
<circle cx="24" cy="24" r="23" fill="none" transform="rotate(180 24 24)" stroke="currentcolor" stroke-width="2"/>
<path d="M28 16L36 24L28 32" fill="none" stroke="currentcolor" stroke-width="2" stroke-linecap="round"/>
<path d="M36 24L11 24" stroke="currentcolor" stroke-width="2" stroke-linecap="round"/>
</symbol><symbol id="badge" viewBox="0 0 22 15">
<path d="M10.0453 4.04517L10.3411 4.35774H10.7715H21V14H1.03264V7.93933V7.69483L1 7.63207V1H7.16288L10.0453 4.04517Z" stroke="#232323" stroke-width="2"/>
</symbol><symbol id="icon-deer" viewBox="0 0 39 45">
<path d="M19 32.0054C21.2523 32.0054 23 30.9077 23 29.4999C23 28.0921 21.2492 27.0054 19 27.0054C16.7508 27.0054 15 28.1031 15 29.5109C15 30.9187 16.7477 32.0054 19 32.0054Z" fill="#ffffff"/>
<path d="M15.8 22.302C15.504 22.4998 15.156 22.6054 14.8 22.6054C14.3226 22.6054 13.8648 22.4157 13.5272 22.0782C13.1896 21.7406 13 21.2828 13 20.8054C13 20.4494 13.1056 20.1014 13.3034 19.8053C13.5011 19.5093 13.7823 19.2786 14.1112 19.1424C14.4401 19.0062 14.802 18.9705 15.1512 19.04C15.5003 19.1094 15.8211 19.2808 16.0728 19.5326C16.3245 19.7843 16.496 20.105 16.5654 20.4542C16.6349 20.8034 16.5992 21.1653 16.463 21.4942C16.3267 21.8231 16.096 22.1042 15.8 22.302Z" fill="#ffffff"/>
<path d="M23.8 22.302C23.504 22.4998 23.156 22.6054 22.8 22.6054C22.3226 22.6054 21.8648 22.4157 21.5272 22.0782C21.1896 21.7406 21 21.2828 21 20.8054C21 20.4494 21.1056 20.1014 21.3034 19.8053C21.5011 19.5093 21.7823 19.2786 22.1112 19.1424C22.4401 19.0062 22.802 18.9705 23.1512 19.04C23.5003 19.1094 23.8211 19.2808 24.0728 19.5326C24.3245 19.7843 24.496 20.105 24.5654 20.4542C24.6349 20.8034 24.5992 21.1653 24.463 21.4942C24.3267 21.8231 24.096 22.1042 23.8 22.302Z" fill="#ffffff"/>
<path d="M37.6491 13.6113L35.0091 12.2763C34.1244 11.8319 33.1261 11.6648 32.1449 11.7969C31.1636 11.9289 30.245 12.3539 29.5091 13.0163L27.5091 14.8313C27.0806 14.5058 26.6313 14.2085 26.1641 13.9413C30.4841 9.90132 31.2841 2.74133 31.3141 2.44133C31.3732 1.8691 31.2041 1.29668 30.8438 0.848294C30.4834 0.399911 29.9607 0.111742 29.3891 0.0463252H29.3091C28.7417 -0.00245163 28.1779 0.174353 27.7398 0.538424C27.3018 0.902495 27.0249 1.4245 26.9691 1.99133C26.6988 3.98522 26.1344 5.92801 25.2941 7.75633L23.0791 6.54133C22.8327 6.384 22.5572 6.27775 22.2689 6.22886C21.9806 6.17996 21.6854 6.18943 21.4009 6.25669C21.1163 6.32395 20.8482 6.44763 20.6123 6.62042C20.3764 6.79321 20.1776 7.01158 20.0277 7.2626C19.8777 7.51362 19.7797 7.79218 19.7394 8.08178C19.6991 8.37138 19.7173 8.66613 19.7929 8.94856C19.8686 9.23099 20.0002 9.49536 20.1799 9.72601C20.3596 9.95666 20.5838 10.1489 20.8391 10.2913L22.6041 11.2513C21.9815 11.7147 21.2673 12.0402 20.5091 12.2063C20.0091 12.1563 19.5091 12.1313 19.0091 12.1313C18.5091 12.1313 18.0091 12.1613 17.5091 12.2063C16.7545 12.0389 16.0439 11.7134 15.4241 11.2513L17.2191 10.2513C17.6982 9.94556 18.0392 9.46521 18.1699 8.91218C18.3006 8.35914 18.2108 7.77693 17.9193 7.28907C17.6279 6.8012 17.1579 6.44606 16.609 6.299C16.0601 6.15193 15.4754 6.2245 14.9791 6.50133L12.7591 7.72133C11.9178 5.89483 11.3516 3.95376 11.0791 1.96133C11.0233 1.39786 10.7494 0.878543 10.316 0.514219C9.88251 0.149895 9.32382 -0.0305762 8.75915 0.0113253H8.69915C8.12303 0.0718205 7.59452 0.358616 7.22979 0.808664C6.86506 1.25871 6.69398 1.83518 6.75415 2.41133C6.78915 2.73133 7.58415 9.91133 11.9041 13.9113C11.4371 14.1769 10.9878 14.4725 10.5591 14.7963L8.55915 12.9813C7.82364 12.3183 6.90499 11.8929 5.92358 11.7608C4.94216 11.6288 3.94375 11.7963 3.05915 12.2413L0.409147 13.6113C0.24028 13.6975 0.110305 13.8444 0.0453695 14.0225C-0.0195658 14.2006 -0.014643 14.3967 0.0591473 14.5713L1.21415 17.2963C1.58921 18.1813 2.21525 18.937 3.01496 19.4701C3.81467 20.0032 4.75303 20.2905 5.71415 20.2963H5.87915L6.81915 20.2663C6.66065 20.911 6.58007 21.5724 6.57915 22.2363C6.57915 22.3163 6.57915 22.4013 6.57915 22.4813C6.58416 23.0471 6.46909 23.6074 6.24155 24.1254C6.01401 24.6434 5.67917 25.1073 5.25915 25.4863C3.00415 27.5813 1.81415 30.0863 1.81415 32.7263C1.81415 39.3613 9.52415 44.7563 19.0041 44.7563C28.4841 44.7563 36.2191 39.3813 36.2191 32.7263C36.2191 30.0863 35.0291 27.5813 32.7741 25.4863C32.3537 25.1031 32.0198 24.6346 31.7947 24.1121C31.5697 23.5896 31.4587 23.0251 31.4691 22.4563C31.4691 22.3763 31.4691 22.2913 31.4691 22.2113C31.4682 21.5474 31.3876 20.886 31.2291 20.2413L32.1691 20.2713H32.3341C33.2953 20.2655 34.2336 19.9782 35.0333 19.4451C35.833 18.912 36.4591 18.1563 36.8341 17.2713L37.9891 14.5463C38.0565 14.3759 38.0591 14.1866 37.9965 14.0143C37.9339 13.8421 37.8103 13.6987 37.6491 13.6113ZM24.6491 10.9663C24.6321 10.851 24.5885 10.7413 24.5216 10.6458C24.4548 10.5504 24.3666 10.4718 24.2641 10.4163L21.5841 8.95632C21.4687 8.88574 21.3767 8.78253 21.3198 8.65972C21.2629 8.5369 21.2437 8.39999 21.2645 8.26626C21.2854 8.13253 21.3454 8.00798 21.437 7.90832C21.5286 7.80867 21.6476 7.73838 21.7791 7.70633C21.8717 7.6843 21.9677 7.68137 22.0614 7.6977C22.1551 7.71403 22.2445 7.74929 22.3241 7.80133L25.2591 9.40632C25.4315 9.49644 25.6322 9.51605 25.8188 9.461C26.0054 9.40596 26.1633 9.28058 26.2591 9.11132C27.3904 6.92262 28.1331 4.55411 28.4541 2.11133C28.4827 1.93886 28.5761 1.78383 28.7153 1.678C28.8544 1.57217 29.0287 1.52354 29.2026 1.54207C29.3764 1.5606 29.5366 1.6449 29.6503 1.77769C29.764 1.91048 29.8226 2.08171 29.8141 2.25633C29.7841 2.56133 28.9891 9.67132 24.6991 13.2163C24.1872 13.002 23.6629 12.8184 23.1291 12.6663C23.5988 12.3562 24.0345 11.9976 24.4291 11.5963C24.5137 11.5164 24.5786 11.4178 24.6185 11.3085C24.6584 11.1991 24.6723 11.082 24.6591 10.9663H24.6491ZM8.22415 2.26133C8.21498 2.17221 8.22351 2.08216 8.24926 1.99636C8.275 1.91055 8.31744 1.83068 8.37415 1.76133C8.43544 1.68708 8.51158 1.62648 8.5977 1.58342C8.68381 1.54037 8.77798 1.51581 8.87415 1.51133C9.05142 1.49736 9.22712 1.5534 9.36357 1.66742C9.50003 1.78145 9.58639 1.94439 9.60415 2.12133C9.92507 4.56413 10.6678 6.93265 11.7991 9.12132C11.895 9.29058 12.0529 9.41596 12.2395 9.471C12.4261 9.52605 12.6267 9.50644 12.7991 9.41632L15.7591 7.78632C15.9089 7.69528 16.0884 7.66656 16.2591 7.70633C16.4344 7.7501 16.5854 7.86136 16.679 8.01588C16.7727 8.1704 16.8015 8.35566 16.7591 8.53132C16.7211 8.69718 16.6209 8.84212 16.4791 8.93633L13.7691 10.4363C13.6663 10.4918 13.5778 10.5704 13.5108 10.6661C13.4438 10.7618 13.4 10.8718 13.383 10.9874C13.366 11.103 13.3762 11.2209 13.4129 11.3319C13.4496 11.4428 13.5116 11.5436 13.5941 11.6263C13.9905 12.0263 14.4279 12.3832 14.8991 12.6913C14.3654 12.8434 13.8411 13.027 13.3291 13.2413C9.04915 9.67632 8.25915 2.57133 8.22415 2.26133ZM5.82915 18.7613C5.14496 18.7816 4.47052 18.5954 3.89356 18.2271C3.3166 17.8588 2.86383 17.3254 2.59415 16.6963L1.70915 14.6313L3.70915 13.6313C4.3203 13.3232 5.01005 13.2061 5.68866 13.2952C6.36728 13.3844 7.00335 13.6757 7.51415 14.1313L9.37915 15.8213C9.17915 16.0213 8.98415 16.2313 8.80415 16.4413L6.09415 15.4413C5.99975 15.3999 5.89783 15.3784 5.79474 15.3781C5.69165 15.3778 5.58962 15.3988 5.495 15.4397C5.40039 15.4806 5.31522 15.5406 5.24483 15.6159C5.17443 15.6913 5.12032 15.7803 5.08587 15.8774C5.05141 15.9746 5.03736 16.0778 5.04458 16.1806C5.05181 16.2835 5.08015 16.3837 5.12785 16.4751C5.17554 16.5665 5.24157 16.6471 5.3218 16.7118C5.40203 16.7765 5.49474 16.824 5.59415 16.8513L7.89415 17.6913C7.68918 18.0227 7.50547 18.3667 7.34415 18.7213L5.82915 18.7613ZM31.7591 26.5863C33.6991 28.3913 34.7291 30.5113 34.7291 32.7263C34.7291 38.5313 27.6891 43.2563 19.0391 43.2563C10.3891 43.2563 3.33415 38.5313 3.33415 32.7263C3.33415 30.5113 4.35915 28.3913 6.30415 26.5863C6.88147 26.0566 7.33894 25.4096 7.64592 24.6887C7.9529 23.9678 8.10231 23.1896 8.08415 22.4063C8.08415 22.3413 8.08415 22.2763 8.08415 22.2113C8.08415 17.4613 12.9941 13.5963 19.0291 13.5963C19.4841 13.5963 20.5041 13.6863 20.5691 13.6813C25.8741 14.2763 29.9691 17.8813 29.9691 22.2113C29.9691 22.2763 29.9691 22.3413 29.9691 22.4063C29.9522 23.1904 30.1032 23.969 30.4119 24.69C30.7207 25.4109 31.18 26.0575 31.7591 26.5863ZM35.4691 16.7113C35.1989 17.34 34.746 17.873 34.1692 18.2413C33.5923 18.6095 32.9182 18.7959 32.2341 18.7763L30.7341 18.7263C30.5728 18.3717 30.3891 18.0277 30.1841 17.6963L32.4841 16.8563C32.5836 16.829 32.6763 16.7815 32.7565 16.7168C32.8367 16.6521 32.9028 16.5715 32.9504 16.4801C32.9981 16.3887 33.0265 16.2885 33.0337 16.1856C33.0409 16.0828 33.0269 15.9796 32.9924 15.8824C32.958 15.7853 32.9039 15.6963 32.8335 15.6209C32.7631 15.5456 32.6779 15.4857 32.5833 15.4447C32.4887 15.4038 32.3866 15.3828 32.2836 15.3831C32.1805 15.3834 32.0785 15.4049 31.9841 15.4463L29.2741 16.4463C29.0891 16.2313 28.8991 16.0263 28.6991 15.8263L30.5641 14.1363C31.0749 13.6807 31.711 13.3894 32.3896 13.3002C33.0682 13.2111 33.758 13.3282 34.3691 13.6363L36.3691 14.6363L35.4691 16.7113Z" fill="#ffffff"/>
<path d="M15.5553 37.3223C16.647 37.7754 17.8177 38.0076 18.9997 38.0054C20.1817 38.0076 21.3524 37.7754 22.4441 37.3223C23.5358 36.8691 24.5268 36.204 25.3597 35.3654L26.7797 36.7854C25.7582 37.8073 24.5454 38.6181 23.2104 39.1712C21.8755 39.7243 20.4447 40.009 18.9997 40.009C17.5548 40.009 16.1239 39.7243 14.789 39.1712C13.4541 38.6181 12.2412 37.8073 11.2197 36.7854L12.6397 35.3654C13.4727 36.204 14.4637 36.8691 15.5553 37.3223Z" fill="#ffffff"/>
</symbol><symbol id="icon-game" viewBox="0 0 44 45">
<path d="M38 21.0054C37.763 17.1046 36.1065 13.4255 33.3432 10.6622C30.5798 7.89888 26.9007 6.24242 23 6.00537V0.00537109H21V6.00537C17.0993 6.24242 13.4202 7.89888 10.6568 10.6622C7.8935 13.4255 6.23705 17.1046 6 21.0054H0V23.0054H6C6.23705 26.9061 7.8935 30.5852 10.6568 33.3485C13.4202 36.1119 17.0993 37.7683 21 38.0054V44.0054H23V38.0054C26.9007 37.7683 30.5798 36.1119 33.3432 33.3485C36.1065 30.5852 37.763 26.9061 38 23.0054H44V21.0054H38ZM22 36.0054C19.2311 36.0054 16.5243 35.1843 14.222 33.6459C11.9197 32.1076 10.1253 29.9211 9.06569 27.3629C8.00606 24.8048 7.72881 21.9898 8.26901 19.2741C8.8092 16.5584 10.1426 14.0638 12.1005 12.1059C14.0584 10.1479 16.553 8.81457 19.2687 8.27438C21.9845 7.73418 24.7994 8.01143 27.3576 9.07106C29.9157 10.1307 32.1022 11.9251 33.6406 14.2274C35.1789 16.5297 36 19.2364 36 22.0054C36 25.7184 34.525 29.2794 31.8995 31.9049C29.274 34.5304 25.713 36.0054 22 36.0054ZM22 20.5054C21.7033 20.5054 21.4133 20.5933 21.1666 20.7582C20.92 20.923 20.7277 21.1573 20.6142 21.4313C20.5007 21.7054 20.4709 22.007 20.5288 22.298C20.5867 22.589 20.7296 22.8563 20.9393 23.066C21.1491 23.2758 21.4164 23.4187 21.7074 23.4765C21.9983 23.5344 22.2999 23.5047 22.574 23.3912C22.8481 23.2777 23.0824 23.0854 23.2472 22.8387C23.412 22.5921 23.5 22.302 23.5 22.0054C23.4948 21.6092 23.3351 21.2306 23.0549 20.9504C22.7747 20.6702 22.3962 20.5106 22 20.5054Z" fill="#ffffff"/>
</symbol><symbol id="icon-pin" viewBox="0 0 36 49">
<path d="M18.0105 46.6707L17.3453 46.0733C17.3052 46.0341 17.2406 45.9726 17.1534 45.8897C16.1938 44.9766 12.5089 41.4707 8.88063 36.6641C4.82266 31.2883 1 24.4929 1 18.058C1 13.5344 2.79177 9.19671 5.98022 5.99894C9.16856 2.80127 13.4923 1.00537 18 1.00537C22.5077 1.00537 26.8314 2.80127 30.0198 5.99894C33.2082 9.19671 35 13.5344 35 18.058C35 24.5031 31.1771 31.2986 27.1217 36.6743C23.646 41.2815 20.1465 44.6664 18.995 45.7801C18.8477 45.9226 18.7387 46.028 18.6733 46.0939L18.0105 46.6707Z" stroke="#ffffff" stroke-width="2"/>
<path d="M23 18.0054C23 20.7668 20.7614 23.0054 18 23.0054C15.2386 23.0054 13 20.7668 13 18.0054C13 15.2439 15.2386 13.0054 18 13.0054C20.7614 13.0054 23 15.2439 23 18.0054Z" stroke="#ffffff" stroke-width="2"/>
</symbol><symbol id="icon-run" viewBox="0 0 55 55">
<line x1="8.74228e-08" y1="17.0054" x2="19" y2="17.0054" stroke="#ffffff" stroke-width="2"/>
<line x1="8" y1="24.0054" x2="17" y2="24.0054" stroke="#ffffff" stroke-width="2"/>
<line x1="13" y1="11.0054" x2="31" y2="11.0054" stroke="#ffffff" stroke-width="2"/>
<path d="M47.4132 10.3332C48.4308 7.76616 47.1747 4.86018 44.6076 3.84257C42.0405 2.82496 39.1346 4.08106 38.117 6.64815C37.0994 9.21523 38.3554 12.1212 40.9225 13.1388C43.4896 14.1564 46.3956 12.9003 47.4132 10.3332Z" stroke="#ffffff" stroke-width="2"/>
<path d="M51.5131 25.8148L47.1528 25.6188L44.7032 21.0626C44.0663 19.8378 42.9395 18.8579 41.6657 18.319L37.1094 16.5063C35.8846 16.0164 34.5618 15.9674 33.288 16.3103L27.7519 17.8781C27.262 18.0251 26.8211 18.319 26.5271 18.76L23.1467 23.6592C22.4608 24.688 22.7057 26.0598 23.7346 26.7457C24.7634 27.4316 26.1352 27.1866 26.8211 26.1578L29.7606 21.8954L33.288 20.8666L28.8297 32.0368L25.4493 37.5729L17.9045 36.6911C16.4837 36.5441 15.2099 37.5729 15.014 38.9937C14.867 40.4145 15.8958 41.6883 17.3166 41.8842L26.4781 42.9131C26.5761 42.9131 26.6741 42.9131 26.7721 42.9131C27.6539 42.9131 28.4868 42.4721 28.9767 41.6883L33.0921 34.9763L37.6483 42.3251L38.9711 50.8008C39.1671 52.0746 40.2939 53.0054 41.5187 53.0054C41.6657 53.0054 41.7637 53.0054 41.9106 52.9564C43.3314 52.7605 44.3113 51.4377 44.1153 50.0169L42.7925 41.0514C42.7435 40.7084 42.5965 40.3655 42.4496 40.0715L38.1872 33.2616L41.6657 24.737L43.8703 28.8523C44.2623 29.5382 44.9481 29.9791 45.732 30.0281L51.3661 30.2731C51.4151 30.2731 51.4151 30.2731 51.4641 30.2731C52.6399 30.2731 53.6197 29.3422 53.6687 28.1664C53.7177 26.9416 52.7379 25.8638 51.5131 25.8148Z" stroke="#ffffff" stroke-width="2"/>
</symbol><symbol id="icon-smile" viewBox="0 0 40 41">
<path d="M20 27.0054C18.818 27.0076 17.6473 26.7754 16.5556 26.3223C15.4639 25.8691 14.473 25.204 13.64 24.3654L12.22 25.7854C13.2415 26.8074 14.4544 27.6181 15.7893 28.1712C17.1242 28.7243 18.555 29.009 20 29.009C21.445 29.009 22.8758 28.7243 24.2107 28.1712C25.5456 27.6181 26.7585 26.8074 27.78 25.7854L26.36 24.3654C25.5271 25.204 24.5361 25.8691 23.4444 26.3223C22.3527 26.7754 21.182 27.0076 20 27.0054ZM26 13.5054C25.644 13.5054 25.296 13.6109 25 13.8087C24.704 14.0065 24.4733 14.2876 24.337 14.6165C24.2008 14.9454 24.1651 15.3074 24.2346 15.6565C24.3041 16.0057 24.4755 16.3264 24.7272 16.5782C24.979 16.8299 25.2997 17.0013 25.6488 17.0708C25.998 17.1402 26.3599 17.1046 26.6888 16.9684C27.0177 16.8321 27.2989 16.6014 27.4967 16.3054C27.6944 16.0094 27.8 15.6614 27.8 15.3054C27.8 14.828 27.6104 14.3701 27.2728 14.0326C26.9352 13.695 26.4774 13.5054 26 13.5054ZM14 17.1054C14.356 17.1054 14.704 16.9998 15 16.802C15.296 16.6042 15.5268 16.3231 15.663 15.9942C15.7992 15.6653 15.8349 15.3034 15.7654 14.9542C15.696 14.605 15.5245 14.2843 15.2728 14.0326C15.0211 13.7808 14.7003 13.6094 14.3512 13.54C14.002 13.4705 13.6401 13.5061 13.3112 13.6424C12.9823 13.7786 12.7011 14.0093 12.5034 14.3053C12.3056 14.6014 12.2 14.9494 12.2 15.3054C12.2 15.7828 12.3897 16.2406 12.7272 16.5782C13.0648 16.9157 13.5226 17.1054 14 17.1054ZM20 0.00537109C16.0444 0.00537109 12.1776 1.17835 8.8886 3.37598C5.59962 5.57361 3.03617 8.69718 1.52242 12.3517C0.00866568 16.0062 -0.387401 20.0276 0.384303 23.9072C1.15601 27.7868 3.06082 31.3505 5.85787 34.1475C8.65492 36.9446 12.2186 38.8494 16.0982 39.6211C19.9778 40.3928 23.9992 39.9967 27.6537 38.483C31.3082 36.9692 34.4318 34.4058 36.6294 31.1168C38.827 27.8278 40 23.961 40 20.0054C40 17.3789 39.4827 14.7782 38.4776 12.3517C37.4725 9.92519 35.9993 7.72041 34.1421 5.86324C32.285 4.00606 30.0802 2.53287 27.6537 1.52778C25.2272 0.522686 22.6264 0.00537109 20 0.00537109ZM20 38.0054C16.4399 38.0054 12.9598 36.9497 9.99974 34.9718C7.03966 32.994 4.73255 30.1827 3.37018 26.8937C2.0078 23.6046 1.65134 19.9854 2.34587 16.4937C3.04041 13.0021 4.75474 9.79479 7.27209 7.27745C9.78943 4.7601 12.9967 3.04577 16.4884 2.35124C19.98 1.6567 23.5992 2.01316 26.8883 3.37554C30.1774 4.73792 32.9886 7.04502 34.9665 10.0051C36.9443 12.9652 38 16.4453 38 20.0054C38 24.7793 36.1036 29.3576 32.7279 32.7333C29.3523 36.1089 24.7739 38.0054 20 38.0054Z" fill="#ffffff"/>
</symbol><symbol id="icon-tel" viewBox="0 0 28 49">
<rect x="1" y="1.00537" width="26" height="46" rx="3" stroke="#ffffff" stroke-width="2"/>
<line x1="8.74228e-08" y1="8.39673" x2="28" y2="8.39673" stroke="#ffffff" stroke-width="2"/>
<line x1="8.74228e-08" y1="38.6575" x2="28" y2="38.6575" stroke="#ffffff" stroke-width="2"/>
<line x1="10" y1="42.8315" x2="18" y2="42.8315" stroke="#ffffff" stroke-width="2"/>
</symbol><symbol id="icon-time" viewBox="0 0 40 41">
<path d="M20 0.00537109C16.0444 0.00537109 12.1776 1.17835 8.8886 3.37598C5.59962 5.57361 3.03617 8.69718 1.52242 12.3517C0.00866568 16.0062 -0.387401 20.0276 0.384303 23.9072C1.15601 27.7868 3.06082 31.3505 5.85787 34.1475C8.65492 36.9446 12.2186 38.8494 16.0982 39.6211C19.9778 40.3928 23.9992 39.9967 27.6537 38.483C31.3082 36.9692 34.4318 34.4058 36.6294 31.1168C38.827 27.8278 40 23.961 40 20.0054C40 17.3789 39.4827 14.7782 38.4776 12.3517C37.4725 9.92519 35.9993 7.72041 34.1421 5.86324C32.285 4.00606 30.0802 2.53287 27.6537 1.52778C25.2272 0.522686 22.6264 0.00537109 20 0.00537109ZM20 38.0054C16.4399 38.0054 12.9598 36.9497 9.99974 34.9718C7.03966 32.994 4.73255 30.1827 3.37018 26.8937C2.0078 23.6046 1.65134 19.9854 2.34587 16.4937C3.04041 13.0021 4.75474 9.79479 7.27209 7.27745C9.78943 4.7601 12.9967 3.04577 16.4884 2.35124C19.98 1.6567 23.5992 2.01316 26.8883 3.37554C30.1774 4.73792 32.9886 7.04502 34.9665 10.0051C36.9443 12.9652 38 16.4453 38 20.0054C38 24.7793 36.1036 29.3576 32.7279 32.7333C29.3523 36.1089 24.7739 38.0054 20 38.0054ZM20.34 8.58537H18.34V21.5854H29.34V19.5854H20.34V8.58537Z" fill="#ffffff"/>
</symbol></svg>